{"glyphs":{"0":{"ha":556,"x_min":7,"x_max":514,"o":"m 444 133 q 418 78 433 106 q 386 28 403 51 q 336 -14 365 -3 q 268 -22 307 -25 q 114 42 172 -11 q 29 203 56 96 q 12 306 17 254 q 11 410 7 357 q 47 605 21 510 q 119 792 74 700 q 135 819 128 806 q 153 844 143 832 q 176 863 163 856 q 208 872 189 871 q 213 874 210 872 q 215 878 215 875 q 292 913 249 918 q 358 897 328 908 q 411 857 388 885 q 439 822 426 842 q 458 783 451 803 q 501 620 488 704 q 512 452 514 536 q 492 288 510 368 q 444 133 475 207 m 254 32 q 319 75 290 36 q 369 176 349 114 q 402 316 390 238 q 417 476 414 394 q 412 635 419 557 q 385 776 404 714 q 369 813 379 796 q 347 843 358 831 q 314 857 332 860 q 288 835 296 854 q 256 776 272 804 q 228 715 240 747 q 180 560 200 639 q 157 403 160 482 q 165 221 150 313 q 194 120 174 168 q 254 32 214 72 z "},"1":{"ha":283,"x_min":-3,"x_max":236,"o":"m 190 22 q 203 12 196 15 q 217 5 210 8 q 229 -5 224 1 q 235 -24 235 -11 l -3 -24 q 13 1 3 -6 q 36 10 24 8 q 61 14 49 13 q 83 24 74 15 q 81 376 75 201 q 99 724 88 550 q 67 700 76 708 q 52 690 58 692 q 36 694 46 689 q 4 711 26 700 q 32 756 11 729 q 78 812 53 783 q 131 865 104 840 q 179 903 158 890 q 197 898 188 899 q 216 895 207 897 q 231 888 225 893 q 236 869 236 882 q 225 754 232 817 q 215 638 218 692 q 202 342 208 490 q 189 47 196 194 q 190 33 189 40 q 190 22 190 26 z "},"2":{"ha":604,"x_min":1,"x_max":563,"o":"m 186 619 q 156 601 169 601 q 124 617 142 601 q 92 646 104 632 q 77 676 81 660 q 77 710 74 692 q 92 751 81 728 q 153 842 115 807 q 235 894 192 876 q 324 916 279 913 q 408 914 369 919 q 465 886 435 910 q 519 829 496 863 q 552 758 542 796 q 550 689 563 721 q 466 524 513 601 q 368 373 419 446 q 265 229 317 300 q 164 86 213 158 q 273 95 222 92 q 374 103 324 99 q 410 97 393 104 q 442 76 428 89 q 468 45 457 63 q 488 10 479 28 q 408 9 456 13 q 310 -1 361 6 q 212 -16 260 -8 q 129 -28 164 -24 q 63 -7 93 -36 q 24 36 39 19 q 6 69 10 53 q 9 108 1 86 q 39 165 17 129 q 127 288 79 229 q 222 410 175 347 q 319 535 271 474 q 415 661 368 597 q 441 706 425 679 q 465 759 457 733 q 466 803 472 785 q 426 824 460 822 q 294 800 353 826 q 194 711 236 774 q 181 690 188 700 q 172 667 174 679 q 172 644 169 656 q 186 619 175 632 z "},"3":{"ha":561,"x_min":1,"x_max":525,"o":"m 103 651 q 65 688 78 672 q 51 717 53 703 q 58 748 49 732 q 88 785 68 764 q 185 869 132 835 q 306 915 239 904 q 372 917 344 921 q 421 901 400 914 q 458 863 442 888 q 489 803 474 838 q 492 762 499 782 q 474 725 485 742 q 424 662 450 693 q 371 599 399 631 q 342 568 358 583 q 308 535 326 553 q 426 456 379 503 q 506 339 474 410 q 522 253 525 297 q 500 169 519 210 q 411 45 468 94 q 276 -24 354 -4 q 198 -32 238 -35 q 123 -13 158 -29 q 58 29 88 3 q 8 90 28 56 q 1 117 1 103 q 6 139 1 131 q 21 147 11 147 q 44 129 31 146 q 116 78 76 85 q 200 79 156 71 q 340 156 279 103 q 429 281 400 208 q 434 371 449 338 q 365 428 419 404 q 314 447 340 439 q 263 458 288 454 q 214 484 229 464 q 183 528 199 504 q 183 549 178 538 q 197 572 188 561 q 215 593 206 583 q 229 608 225 603 q 297 677 264 643 q 361 747 329 711 q 383 776 371 760 q 397 806 394 793 q 390 824 400 818 q 344 822 379 831 q 283 801 315 817 q 219 763 251 786 q 158 712 188 740 q 103 651 128 683 z "},"4":{"ha":597,"x_min":-10,"x_max":564,"o":"m 496 -25 q 439 -33 461 -33 q 403 -24 417 -33 q 382 6 389 -14 q 371 58 375 26 q 366 197 364 135 q 368 326 368 258 q 324 325 353 332 q 265 306 296 318 q 204 283 233 294 q 160 268 175 272 q 103 276 131 265 q 54 304 76 286 q 17 346 32 322 q -3 394 1 369 q 14 490 -10 433 q 73 609 38 546 q 147 737 108 672 q 210 858 185 801 q 236 895 226 892 q 275 878 246 899 q 307 835 304 858 q 292 774 310 811 q 185 572 235 665 q 96 383 135 479 q 97 353 85 360 q 135 348 108 346 q 196 359 161 350 q 265 378 231 368 q 327 397 299 389 q 368 407 356 406 q 378 528 374 465 q 387 656 382 592 q 398 782 392 719 q 415 900 404 844 q 447 919 424 915 q 496 915 471 922 q 541 892 521 908 q 563 853 561 876 q 564 830 564 838 q 563 806 564 822 q 528 375 546 578 q 496 -25 510 172 z "},"5":{"ha":629,"x_min":-8,"x_max":576,"o":"m 44 861 q 453 918 239 976 q 503 887 489 907 q 519 824 517 867 q 193 818 353 863 q 181 694 186 754 q 168 569 175 633 q 271 594 225 585 q 368 590 317 604 q 465 542 421 576 q 536 462 508 508 q 570 360 564 415 q 554 249 576 304 q 488 124 531 178 q 385 31 444 71 q 327 -3 357 13 q 266 -24 297 -18 q 204 -26 235 -31 q 146 -3 174 -22 q 91 37 118 15 q 36 81 64 58 q 16 110 25 92 q 18 153 7 129 q 33 157 24 161 q 52 144 42 153 q 72 122 63 135 q 89 100 82 110 q 137 63 113 71 q 186 59 161 54 q 237 78 211 64 q 288 108 263 93 q 397 203 351 147 q 465 339 443 258 q 469 396 471 364 q 458 456 468 428 q 428 502 449 483 q 378 519 408 521 q 263 499 318 517 q 160 442 207 482 q 114 424 135 422 q 67 438 93 425 q 21 519 8 463 q 32 613 26 567 q 49 706 38 658 q 52 752 54 732 q 33 792 50 772 q 44 861 -8 833 z "},"6":{"ha":533,"x_min":-14,"x_max":507,"o":"m 206 628 q 308 624 260 633 q 395 588 357 614 q 458 522 433 563 q 492 424 483 481 q 476 212 507 311 q 372 26 444 113 q 282 -33 329 -26 q 172 -7 235 -39 q 60 90 101 32 q 8 231 18 149 q 39 578 -14 417 q 217 879 92 740 q 326 940 275 944 q 425 869 376 935 q 432 857 433 861 q 424 851 431 853 q 411 850 418 850 q 400 850 404 850 q 337 826 368 851 q 278 763 306 800 q 232 688 251 726 q 206 628 213 650 m 314 122 q 389 285 367 200 q 394 463 411 369 q 363 539 385 515 q 311 565 340 563 q 251 553 282 568 q 194 514 221 539 q 145 428 164 485 q 119 308 126 372 q 119 183 113 243 q 147 85 126 122 q 188 44 165 51 q 233 46 210 36 q 276 77 256 56 q 314 122 297 99 z "},"7":{"ha":554,"x_min":-14,"x_max":511,"o":"m 64 826 q 192 875 128 850 q 328 915 257 900 q 444 894 396 926 q 508 796 492 863 q 509 767 511 783 q 501 736 507 751 q 477 689 490 713 q 449 642 464 665 q 388 547 419 593 q 326 456 357 501 q 293 403 308 432 l 354 336 q 320 332 335 333 q 294 331 306 331 q 229 290 250 335 q 163 139 194 215 q 111 -19 132 63 q 35 33 54 -1 q 20 110 15 67 q 47 206 25 154 q 96 314 69 258 q 33 310 60 301 q -3 336 7 319 q -4 369 -14 353 q 42 385 6 385 q 74 386 44 385 q 132 390 103 388 q 184 472 153 425 q 247 567 215 519 q 308 656 279 614 q 354 722 336 697 q 393 801 393 778 q 374 828 393 825 q 295 810 338 831 q 210 769 253 789 q 128 746 168 750 q 57 778 88 742 q 39 798 44 792 q 34 808 33 804 q 42 816 35 813 q 64 826 49 819 z "},"8":{"ha":644,"x_min":-8,"x_max":611,"o":"m 335 339 q 408 287 369 314 q 471 228 447 260 q 494 160 494 196 q 450 82 493 124 q 412 51 435 65 q 364 23 389 36 q 314 -1 339 10 q 271 -21 289 -12 q 157 -35 211 -49 q 53 18 103 -22 q 1 146 -8 69 q 38 256 13 206 q 100 354 64 307 l 132 394 q 57 506 82 450 q 51 636 32 563 q 105 742 68 690 q 190 836 142 794 q 296 906 239 878 q 407 939 353 933 q 485 927 447 944 q 552 878 524 910 q 596 808 581 847 q 606 728 611 768 q 569 610 597 664 q 503 510 542 557 q 421 422 465 464 q 335 339 376 379 m 232 407 q 371 531 306 472 q 483 664 436 589 q 508 715 496 685 q 525 775 521 746 q 523 828 529 804 q 493 860 517 851 q 407 864 451 876 q 320 822 363 851 q 242 751 278 792 q 181 672 206 711 q 147 598 160 640 q 135 516 133 556 q 160 446 138 476 q 232 407 182 415 m 258 319 q 203 246 229 285 q 160 169 178 207 q 134 99 143 132 q 129 46 125 67 q 197 52 161 44 q 267 74 232 60 q 331 109 301 89 q 381 151 361 129 q 402 210 410 185 q 369 256 394 236 q 310 292 343 276 q 258 319 278 307 z "},"9":{"ha":557,"x_min":-7,"x_max":524,"o":"m 224 43 q 273 44 251 32 q 310 76 294 56 q 335 158 325 101 q 353 277 346 214 q 366 399 361 340 q 376 488 371 457 q 281 347 315 397 q 220 275 247 296 q 162 259 193 254 q 76 283 131 264 q 35 317 51 294 q 10 365 19 339 q -3 419 0 392 q -7 469 -7 446 q 17 608 -4 539 q 75 735 39 676 q 160 838 111 793 q 271 904 210 883 q 415 890 347 936 q 444 867 431 878 q 476 846 458 856 q 516 814 508 835 q 521 764 524 793 q 513 627 515 696 q 507 489 511 558 q 502 383 504 443 q 494 260 500 322 q 477 138 489 197 q 442 36 465 79 q 383 -27 419 -7 q 292 -33 346 -47 q 247 -19 269 -26 q 199 3 224 -11 q 181 22 186 11 q 178 42 175 33 q 193 52 182 50 q 224 43 204 54 m 401 810 q 324 804 364 822 q 249 748 285 786 q 184 656 214 710 q 138 542 154 601 q 119 424 121 483 q 138 315 118 364 q 177 322 153 303 q 231 382 201 342 q 289 477 260 422 q 342 592 318 532 q 383 708 367 651 q 401 810 399 765 z "},"\u0000":{"ha":0,"x_min":0,"x_max":0,"o":""},"\r":{"ha":418,"x_min":0,"x_max":0,"o":""}," ":{"ha":418,"x_min":0,"x_max":0,"o":""},"E":{"ha":821,"x_min":1,"x_max":882,"o":"m 361 531 q 455 547 410 538 q 546 568 500 556 q 575 574 564 572 q 594 572 586 575 q 610 560 603 569 q 628 535 617 551 q 633 526 631 531 q 639 511 635 521 q 619 496 629 504 q 599 481 610 488 q 532 434 567 457 q 465 386 497 411 q 388 305 424 353 q 329 207 351 257 q 301 112 307 157 q 316 38 296 67 q 385 5 336 10 q 518 32 433 0 q 668 134 589 57 q 829 311 747 211 q 842 301 836 306 q 851 292 847 296 q 873 269 865 278 q 881 251 881 260 q 876 233 882 243 q 857 208 869 224 q 740 78 800 140 q 601 -28 681 17 q 508 -68 557 -56 q 406 -69 458 -81 q 334 -38 372 -62 q 263 19 296 -14 q 203 90 229 53 q 169 158 178 126 q 185 281 156 221 q 232 354 204 321 q 293 417 260 388 q 313 433 304 425 q 332 450 322 442 q 299 479 315 465 q 267 508 282 493 q 197 496 232 503 q 126 485 163 489 q 52 494 81 479 q 6 546 24 510 q 4 560 1 557 q 13 562 7 563 q 28 559 19 561 q 43 557 36 557 q 135 557 88 553 q 224 576 183 561 q 229 584 228 578 q 232 599 231 590 q 233 615 233 607 q 235 628 233 624 q 290 756 256 699 q 371 858 325 813 q 474 941 417 904 q 594 1007 531 978 q 667 1022 629 1022 q 705 1019 685 1022 q 736 1006 725 1017 q 790 944 765 976 q 839 879 815 913 q 839 846 849 865 q 811 807 829 826 q 774 772 793 788 q 746 750 754 756 q 553 631 650 681 q 357 539 457 581 l 361 531 m 407 631 q 442 643 417 632 q 499 671 467 654 q 569 708 532 688 q 640 749 607 728 q 701 790 674 769 q 740 826 728 810 q 748 848 747 835 q 744 874 749 861 q 729 895 739 886 q 704 906 719 904 q 649 885 682 903 q 571 832 617 868 q 533 796 556 819 q 488 744 511 772 q 442 686 464 717 q 407 631 421 656 z "},"F":{"ha":671,"x_min":10,"x_max":1219,"o":"m 1171 863 q 1120 901 1153 882 q 1044 936 1088 921 q 950 960 1001 951 q 843 969 899 969 q 742 965 792 969 q 650 950 692 961 q 578 920 608 939 q 536 871 549 901 q 499 771 517 826 q 467 658 482 715 q 442 543 453 600 q 425 438 431 486 q 483 436 454 433 q 539 440 511 439 q 592 425 578 442 q 610 358 607 408 q 515 344 563 351 q 414 329 467 338 q 399 113 399 219 q 408 -100 399 7 q 351 -110 381 -111 q 300 -94 322 -108 q 247 -20 260 -71 q 233 89 235 31 q 232 202 232 147 q 218 290 232 257 q 176 313 190 293 q 147 354 161 332 q 144 381 138 369 q 167 396 151 392 q 194 405 181 403 q 218 410 207 407 q 241 519 229 460 q 265 641 253 579 q 290 763 278 703 q 313 871 301 822 q 252 844 283 865 q 195 791 221 822 q 150 722 169 760 q 123 647 131 685 q 123 575 115 610 q 157 515 131 540 q 178 481 176 496 q 172 459 181 467 q 149 452 164 451 q 121 465 135 453 q 55 539 83 499 q 19 638 26 579 q 72 819 10 736 q 141 884 106 858 q 214 928 176 910 q 290 960 251 946 q 369 992 329 975 q 443 1025 411 1004 q 476 1041 461 1036 q 510 1039 490 1046 q 550 1035 529 1033 q 592 1040 571 1038 q 789 1071 692 1057 q 986 1081 886 1085 q 1049 1073 1018 1079 q 1110 1056 1079 1067 q 1154 1028 1136 1046 q 1183 989 1172 1011 q 1201 942 1194 967 q 1214 890 1208 917 q 1205 854 1219 865 q 1171 863 1190 843 z "},"H":{"ha":985,"x_min":-8,"x_max":986,"o":"m 172 128 q 122 167 128 150 q 131 195 115 183 q 175 215 146 207 q 232 228 204 224 q 236 362 232 286 q 251 522 240 438 q 282 692 263 606 q 333 857 301 778 q 294 817 319 847 q 240 747 268 788 q 183 658 211 706 q 134 564 154 610 q 104 478 114 518 q 104 414 94 439 q 100 394 111 399 q 79 392 89 389 q 6 451 19 410 q 7 545 -8 493 q 59 655 22 597 q 138 765 96 713 q 217 857 179 817 q 274 915 254 897 q 358 979 317 956 q 426 988 399 1003 q 482 955 454 969 q 538 924 510 940 q 571 890 558 907 q 561 814 601 847 q 492 731 517 778 q 460 625 468 683 q 435 451 444 538 q 424 275 426 364 q 549 285 488 281 q 674 297 610 290 q 678 328 676 313 q 681 363 679 344 q 708 557 689 461 q 768 744 728 653 q 803 818 783 782 q 846 888 822 854 q 883 919 865 917 q 925 903 900 922 q 957 881 943 893 q 986 857 971 868 q 894 579 922 721 q 854 290 867 438 q 878 282 868 283 q 897 277 889 281 q 910 267 904 274 q 919 244 915 261 l 853 244 q 846 169 847 210 q 846 89 844 129 q 851 10 847 49 q 861 -60 856 -29 q 706 28 731 -97 q 697 74 701 47 q 690 128 693 100 q 684 185 688 157 q 678 233 681 213 q 552 220 615 231 q 422 199 489 210 q 419 132 419 168 q 421 58 419 96 q 426 -17 422 19 q 435 -83 429 -53 q 321 -74 367 -100 q 260 15 275 -47 q 256 44 257 26 q 252 83 254 63 q 248 122 250 103 q 243 153 246 140 q 209 141 226 146 q 172 128 192 136 z "},"I":{"ha":524,"x_min":-3,"x_max":524,"o":"m 310 890 q 227 796 265 856 q 165 669 189 736 q 137 535 142 601 q 156 422 132 469 q 131 409 142 407 q 110 419 119 411 q 65 458 86 439 q 24 501 43 478 q -1 560 0 528 q 4 624 -3 592 q 21 668 11 646 q 42 710 31 690 q 310 985 149 878 q 355 1004 333 1001 q 406 983 376 1007 q 453 953 428 967 q 501 919 478 939 q 519 894 515 907 q 517 861 524 881 q 457 588 474 725 q 443 307 440 450 q 446 167 444 236 q 447 28 447 99 q 432 -33 444 -3 q 399 -82 419 -62 q 349 -107 378 -101 q 285 -96 319 -112 q 248 -77 269 -87 q 212 -55 226 -67 q 194 -31 197 -43 q 210 -8 190 -19 q 258 54 251 15 q 265 142 265 93 q 263 250 263 189 q 266 378 264 311 q 273 517 268 446 q 283 656 278 589 q 295 784 289 724 q 310 890 301 844 z "},"G":{"ha":889,"x_min":-15,"x_max":857,"o":"m 604 382 q 485 308 538 346 q 393 210 432 269 q 346 240 363 217 q 311 286 329 263 q 310 301 308 290 q 315 318 311 311 q 325 332 318 325 q 339 346 332 339 q 494 457 414 408 q 668 529 575 506 q 757 539 711 539 q 829 513 806 539 q 857 429 853 486 q 820 433 839 432 q 779 438 801 435 q 756 338 768 388 q 736 240 744 289 q 725 142 728 192 q 731 42 722 93 q 656 63 693 38 q 586 139 618 88 q 540 87 563 114 q 493 35 517 60 q 419 -29 458 -1 q 331 -72 379 -57 q 214 -61 267 -89 q 43 94 101 -3 q 0 346 -15 192 q 43 522 10 440 q 125 679 76 604 q 231 811 174 750 q 356 921 288 872 q 413 958 383 942 q 475 986 443 975 q 572 995 525 1006 q 657 942 618 985 q 688 909 672 925 q 717 876 703 893 q 729 859 724 868 q 738 840 735 850 q 739 817 740 829 q 731 799 738 806 q 714 796 726 794 q 696 803 701 797 q 646 828 671 829 q 593 817 621 828 q 572 810 582 814 q 550 799 561 806 q 417 705 479 756 q 303 592 354 654 q 213 458 251 531 q 149 299 174 385 q 135 188 133 243 q 153 75 138 133 q 210 -7 171 8 q 297 -3 249 -22 q 396 61 344 15 q 492 163 447 107 q 567 278 536 219 q 604 382 597 336 z "},"J":{"ha":626,"x_min":-24,"x_max":575,"o":"m 217 333 q 199 315 208 324 q 182 296 190 306 q 106 146 126 231 q 114 35 88 86 q 156 10 126 8 q 206 24 183 13 q 247 51 228 35 q 306 118 283 81 q 339 200 328 156 q 358 285 350 242 q 369 372 367 328 q 373 482 371 417 q 377 617 375 547 q 381 755 379 688 q 382 869 382 822 q 342 833 365 857 q 294 779 318 810 q 249 713 269 749 q 215 640 228 676 q 203 568 203 603 q 224 504 204 533 q 226 491 228 497 q 219 481 224 485 q 206 477 214 478 q 193 481 199 476 q 150 519 171 499 q 115 562 129 539 q 93 612 100 585 q 92 672 86 639 q 102 713 94 693 q 121 753 110 733 q 142 782 129 768 q 168 807 154 796 q 278 894 224 851 q 389 981 332 938 q 429 1000 417 1003 q 467 972 442 997 q 494 946 479 958 q 525 922 508 933 q 565 875 556 901 q 565 811 575 849 q 540 560 532 689 q 547 467 543 514 q 554 374 551 421 q 549 217 560 294 q 504 65 539 140 q 303 -97 440 -67 q 240 -103 271 -104 q 181 -86 210 -101 q 133 -62 157 -75 q 86 -33 108 -49 q 10 163 -24 38 q 110 343 38 267 q 138 369 126 361 q 162 376 150 378 q 186 365 174 375 q 217 333 199 354 z "},"K":{"ha":942,"x_min":-3,"x_max":990,"o":"m 544 349 q 567 322 557 333 q 588 297 576 310 q 642 157 642 239 q 644 110 642 135 q 654 66 646 86 q 678 35 663 46 q 721 32 693 25 q 797 74 764 42 q 858 147 831 107 q 907 231 885 188 q 949 306 929 274 q 972 284 963 292 q 985 272 981 276 q 990 260 989 267 q 988 244 990 254 q 961 162 981 204 q 914 81 942 119 q 851 12 886 43 q 779 -37 817 -19 q 668 -54 715 -68 q 590 -3 621 -40 q 546 84 560 33 q 535 179 532 135 q 525 246 538 221 q 463 267 513 271 q 423 255 431 264 q 415 213 415 246 q 432 -58 421 76 q 427 -85 432 -78 q 404 -89 422 -92 q 358 -79 381 -85 q 314 -64 336 -74 q 268 -16 286 -53 q 243 69 250 21 q 232 263 229 169 q 244 448 235 357 q 264 628 254 539 q 274 808 274 717 q 199 699 232 757 q 148 582 167 640 q 125 468 129 524 q 135 367 121 413 q 136 348 139 354 q 128 340 133 342 q 119 338 124 338 q 114 338 114 338 q 26 402 56 357 q -1 510 -3 447 q 9 584 0 549 q 42 651 18 619 q 185 828 110 744 q 349 985 261 911 q 392 1007 372 1003 q 433 992 411 1011 q 487 955 460 972 q 538 918 514 938 q 557 891 557 901 q 540 861 557 881 q 527 844 533 853 q 517 825 521 836 q 456 627 476 728 q 428 417 436 526 q 663 661 564 525 q 814 961 761 797 q 828 1000 822 988 q 840 1013 833 1013 q 858 1002 847 1013 q 886 974 868 992 q 928 804 951 907 q 829 590 900 679 q 661 429 758 500 q 606 391 635 410 q 544 349 576 372 z "},"L":{"ha":738,"x_min":-3,"x_max":708,"o":"m 386 90 q 459 63 424 63 q 532 78 494 63 q 590 122 568 93 q 628 183 613 151 q 697 126 685 156 q 682 49 708 97 q 587 -34 649 -14 q 460 -25 525 -54 q 438 -15 449 -19 q 417 -3 428 -10 q 351 17 383 15 q 285 -1 319 18 q 218 -21 244 -25 q 160 13 192 -17 q 142 38 143 26 q 156 65 140 49 q 210 107 178 92 q 260 157 249 124 q 299 345 294 253 q 296 525 303 438 q 211 466 250 496 q 145 401 172 436 q 106 322 118 365 q 104 225 94 279 q 36 253 63 231 q 6 308 10 275 q 22 410 -3 368 q 89 483 47 451 q 181 542 131 515 q 274 597 231 568 q 294 640 294 613 q 297 693 294 668 q 308 777 301 735 q 328 859 315 819 q 363 933 342 899 q 414 996 383 968 q 543 999 481 1050 q 601 945 574 972 q 640 878 629 918 q 597 713 669 781 q 547 672 574 690 q 490 636 519 653 q 463 612 471 625 q 454 578 456 599 q 451 453 453 515 q 447 328 450 390 q 432 207 444 265 q 386 90 419 149 m 567 872 q 533 842 550 864 q 500 794 515 819 q 474 743 485 768 q 461 701 464 718 q 530 752 501 725 q 573 803 558 779 q 586 847 588 828 q 567 872 585 865 z "},"M":{"ha":1374,"x_min":-6,"x_max":1444,"o":"m 114 374 q 113 367 115 371 q 110 358 111 363 q 32 397 64 364 q -3 475 0 429 q 8 572 -6 526 q 50 657 22 617 q 94 717 71 688 q 143 774 117 746 q 361 996 249 883 q 394 1020 383 1019 q 432 1003 404 1021 q 485 970 458 986 q 539 938 513 954 q 565 917 556 925 q 576 901 574 910 q 574 882 578 893 q 563 851 571 871 q 501 667 522 761 q 468 474 479 572 q 465 410 465 442 q 467 346 464 379 q 486 381 476 363 q 534 469 510 425 q 583 557 558 514 q 609 594 594 576 q 639 628 624 611 q 671 656 654 644 q 714 656 688 668 q 760 624 742 642 q 776 572 779 606 q 767 481 772 526 q 757 390 761 436 q 761 331 750 338 q 796 376 772 325 q 872 536 835 457 q 951 690 910 615 q 1042 833 993 764 q 1154 961 1092 901 q 1202 1003 1183 989 q 1239 1019 1221 1018 q 1278 1010 1257 1021 q 1333 975 1300 999 l 1363 954 q 1396 871 1407 924 q 1383 822 1389 846 q 1368 774 1376 797 q 1306 599 1338 686 q 1244 425 1274 513 q 1194 259 1217 342 q 1164 89 1171 176 q 1163 40 1163 68 q 1170 -5 1164 13 q 1190 -22 1176 -22 q 1226 13 1203 -22 q 1306 154 1271 86 q 1378 297 1342 222 q 1399 290 1386 294 q 1422 281 1411 286 q 1438 268 1432 276 q 1439 249 1444 260 q 1385 110 1413 175 q 1314 -19 1357 46 q 1278 -65 1294 -49 q 1243 -88 1261 -82 q 1203 -91 1225 -94 q 1150 -76 1181 -87 q 1052 -15 1082 -54 q 1019 99 1022 25 q 1026 254 1015 178 q 1058 407 1036 331 q 1100 550 1081 478 q 1149 692 1119 622 q 1168 750 1168 736 q 1156 755 1168 764 q 1120 718 1143 746 q 1071 653 1097 690 q 1017 573 1044 617 q 969 489 990 529 q 922 402 946 444 q 875 315 899 360 q 861 289 868 303 q 846 264 854 275 q 832 244 839 254 q 817 226 825 233 q 798 215 808 218 q 774 215 788 211 q 716 238 743 224 q 678 289 689 251 q 664 379 664 333 q 669 469 664 425 q 673 493 672 481 q 671 519 674 506 q 658 505 664 513 q 647 489 653 497 q 543 260 585 378 q 478 18 501 143 q 469 -18 474 -6 q 454 -37 464 -31 q 430 -42 444 -43 q 392 -37 415 -42 q 315 2 339 -29 q 279 83 290 33 q 252 353 249 219 q 288 624 256 488 q 296 660 289 632 q 311 719 303 688 q 327 779 319 751 q 336 815 335 807 q 300 766 324 797 q 248 695 276 735 q 192 611 219 656 q 143 523 164 567 q 113 440 122 479 q 114 374 104 401 z "},"N":{"ha":1032,"x_min":-7,"x_max":1110,"o":"m 1036 299 q 1062 290 1051 293 q 1082 282 1072 286 q 1101 244 1110 271 q 1067 111 1086 176 q 1010 -12 1049 46 q 990 -37 1001 -25 q 965 -60 979 -50 q 937 -76 951 -69 q 908 -81 922 -82 q 808 -48 851 -74 q 740 38 764 -22 q 712 163 717 100 q 714 292 707 226 q 753 511 725 404 q 818 725 781 618 q 828 751 822 736 q 834 774 833 765 q 828 783 835 783 q 804 764 822 782 q 695 624 743 699 q 608 471 647 550 q 537 309 568 392 q 478 143 506 226 q 455 80 467 111 q 432 17 443 49 q 412 -13 421 -8 q 375 -11 403 -18 q 362 -8 368 -10 q 349 -6 356 -7 q 291 23 311 1 q 263 82 271 44 q 236 443 224 263 q 293 808 249 624 q 222 738 256 786 q 166 633 189 690 q 132 515 143 575 q 128 410 121 456 q 117 383 133 381 q 78 402 101 385 q 35 442 56 419 q 10 476 14 465 q -3 566 -7 524 q 17 645 0 608 q 63 714 35 682 q 124 772 90 746 q 237 878 183 824 q 336 997 290 933 q 353 1020 346 1013 q 368 1028 361 1028 q 385 1025 375 1029 q 411 1011 394 1021 q 468 979 439 996 q 524 943 497 963 q 550 917 550 926 q 532 881 550 907 q 497 808 513 847 q 449 644 467 726 q 425 474 431 561 q 424 399 422 438 q 425 321 425 361 q 433 335 429 328 q 440 351 438 343 q 510 499 476 425 q 582 644 544 572 q 675 787 622 722 q 794 901 728 851 q 837 929 819 919 q 869 939 854 939 q 903 931 885 939 q 947 906 921 922 q 997 853 983 883 q 1003 783 1010 824 q 992 720 999 751 q 978 657 985 689 q 931 426 954 540 q 885 193 907 311 q 878 150 882 176 q 872 96 874 124 q 869 43 869 68 q 872 4 868 18 q 888 -12 876 -15 q 913 7 899 -8 q 940 44 926 22 q 961 88 953 67 q 990 164 976 125 q 1018 243 1004 203 q 1026 268 1022 254 q 1036 299 1031 282 z "},"O":{"ha":794,"x_min":-11,"x_max":822,"o":"m 622 904 q 715 782 685 858 q 748 614 744 706 q 733 424 751 522 q 683 238 715 326 q 752 267 721 251 q 799 294 783 282 q 821 249 822 268 q 803 214 819 229 q 725 163 767 182 q 639 132 683 144 q 584 41 613 81 q 526 -24 556 1 q 446 -65 486 -57 q 357 -54 406 -72 q 161 182 196 11 q 147 217 158 204 q 121 243 135 231 q 38 356 68 293 q -1 486 8 418 q 1 624 -11 554 q 43 756 13 693 q 123 874 74 819 q 239 964 172 928 q 367 1005 303 1000 q 496 979 432 1010 q 560 946 529 964 q 622 904 590 928 m 157 392 q 165 449 158 415 q 181 519 171 483 q 205 588 190 554 q 239 644 219 622 q 283 674 258 667 q 339 664 308 681 q 414 622 378 644 q 439 596 436 607 q 432 557 442 585 q 405 483 419 521 q 378 408 390 446 q 356 330 365 369 q 346 249 347 290 q 374 217 354 232 q 421 195 393 203 q 483 188 449 188 q 556 201 518 189 q 601 330 581 263 q 631 466 621 397 q 642 603 642 535 q 626 735 642 671 q 608 789 619 760 q 579 843 596 818 q 540 884 563 868 q 490 899 518 900 q 342 846 411 896 q 226 721 274 796 q 159 558 179 646 q 157 392 139 471 m 368 1 q 406 10 385 0 q 447 38 426 21 q 485 77 467 56 q 517 121 504 99 q 448 122 479 114 q 394 140 417 129 q 355 162 371 151 q 333 172 339 172 q 330 126 329 156 q 335 68 331 96 q 347 20 339 40 q 368 1 356 0 z "},"P":{"ha":922,"x_min":-8,"x_max":969,"o":"m 142 346 q 77 385 108 357 q 25 449 46 413 q -2 527 4 486 q 10 606 -8 568 q 38 659 24 633 q 72 708 53 685 q 210 858 135 790 q 367 988 286 925 q 394 1002 381 999 q 421 1004 407 1006 q 447 999 435 1003 q 472 993 460 996 q 521 966 499 986 q 564 928 543 946 q 572 913 571 924 q 578 896 574 903 q 669 917 625 917 q 750 900 713 918 q 815 846 788 882 q 856 758 842 810 q 868 655 868 707 q 861 550 868 603 q 816 378 847 460 q 731 222 785 296 q 719 197 722 210 q 722 174 717 183 q 738 159 726 164 q 767 161 749 154 q 815 188 789 169 q 863 228 840 207 q 903 269 886 250 q 926 299 921 289 q 958 283 949 294 q 969 256 968 271 q 962 225 969 242 q 942 193 954 208 q 903 156 922 172 q 856 119 883 139 q 738 107 799 79 q 697 125 717 115 q 654 147 678 135 q 592 116 622 122 q 531 117 561 110 q 471 143 501 125 q 410 183 440 161 q 405 38 407 107 q 400 -101 403 -31 q 358 -103 379 -104 q 317 -94 336 -101 q 285 -74 299 -87 q 265 -42 271 -61 q 256 7 260 -18 q 251 56 253 32 q 258 394 243 228 q 317 728 272 561 q 328 765 321 740 q 341 810 336 789 q 344 840 346 831 q 326 829 342 849 q 281 776 308 808 q 224 703 253 743 q 169 619 196 663 q 128 533 143 575 q 115 456 114 492 q 139 394 115 419 q 153 377 146 388 q 163 358 160 367 q 161 344 165 349 q 142 346 157 340 m 460 525 q 596 472 547 529 q 636 412 619 444 q 672 346 653 379 q 721 437 703 390 q 751 532 739 483 q 767 608 760 561 q 775 703 775 656 q 764 793 775 751 q 724 854 753 835 q 633 796 671 831 q 564 718 594 761 q 509 626 533 675 q 460 525 485 576 m 528 468 q 485 428 503 457 q 459 363 467 399 q 454 291 451 326 q 472 233 457 256 q 515 208 488 211 q 586 236 543 206 q 599 252 593 240 q 603 271 604 264 q 578 372 592 322 q 528 468 564 422 z "},"Q":{"ha":672,"x_min":-21,"x_max":658,"o":"m 447 93 q 465 17 454 49 q 495 -38 476 -15 q 540 -76 514 -61 q 603 -101 567 -92 q 509 -144 556 -142 q 424 -124 463 -146 q 358 -63 385 -103 q 325 18 332 -24 q 270 14 294 10 q 224 28 246 18 q 183 56 203 39 q 139 89 163 72 q 51 192 79 133 q 21 325 22 250 q 16 387 19 357 q 7 447 13 417 q 65 756 -21 617 q 153 867 103 818 q 265 957 203 917 q 280 966 272 961 q 296 975 288 971 q 424 1003 360 1006 q 539 972 488 1001 q 623 889 590 943 q 657 764 656 835 q 645 575 658 664 q 606 404 632 486 q 540 245 579 322 q 447 93 500 168 m 417 274 q 483 384 456 324 q 526 509 510 444 q 551 641 543 574 q 563 774 560 708 q 560 827 563 800 q 549 876 557 854 q 524 910 540 897 q 478 925 507 924 q 397 913 440 926 q 314 874 354 899 q 240 819 274 850 q 189 753 207 788 q 247 785 222 775 q 292 792 272 796 q 328 772 311 789 q 360 725 344 756 q 217 538 271 639 q 151 310 164 436 q 196 307 174 303 q 239 320 218 311 q 280 342 260 329 q 318 364 300 354 q 353 374 336 374 q 385 368 371 375 q 408 346 399 361 q 417 310 417 331 l 417 274 m 307 125 q 299 191 303 161 q 293 249 296 221 q 219 225 254 224 q 144 249 185 226 q 165 168 156 199 q 190 124 174 138 q 233 110 206 110 q 307 125 260 111 z "},"R":{"ha":1025,"x_min":1,"x_max":1099,"o":"m 794 36 q 863 66 826 35 q 933 139 900 97 q 992 223 967 181 q 1029 288 1018 265 q 1071 211 1099 274 q 1035 145 1057 179 q 986 81 1013 111 q 930 25 960 50 q 869 -14 900 0 q 803 -28 842 -26 q 725 -22 764 -31 q 651 5 686 -14 q 597 53 617 24 q 569 99 583 72 q 540 153 554 125 q 513 208 526 181 q 490 258 500 236 q 453 93 454 175 q 458 -71 453 11 q 376 -70 406 -90 q 331 -12 346 -50 q 303 115 310 42 q 298 269 296 188 q 310 436 300 350 q 333 603 319 522 q 360 757 346 685 q 386 883 374 829 q 332 835 364 868 q 267 759 300 803 q 205 666 235 715 q 155 568 175 617 q 128 476 135 519 q 136 404 121 433 q 140 397 138 401 q 145 388 143 392 q 146 380 147 383 q 138 376 144 376 q 87 395 111 381 q 43 431 63 410 q 13 478 24 453 q 3 529 1 504 q 83 739 8 647 q 169 826 124 789 q 263 897 215 864 q 359 964 311 931 q 453 1040 407 997 q 503 1051 469 1056 q 574 1030 536 1046 q 647 990 611 1014 q 701 944 682 967 q 709 928 710 935 q 703 919 708 922 q 690 915 697 917 q 676 911 682 913 q 628 884 647 904 q 592 839 610 864 q 531 716 556 786 q 499 576 506 646 q 563 678 532 629 q 627 769 593 726 q 703 850 661 813 q 800 919 744 888 q 848 931 824 933 q 896 917 872 928 q 988 838 956 885 q 1025 722 1019 792 q 994 515 1032 610 q 875 343 956 421 q 808 291 838 308 q 753 267 779 274 q 700 263 726 261 q 643 271 674 265 q 663 197 651 238 q 694 120 675 156 q 737 60 713 85 q 794 36 761 36 m 781 779 q 706 701 739 743 q 644 614 672 660 q 591 519 615 568 q 543 422 567 471 q 633 372 588 376 q 719 390 678 367 q 794 456 760 413 q 854 552 829 500 q 893 658 879 604 q 906 753 907 711 q 894 818 903 799 q 871 838 886 838 q 833 821 856 838 q 781 779 810 804 z "},"S":{"ha":738,"x_min":-4,"x_max":771,"o":"m 428 464 q 516 380 472 425 q 606 294 560 335 q 627 299 614 296 q 656 305 640 301 q 688 310 672 308 q 718 313 704 313 q 745 310 736 313 q 758 302 754 308 q 765 285 763 296 q 771 254 767 274 q 696 246 735 251 q 615 226 657 240 q 613 205 614 215 q 611 182 613 194 q 543 -17 600 69 q 393 -156 486 -104 q 283 -156 336 -183 q 212 -110 247 -133 q 144 -61 176 -87 q 108 -1 108 -31 q 143 64 108 28 q 274 167 204 124 q 421 243 344 210 q 465 274 454 258 q 470 304 475 289 q 449 333 465 319 q 413 359 433 347 q 373 380 393 371 q 340 393 353 389 q 315 389 326 397 q 246 346 285 369 q 172 294 207 322 q 113 233 138 267 q 89 160 89 200 q 24 183 46 165 q -1 226 3 201 q 10 278 -4 251 q 50 329 24 306 q 142 400 94 369 q 236 463 189 431 q 208 505 215 483 q 203 548 201 526 q 215 591 206 569 q 235 635 224 613 q 335 799 278 722 q 464 943 393 875 q 533 980 503 979 q 603 949 563 981 q 682 876 647 915 q 708 831 706 853 q 693 778 710 808 q 572 611 640 692 q 428 464 503 531 m 553 813 q 476 739 513 779 q 415 659 440 699 q 378 584 389 619 q 379 526 368 549 q 492 628 439 571 q 574 733 544 686 q 603 806 604 781 q 553 813 601 831 m 444 186 q 403 167 428 182 q 353 133 379 153 q 302 91 328 114 q 256 47 276 68 q 225 1 235 24 q 219 -32 215 -21 q 242 -40 224 -43 q 296 -7 261 -36 q 369 74 331 24 q 444 186 408 124 z "},"T":{"ha":615,"x_min":-17,"x_max":983,"o":"m 525 -101 q 421 -96 464 -118 q 361 -15 378 -74 q 329 141 338 64 q 322 294 321 218 q 330 444 322 369 q 346 592 338 518 q 288 549 317 569 q 226 514 258 529 q 183 494 206 503 q 140 485 161 486 q 97 490 118 483 q 57 518 76 497 q 16 567 33 543 q -9 617 -1 590 q -15 674 -17 643 q 0 740 -14 704 q 7 756 1 749 q 110 890 44 832 q 254 980 175 949 q 418 1013 333 1011 q 578 979 503 1015 q 686 939 636 951 q 781 928 736 926 q 869 946 826 931 q 954 988 911 961 q 974 983 968 996 q 982 949 981 969 q 979 906 983 928 q 967 876 975 885 q 835 808 904 822 q 688 810 765 793 q 645 821 665 814 q 607 833 625 828 q 525 -101 471 371 m 74 579 q 139 586 108 578 q 198 608 169 594 q 252 640 226 622 q 304 675 278 658 q 394 760 358 711 q 449 874 431 808 q 323 855 388 879 q 203 788 258 831 q 113 690 149 744 q 74 579 76 635 z "},"V":{"ha":972,"x_min":1,"x_max":1013,"o":"m 285 853 q 254 799 275 832 q 210 726 233 765 q 166 644 188 686 q 132 561 144 601 q 120 487 119 521 q 142 429 121 453 q 159 394 157 408 q 155 376 161 381 q 136 374 149 371 q 110 388 124 376 q 14 535 26 450 q 49 711 1 619 q 124 823 81 774 q 215 917 167 872 q 267 960 242 940 q 321 1003 293 981 q 347 1017 335 1014 q 375 1004 360 1019 q 397 986 385 994 q 421 974 408 978 q 459 944 449 964 q 467 890 469 924 q 458 737 461 814 q 458 583 456 660 q 483 287 461 429 q 539 6 504 144 q 549 -25 543 -11 q 560 -45 554 -39 q 574 -47 567 -51 q 588 -22 581 -43 q 614 53 601 11 q 639 138 626 94 q 664 224 651 182 q 689 299 676 265 q 694 319 693 308 q 692 336 694 329 q 674 483 674 399 q 691 656 675 568 q 735 828 707 744 q 801 969 764 911 q 817 996 808 981 q 835 1024 825 1011 q 858 1047 846 1038 q 885 1054 869 1056 q 935 1032 913 1051 q 960 988 958 1013 q 956 882 964 932 q 901 637 936 756 q 831 396 867 518 q 815 350 824 372 q 801 304 807 328 q 808 255 790 268 q 853 242 825 242 q 909 253 881 243 q 950 271 938 263 q 976 288 967 282 q 991 294 985 294 q 1001 284 997 293 q 1013 256 1006 275 q 955 199 988 217 q 889 178 922 181 q 824 183 856 175 q 769 204 793 192 q 747 140 758 172 q 721 74 735 107 q 692 6 707 40 q 658 -61 678 -29 q 619 -105 639 -97 q 561 -110 599 -112 q 443 -65 490 -103 q 365 38 396 -26 q 312 192 329 113 q 282 354 294 271 q 272 459 275 400 q 268 584 268 518 q 272 719 268 650 q 285 853 276 788 m 767 539 q 823 706 799 622 q 860 876 847 789 q 797 711 819 796 q 767 539 775 626 z "},"W":{"ha":1349,"x_min":-3,"x_max":1396,"o":"m 365 843 q 319 797 350 828 q 255 724 289 765 q 188 635 221 683 q 135 540 156 588 q 113 447 115 492 q 136 365 110 401 q 147 342 146 353 q 144 324 149 331 q 131 318 140 318 q 113 329 122 318 q 69 366 90 347 q 28 407 47 385 q 4 448 11 425 q -3 497 -3 471 q 14 616 -3 560 q 69 718 31 672 q 231 875 144 807 q 414 997 318 943 q 449 1006 433 1008 q 481 989 464 1004 q 524 956 501 971 q 568 925 547 940 q 590 908 582 914 q 599 894 597 901 q 599 876 601 886 q 589 850 596 867 q 565 785 578 817 q 539 721 551 753 q 444 420 481 574 q 392 106 407 267 q 388 50 389 82 q 391 -2 386 18 q 410 -21 396 -22 q 451 24 424 -19 q 524 142 488 82 q 594 261 560 201 q 619 306 608 283 q 642 351 631 328 q 663 346 654 349 q 681 340 672 343 q 705 329 696 333 q 717 318 714 325 q 722 300 721 311 q 721 271 722 289 q 720 186 718 228 q 733 104 722 144 q 813 -45 772 -35 q 915 63 854 -56 q 950 135 935 99 q 981 207 965 171 q 948 260 964 235 q 919 314 932 286 q 859 535 872 422 q 861 765 846 647 q 881 871 868 818 q 910 974 893 924 q 939 1040 921 1008 q 976 1099 957 1071 q 1031 1138 1004 1135 q 1097 1125 1058 1142 q 1238 998 1196 1081 q 1283 803 1281 915 q 1263 541 1286 668 q 1194 289 1239 414 q 1181 249 1188 269 q 1165 206 1174 229 q 1257 228 1211 213 q 1340 276 1303 244 q 1372 293 1364 296 q 1388 275 1381 290 q 1394 247 1393 258 q 1392 226 1396 235 q 1380 208 1389 217 q 1354 189 1371 200 q 1263 151 1318 164 q 1135 131 1208 138 q 1101 75 1117 103 q 1065 21 1085 47 q 1033 -20 1050 0 q 996 -56 1015 -40 q 957 -81 978 -71 q 915 -92 936 -90 q 847 -88 885 -94 q 772 -65 808 -82 q 703 -15 735 -47 q 651 67 671 17 q 645 83 649 75 q 635 104 642 92 q 622 84 628 93 q 610 67 615 75 q 563 -6 586 31 q 513 -78 539 -42 q 449 -123 483 -114 q 371 -121 414 -132 q 262 -52 299 -101 q 214 75 225 -3 q 208 250 201 164 q 235 424 215 336 q 260 511 243 456 q 297 628 276 567 q 335 749 317 690 q 365 843 354 807 m 1086 1024 q 1060 1003 1071 1013 q 1040 985 1049 994 q 1025 963 1032 975 q 1010 932 1018 950 q 983 342 883 642 q 992 322 986 332 q 1007 297 999 313 q 1018 339 1014 321 q 1026 374 1022 357 q 1074 602 1054 488 q 1101 835 1093 717 q 1104 928 1106 881 q 1086 1024 1103 975 z "},"U":{"ha":1110,"x_min":-11,"x_max":1168,"o":"m 517 21 q 641 222 592 125 q 725 415 690 318 q 787 613 760 511 q 846 828 814 714 q 876 910 861 874 q 911 964 890 946 q 961 978 932 982 q 1035 938 990 974 q 1044 918 1042 931 q 1044 894 1046 906 q 1038 856 1042 875 q 1028 819 1033 838 q 958 472 978 647 q 922 119 938 296 q 921 -1 914 33 q 944 -30 928 -36 q 986 19 961 -24 q 1039 131 1011 61 q 1076 217 1057 175 q 1115 299 1094 258 q 1145 282 1133 289 q 1163 267 1157 275 q 1167 245 1168 258 q 1157 210 1165 232 q 1103 63 1131 135 q 1031 -74 1075 -8 q 982 -113 1004 -108 q 922 -106 960 -118 q 823 -41 858 -86 q 774 72 788 4 q 760 139 765 106 q 750 214 756 172 q 736 185 742 197 q 724 161 731 172 q 679 64 701 113 q 628 -28 657 15 q 569 -98 597 -74 q 513 -128 542 -122 q 449 -119 483 -133 q 372 -76 415 -106 q 279 31 308 -33 q 243 175 250 96 q 247 324 238 242 q 273 494 256 407 q 313 663 290 581 q 358 811 336 746 q 283 738 325 792 q 205 621 242 685 q 144 494 168 557 q 119 396 119 432 q 116 367 121 376 q 88 372 111 357 q 61 391 74 381 q 38 411 49 401 q -8 506 -11 453 q 28 616 -6 560 q 116 729 61 672 q 228 835 171 786 q 335 924 285 885 q 410 983 386 963 q 450 1000 428 1000 q 494 992 472 1000 q 535 969 515 983 q 569 946 554 956 q 586 882 600 921 q 469 540 521 711 q 406 188 418 368 q 403 140 404 169 q 405 78 403 110 q 413 19 407 46 q 433 -21 419 -8 q 466 -26 446 -33 q 517 21 486 -18 z "},"X":{"ha":890,"x_min":6,"x_max":942,"o":"m 533 576 q 576 623 551 592 q 628 692 600 654 q 688 768 657 731 q 747 833 718 806 q 804 872 776 861 q 854 868 832 883 q 877 844 869 856 q 865 818 885 833 q 707 645 781 736 q 563 458 633 554 q 545 426 551 443 q 542 388 539 408 q 568 231 553 308 q 610 76 583 154 q 651 13 626 25 q 704 15 676 1 q 761 63 732 29 q 816 136 790 96 q 863 217 842 176 q 894 288 883 258 q 928 275 914 285 q 942 244 942 265 q 887 116 922 171 q 799 8 851 61 q 776 -12 789 -1 q 748 -33 763 -24 q 718 -48 733 -42 q 689 -54 703 -54 q 576 -43 619 -54 q 504 -1 533 -32 q 456 83 475 29 q 418 222 438 136 q 390 171 410 206 q 349 98 371 136 q 309 26 328 60 q 283 -24 290 -8 q 257 -83 269 -53 q 231 -146 244 -114 q 165 -125 176 -144 q 176 -60 154 -106 q 217 18 190 -31 q 272 119 243 67 q 327 219 301 171 q 368 297 353 268 q 376 326 374 311 q 378 353 378 342 q 377 460 376 401 q 379 579 378 519 q 380 692 381 639 q 376 781 379 744 q 364 828 372 817 q 340 818 356 840 q 260 728 308 772 q 171 637 211 685 q 113 533 131 589 q 125 407 94 476 q 125 397 129 399 q 113 396 121 394 q 98 399 106 397 q 88 404 90 401 q 24 469 42 429 q 8 556 6 510 q 28 645 10 601 q 74 721 46 689 q 207 867 133 797 q 290 937 247 903 q 376 1004 332 971 q 410 1024 400 1024 q 438 1001 419 1024 q 474 974 453 981 q 515 958 494 968 q 538 947 529 951 q 549 935 546 942 q 551 919 551 929 q 550 893 551 910 q 540 760 544 826 q 532 628 536 694 q 531 607 531 618 q 533 576 532 596 z "},"Y":{"ha":1050,"x_min":-7,"x_max":1082,"o":"m 314 856 q 247 777 283 831 q 180 662 211 724 q 128 539 149 600 q 111 436 108 478 q 108 406 113 417 q 85 407 103 396 q 19 481 40 440 q -5 565 -3 521 q 10 654 -7 608 q 63 743 28 700 q 202 894 128 825 q 357 1026 276 964 q 388 1039 374 1039 q 418 1024 403 1039 q 448 994 432 1008 q 479 965 464 979 q 504 941 496 950 q 515 924 513 932 q 511 903 517 915 q 496 872 506 892 q 415 691 450 783 q 361 499 381 599 q 356 403 349 432 q 384 371 364 374 q 433 386 404 368 q 493 432 463 404 q 551 490 524 460 q 596 543 578 521 q 705 693 653 617 q 810 846 757 769 q 823 879 819 861 q 833 914 826 897 q 849 949 840 932 q 881 967 857 967 q 965 940 940 968 q 993 869 990 911 q 992 738 997 813 q 975 580 986 663 q 949 414 964 497 q 919 258 933 331 q 956 263 935 261 q 997 269 976 265 q 1033 279 1017 272 q 1058 297 1050 286 q 1072 283 1065 292 q 1080 263 1078 274 q 1079 241 1082 251 q 1067 222 1076 231 q 1011 201 1043 203 q 950 194 979 199 q 909 185 926 190 q 886 164 892 179 q 808 9 860 81 q 690 -112 757 -62 q 542 -158 613 -169 q 411 -72 471 -147 q 377 38 371 -22 q 419 149 383 99 q 513 233 456 200 q 631 265 569 267 l 724 265 q 771 458 756 360 q 797 665 786 556 q 723 572 758 618 q 652 481 688 525 q 579 397 617 438 q 500 319 542 357 q 416 288 463 286 q 328 312 369 289 q 260 374 288 335 q 232 454 232 413 q 243 542 232 486 q 268 659 254 599 q 295 774 282 719 q 314 856 308 828 m 703 197 q 599 189 647 207 q 518 133 550 171 q 474 46 486 96 q 478 -58 461 -4 q 553 -15 521 -42 q 611 46 585 13 q 659 117 638 79 q 703 197 681 156 z "},"Z":{"ha":888,"x_min":-4,"x_max":913,"o":"m 897 289 q 912 238 913 257 q 903 208 911 219 q 874 181 892 193 q 835 159 856 169 q 792 142 814 149 q 754 131 771 135 q 710 109 729 122 q 675 68 692 96 q 479 -117 588 -60 q 222 -158 371 -174 q 174 -144 196 -157 q 134 -113 153 -132 q 100 -71 115 -94 q 71 -22 85 -47 q 65 8 61 -7 q 76 39 68 24 q 122 95 96 74 q 181 128 149 117 q 274 151 228 144 q 367 163 321 158 q 460 169 414 167 q 554 178 507 171 q 572 186 563 179 q 588 203 581 193 q 626 263 606 228 q 653 331 646 299 q 644 385 660 363 q 575 404 629 407 q 524 399 550 401 q 471 399 499 397 q 399 427 429 399 q 357 503 369 456 q 357 558 350 532 q 379 604 364 583 q 423 657 400 632 q 469 707 446 682 q 542 787 517 758 q 578 828 567 815 q 590 844 589 842 q 590 847 590 847 q 425 808 507 839 q 283 723 343 776 q 194 597 222 669 q 189 432 165 524 q 207 388 194 411 q 234 343 219 365 q 264 301 249 321 q 292 268 279 282 q 267 240 289 247 q 222 253 246 233 q 101 374 156 308 q 21 510 46 440 q 8 652 -4 581 q 85 790 19 724 q 184 871 131 838 q 294 924 238 904 q 439 967 365 951 q 589 968 513 982 q 660 923 638 957 q 699 840 683 889 q 699 806 704 824 q 685 773 694 789 q 663 743 675 757 q 640 719 650 729 q 553 638 596 675 q 475 558 510 601 q 458 538 468 549 q 444 517 449 526 q 444 503 440 508 q 469 501 449 499 q 503 508 486 504 q 539 514 521 511 q 626 503 586 519 q 694 452 667 486 q 735 369 721 418 q 744 263 749 321 q 744 245 744 254 q 743 222 743 236 q 824 249 778 231 q 897 289 869 267 m 419 68 q 323 78 371 79 q 240 65 275 76 q 185 33 204 53 q 178 -12 167 13 q 303 10 244 -15 q 419 68 361 36 z "},"a":{"ha":597,"x_min":-17,"x_max":649,"o":"m 232 39 q 136 -1 206 -17 q 37 53 76 13 q -7 167 -3 94 q 11 353 -17 267 q 111 513 39 439 q 190 558 147 549 q 281 554 232 568 q 325 542 303 549 q 375 528 347 535 q 385 553 379 540 q 396 582 390 567 q 440 604 408 613 q 460 599 450 601 q 479 593 471 596 q 513 574 507 583 q 514 535 518 564 q 495 327 503 429 q 483 121 488 225 q 484 92 483 107 q 490 71 485 78 q 503 69 494 64 q 525 101 511 75 q 550 154 539 131 q 569 199 561 178 q 586 243 578 221 q 603 290 594 265 q 615 290 607 292 q 631 283 624 289 q 644 266 639 276 q 646 242 649 256 q 631 178 642 219 q 603 97 619 138 q 563 26 586 57 q 511 -7 540 -4 q 435 -6 474 -14 q 378 22 397 1 q 354 75 360 42 q 349 144 349 108 q 353 215 350 181 q 354 274 356 250 q 347 288 354 294 q 331 261 340 281 q 283 148 303 204 q 232 39 263 92 m 161 56 q 217 153 194 103 q 258 252 239 203 q 299 349 278 301 q 349 442 319 397 q 281 460 313 468 q 226 420 250 451 q 184 342 201 389 q 158 243 167 294 q 149 142 149 192 q 161 56 150 92 z "},"b":{"ha":699,"x_min":-12,"x_max":636,"o":"m 140 93 q 144 51 143 69 q 147 14 144 32 q 142 -20 150 -12 q 106 -28 133 -28 q 60 -26 76 -28 q 35 -16 44 -24 q 20 8 25 -8 q 10 51 15 24 q -6 206 0 122 q -12 378 -12 289 q -6 558 -12 467 q 17 733 1 649 q 59 893 33 818 q 124 1026 85 968 q 177 1086 151 1071 q 235 1092 203 1101 q 314 1049 285 1079 q 342 969 343 1018 q 332 844 342 918 q 299 701 322 771 q 236 578 276 631 q 136 517 196 526 l 136 299 q 150 321 144 313 q 163 339 156 329 q 234 447 193 397 q 325 538 275 496 q 413 573 365 569 q 506 550 461 576 q 629 331 636 481 q 612 212 628 268 q 561 106 596 156 q 431 -1 513 32 q 366 -15 399 -12 q 303 -1 333 -17 q 220 43 261 21 q 140 93 179 65 m 153 136 q 228 102 192 110 q 297 99 265 94 q 357 119 329 104 q 407 156 385 135 q 517 433 529 267 q 490 494 513 481 q 438 501 467 507 q 378 475 408 494 q 326 436 347 456 q 222 295 263 371 q 153 136 181 219 m 139 572 q 184 627 164 594 q 219 698 204 660 q 244 776 233 736 q 260 853 254 817 q 267 939 267 899 q 254 1019 267 979 q 202 908 222 964 q 169 797 182 853 q 150 685 157 742 q 139 572 143 629 z "},"c":{"ha":451,"x_min":-12,"x_max":504,"o":"m 299 515 q 244 478 268 506 q 203 413 221 451 q 175 331 186 375 q 157 245 164 288 q 149 165 150 203 q 149 101 147 126 q 149 92 149 97 q 150 85 150 88 q 168 37 156 53 q 197 18 181 21 q 233 23 214 15 q 275 46 253 31 q 333 97 306 67 q 384 162 361 128 q 425 231 407 196 q 456 297 443 265 q 488 276 478 286 q 501 258 499 267 q 503 243 504 250 q 499 229 501 236 q 459 149 486 197 q 392 57 432 100 q 303 -12 353 14 q 193 -24 253 -39 q 50 61 101 0 q -8 214 -1 122 q -7 303 -12 253 q 13 405 -1 354 q 50 501 26 456 q 106 576 74 547 q 181 613 139 606 q 275 596 224 621 q 287 590 282 593 q 299 586 292 588 q 314 585 304 586 q 334 584 324 585 q 353 581 344 583 q 367 576 363 579 q 390 503 388 544 q 378 428 392 463 q 340 376 365 394 q 281 368 314 357 q 287 384 281 372 q 299 414 293 396 q 306 458 304 432 q 299 515 308 483 z "},"d":{"ha":588,"x_min":-15,"x_max":633,"o":"m 589 289 q 617 270 607 281 q 630 250 626 260 q 633 232 633 240 q 631 218 632 224 q 618 172 626 200 q 599 115 610 144 q 578 60 589 86 q 556 21 567 35 q 522 -2 543 4 q 467 -11 501 -8 q 382 2 415 -17 q 326 53 349 21 q 292 125 304 85 q 274 203 281 165 q 259 155 265 175 q 248 119 253 135 q 240 92 243 104 q 232 71 236 81 q 201 19 221 42 q 147 -6 182 -3 q 35 29 72 -10 q -11 156 -3 68 q -10 268 -15 206 q 12 392 -4 331 q 56 506 28 454 q 122 588 83 558 q 185 608 150 607 q 275 596 221 610 q 283 693 276 632 q 307 824 290 754 q 354 963 324 894 q 433 1083 385 1032 q 495 1106 458 1110 q 565 1085 532 1103 q 613 1050 594 1071 q 625 993 631 1029 q 599 864 614 918 q 564 761 585 810 q 513 664 543 713 q 440 553 483 615 q 427 424 433 494 q 420 287 421 354 q 426 160 419 219 q 453 61 433 100 q 469 42 460 46 q 490 47 479 38 q 512 78 500 56 q 537 134 524 101 q 563 206 550 167 q 589 289 576 246 m 124 44 q 153 61 138 40 q 184 119 169 82 q 213 205 199 156 q 236 308 226 254 q 252 417 246 363 q 258 519 258 472 q 222 520 242 543 q 182 448 201 497 q 146 333 163 399 q 119 207 129 268 q 110 100 110 146 q 124 44 110 54 m 563 1011 q 533 952 551 997 q 497 852 515 907 q 465 742 479 797 q 446 650 450 686 q 486 726 465 678 q 524 826 507 774 q 553 929 542 879 q 563 1011 564 979 z "},"e":{"ha":411,"x_min":-12,"x_max":456,"o":"m 415 290 q 443 274 435 283 q 453 256 451 265 q 453 239 456 247 q 450 226 451 231 q 426 170 439 196 q 399 121 414 144 q 367 74 385 97 q 325 28 349 51 q 231 -8 285 -8 q 93 28 150 -7 q 13 135 36 64 q -10 252 -8 192 q 2 369 -12 313 q 47 476 17 426 q 122 560 78 525 q 170 588 147 579 q 217 594 193 596 q 267 585 240 593 q 328 564 294 576 q 359 538 350 554 q 369 503 368 522 q 347 381 368 439 q 275 274 325 322 q 224 236 251 249 q 150 215 197 224 q 149 146 144 189 q 168 70 153 103 q 210 28 183 38 q 275 61 236 19 q 357 174 326 117 q 415 290 388 232 m 157 261 q 218 306 190 275 q 263 372 246 336 q 282 444 279 408 q 271 506 285 481 q 229 458 249 486 q 194 397 210 429 q 169 329 179 364 q 157 261 160 294 z "},"f":{"ha":389,"x_min":-21,"x_max":419,"o":"m 393 286 q 417 252 414 265 q 415 231 419 239 q 347 181 389 190 q 263 181 306 172 q 280 122 269 168 q 297 14 290 75 q 303 -115 303 -47 q 293 -240 304 -183 q 257 -331 282 -296 q 188 -362 232 -367 q 106 -333 139 -358 q 52 -272 74 -308 q 19 -191 31 -235 q 0 -106 7 -147 q -17 76 -14 -22 q -10 270 -21 174 q 26 456 0 367 q 96 611 51 544 q 144 649 111 635 q 208 656 176 664 q 242 646 225 651 q 272 631 258 640 q 296 606 286 621 q 310 571 306 592 q 308 399 325 476 q 242 242 290 321 q 313 226 276 217 q 393 286 349 235 m 168 211 q 153 139 158 183 q 149 43 149 94 q 153 -62 149 -8 q 165 -164 158 -117 q 183 -247 172 -211 q 206 -297 193 -283 q 229 -269 219 -299 q 244 -194 239 -240 q 247 -91 249 -149 q 237 24 246 -33 q 211 131 228 81 q 168 211 194 181 m 239 575 q 229 565 240 593 q 203 487 218 536 q 177 381 189 438 q 167 283 165 324 q 210 350 190 314 q 240 425 229 386 q 252 502 251 464 q 239 575 253 540 z "},"g":{"ha":532,"x_min":-24,"x_max":564,"o":"m 536 289 q 556 265 549 276 q 558 236 564 253 q 541 199 554 219 q 511 158 528 179 q 478 119 494 138 q 449 89 461 100 q 427 56 433 74 q 421 15 421 38 q 419 -90 421 -37 q 411 -196 418 -143 q 363 -328 403 -269 q 266 -417 322 -387 q 144 -441 210 -447 q 18 -381 78 -435 q -6 -347 3 -367 q -17 -307 -14 -328 q 10 -160 -24 -222 q 115 -54 44 -97 q 181 -15 147 -33 q 251 19 215 3 q 289 49 276 31 q 305 90 301 68 q 304 136 308 113 q 292 181 300 160 q 237 111 263 144 q 176 51 211 78 q 132 33 156 33 q 85 49 108 33 q 15 117 36 76 q -14 208 -7 158 q -9 282 -18 235 q 19 381 0 329 q 68 481 39 432 q 134 562 97 531 q 214 599 171 593 q 304 571 257 604 q 385 497 350 538 q 403 463 401 481 q 397 438 406 446 q 372 436 389 431 q 333 469 354 442 q 310 485 322 483 q 287 483 299 488 q 263 472 275 479 q 242 456 251 464 q 136 322 169 400 q 99 150 103 243 q 106 122 99 126 q 124 122 114 117 q 145 137 135 126 q 161 154 156 147 q 244 272 207 215 q 325 381 282 328 q 381 394 349 418 q 415 360 401 379 q 425 311 428 342 q 417 229 421 275 q 411 147 414 183 q 442 173 425 154 q 477 213 460 192 q 510 256 494 235 q 536 289 525 276 m 307 -21 q 216 -67 260 -46 q 136 -118 172 -87 q 69 -203 93 -156 q 49 -304 46 -250 q 69 -355 50 -343 q 115 -361 89 -367 q 167 -340 140 -356 q 208 -307 193 -324 q 283 -178 261 -249 q 307 -21 306 -108 z "},"h":{"ha":565,"x_min":-15,"x_max":621,"o":"m 171 238 q 238 351 203 300 q 315 451 272 401 q 349 471 331 469 q 390 464 368 472 q 424 442 410 456 q 438 404 438 428 q 438 350 439 376 q 435 296 438 324 q 432 206 433 250 q 429 118 431 163 q 438 42 425 60 q 482 65 451 24 q 511 117 497 86 q 536 180 525 147 q 556 243 547 213 q 567 294 564 274 q 610 277 599 289 q 614 238 621 265 q 584 132 599 181 q 544 36 569 83 q 499 -6 529 6 q 431 -11 469 -18 q 349 13 386 -4 q 296 75 313 29 q 286 118 288 89 q 287 181 285 147 q 292 248 289 215 q 297 301 296 281 q 293 325 297 322 q 276 301 289 328 q 220 177 246 247 q 183 44 194 107 q 167 6 181 15 q 126 4 153 -3 q 69 24 89 15 q 39 47 49 33 q 25 84 29 61 q 13 147 21 107 q -10 351 -6 244 q -5 565 -15 458 q 33 775 6 672 q 107 968 61 878 q 137 1014 119 993 q 176 1048 154 1035 q 222 1065 197 1061 q 274 1061 246 1069 q 374 958 353 1026 q 372 853 388 913 q 328 733 357 793 q 262 619 299 672 q 197 536 225 567 q 164 463 164 503 q 161 341 164 396 q 171 238 158 286 m 179 594 q 233 678 203 628 q 285 782 263 728 q 315 890 307 836 q 301 982 322 943 q 261 915 281 957 q 225 820 242 872 q 197 709 208 768 q 179 594 185 650 z "},"j":{"ha":235,"x_min":-178,"x_max":267,"o":"m 236 286 q 259 263 253 272 q 266 247 265 253 q 264 236 267 240 q 260 229 261 232 q 226 177 244 201 q 188 132 208 153 q 155 85 163 110 q 150 31 147 61 q 153 -59 151 -14 q 152 -148 156 -104 q 138 -231 149 -192 q 104 -306 126 -271 q 73 -338 92 -325 q 32 -359 54 -351 q -14 -367 10 -367 q -57 -364 -37 -368 q -158 -247 -146 -343 q -39 31 -178 -76 q -9 51 -24 42 q 25 72 6 60 q 13 130 19 93 q 1 213 6 167 q -6 309 -4 258 q -6 408 -8 360 q 3 500 -4 457 q 25 572 10 543 q 49 595 36 596 q 85 583 61 594 q 119 570 106 574 q 139 561 132 567 q 148 544 146 556 q 147 511 150 533 q 135 330 136 419 q 144 174 133 240 q 197 228 172 197 q 236 286 221 258 m 28 18 q -26 -19 -1 4 q -70 -73 -51 -43 q -101 -136 -89 -103 q -117 -203 -114 -169 q -111 -281 -121 -251 q -83 -317 -101 -311 q -41 -304 -65 -324 q 8 -235 -17 -285 q 27 -177 22 -208 q 33 -114 32 -146 q 31 -49 33 -82 q 28 18 29 -15 m 100 631 q 72 644 86 633 q 58 668 57 654 q 64 729 61 699 q 69 792 67 760 q 90 810 72 807 q 124 810 107 813 q 169 788 160 803 q 171 738 178 774 q 162 692 167 715 q 151 644 157 668 q 146 626 149 631 q 138 621 143 621 q 123 624 132 621 q 100 631 114 628 z "},"i":{"ha":243,"x_min":-10,"x_max":290,"o":"m 188 125 q 217 205 207 169 q 246 288 226 240 q 283 267 275 281 q 281 226 290 254 q 264 176 271 197 q 250 133 257 154 q 235 91 243 113 q 215 40 228 69 q 183 4 200 10 q 131 6 167 -1 q 88 13 108 10 q 52 22 68 15 q 24 40 36 28 q 7 72 13 51 q -6 156 -3 107 q -9 262 -10 206 q -4 376 -8 318 q 6 483 0 433 q 47 517 10 515 q 133 488 85 518 q 141 472 142 482 q 140 450 140 461 q 134 335 138 392 q 129 221 131 278 q 129 185 129 207 q 131 140 129 163 q 135 100 132 118 q 146 76 139 82 q 163 81 153 71 q 188 125 172 90 m 74 567 q 41 582 58 569 q 24 610 24 594 q 26 682 25 646 q 31 754 28 718 q 52 774 33 771 q 90 774 71 776 q 143 749 131 765 q 149 692 156 732 q 142 638 146 665 q 132 583 138 611 q 126 561 129 567 q 116 556 122 556 q 99 560 110 556 q 74 567 89 564 z "},"k":{"ha":524,"x_min":-10,"x_max":575,"o":"m 176 225 q 147 120 149 176 q 154 24 146 64 q 156 -8 161 -4 q 125 -12 150 -12 q 46 1 74 -12 q 13 46 18 14 q -4 203 1 115 q -9 384 -10 290 q -1 571 -8 478 q 23 745 7 664 q 64 889 39 826 q 124 985 89 951 q 172 1022 146 1007 q 226 1039 199 1036 q 280 1030 254 1042 q 326 988 306 1018 q 345 926 346 963 q 333 849 344 890 q 299 763 321 807 q 255 680 278 719 q 209 608 232 640 q 172 558 186 576 q 150 497 150 531 q 149 437 150 467 q 151 374 147 407 q 189 433 168 403 q 235 489 210 463 q 288 536 260 515 q 347 568 315 557 q 403 576 378 581 q 445 555 428 571 q 469 514 463 539 q 469 461 476 489 q 438 398 460 425 q 387 349 415 371 q 325 310 358 328 q 260 276 292 293 q 272 233 265 257 q 288 185 279 208 q 308 140 297 161 q 335 104 319 118 q 366 86 351 89 q 393 89 381 83 q 416 105 406 94 q 435 128 426 115 q 462 167 449 146 q 487 210 475 189 q 509 251 499 232 q 526 283 519 271 q 541 282 532 285 q 558 273 550 279 q 571 257 567 267 q 571 238 575 247 q 536 162 557 203 q 486 88 515 121 q 419 38 457 56 q 335 33 382 21 q 283 60 306 40 q 240 108 260 81 q 205 166 221 135 q 176 225 189 197 m 165 617 q 213 702 183 650 q 265 808 242 754 q 297 908 289 863 q 282 971 306 953 q 247 921 265 958 q 211 833 228 883 q 182 726 194 783 q 165 617 169 669 m 368 497 q 319 457 342 481 q 276 406 296 433 q 239 351 256 379 q 210 299 222 324 q 257 320 231 306 q 310 353 283 335 q 362 394 338 372 q 401 438 386 415 q 418 472 414 456 q 418 499 422 489 q 401 510 414 510 q 368 497 389 511 z "},"l":{"ha":332,"x_min":-10,"x_max":379,"o":"m 335 288 q 362 275 353 283 q 375 258 371 267 q 379 242 379 250 q 379 231 379 235 q 353 133 368 181 q 311 42 338 86 q 269 -1 294 14 q 217 -19 244 -15 q 160 -17 189 -24 q 104 3 131 -11 q 35 73 58 28 q 1 172 11 118 q -9 279 -8 225 q -10 376 -10 333 q 3 553 -8 464 q 33 721 14 642 q 81 864 53 800 q 146 965 110 928 q 213 993 178 997 q 288 965 249 989 q 350 887 335 932 q 358 789 365 842 q 298 607 344 689 q 181 454 251 525 q 165 438 172 447 q 157 418 157 429 q 155 377 157 410 q 152 301 153 344 q 153 210 151 257 q 161 124 154 163 q 181 64 168 86 q 218 50 194 42 q 252 76 236 57 q 279 117 268 94 q 312 198 300 157 q 335 288 324 239 m 178 565 q 238 643 213 600 q 276 729 263 686 q 290 813 289 772 q 276 885 290 853 q 244 825 261 865 q 212 738 226 785 q 188 644 197 692 q 178 565 178 597 z "},"m":{"ha":824,"x_min":-17,"x_max":876,"o":"m 167 44 q 111 11 153 6 q 27 46 53 19 q -8 133 1 72 q -12 248 -17 189 q 4 361 -8 307 q 35 459 17 415 q 72 528 53 503 q 126 542 92 558 q 169 513 151 526 q 179 468 188 500 q 160 388 169 428 q 143 307 151 347 q 138 260 139 283 q 139 213 136 236 q 188 294 165 253 q 236 376 211 336 q 267 406 249 396 q 313 406 286 415 q 346 380 336 397 q 358 338 356 363 q 362 288 360 314 q 372 235 364 263 q 422 313 400 272 q 466 394 443 353 q 516 476 489 435 q 582 556 543 517 q 620 576 599 572 q 665 564 642 579 q 715 529 692 547 q 738 472 739 511 q 732 422 735 447 q 724 371 729 396 q 699 258 711 310 q 672 144 686 206 q 668 67 663 93 q 688 38 674 40 q 720 56 701 36 q 754 118 739 76 q 767 153 758 129 q 787 204 776 178 q 808 253 797 231 q 825 288 818 276 q 863 269 850 281 q 865 232 876 257 q 851 190 860 215 q 832 137 842 164 q 813 85 822 110 q 796 43 803 60 q 763 -5 785 14 q 706 -21 740 -24 q 661 -16 685 -19 q 615 -5 638 -12 q 576 17 593 3 q 550 54 558 31 q 538 140 535 100 q 549 225 542 179 q 564 309 554 268 q 585 392 574 350 q 587 404 586 399 q 581 421 588 410 q 517 328 547 374 q 458 236 488 283 q 437 206 447 221 q 414 175 426 190 q 381 152 399 156 q 339 156 363 149 q 306 178 315 163 q 294 214 297 194 q 281 303 288 290 q 263 290 274 315 q 212 167 235 228 q 167 44 189 107 z "},"n":{"ha":593,"x_min":-10,"x_max":650,"o":"m 160 343 q 231 450 194 396 q 319 536 267 504 q 362 552 338 549 q 410 551 386 556 q 452 533 433 546 q 478 499 471 519 q 491 421 489 465 q 490 329 493 376 q 483 235 488 282 q 476 150 478 189 q 480 85 475 111 q 501 53 485 58 q 530 75 515 49 q 557 140 544 101 q 580 219 569 178 q 596 288 590 261 q 613 283 603 286 q 632 276 624 281 q 645 262 640 271 q 649 239 650 253 q 635 174 643 207 q 617 111 628 140 q 594 58 607 82 q 567 22 581 35 q 518 -2 543 3 q 460 0 493 -7 q 403 23 425 6 q 367 64 381 40 q 349 116 354 88 q 344 174 344 144 q 353 308 344 243 q 369 436 363 374 q 338 476 375 514 q 263 379 296 435 q 205 263 229 324 q 165 139 181 201 q 143 21 150 76 q 136 1 142 10 q 115 -10 131 -7 q 47 3 75 -17 q 8 58 18 22 q -7 181 -4 115 q -6 315 -10 247 q 6 446 -3 382 q 29 561 15 510 q 60 591 36 586 q 110 588 85 596 q 156 563 136 579 q 174 531 175 546 q 163 435 167 482 q 160 343 158 389 z "},"o":{"ha":503,"x_min":-15,"x_max":521,"o":"m 313 1 q 243 -27 279 -22 q 171 -23 207 -32 q 102 8 135 -14 q 43 57 69 29 q 1 124 14 89 q -14 200 -12 160 q 6 370 -15 288 q 90 519 28 453 q 129 545 104 538 q 182 546 154 553 q 190 545 185 544 q 200 547 196 546 q 258 560 231 567 q 313 540 285 553 q 418 444 382 503 q 436 371 432 421 q 433 263 440 321 q 473 272 453 265 q 504 286 493 279 q 516 263 511 279 q 506 231 521 246 q 460 200 488 213 q 418 182 432 188 q 377 75 403 124 q 313 1 351 26 m 294 265 q 326 258 310 261 q 356 260 342 256 q 360 331 358 292 q 357 405 361 369 q 340 467 353 440 q 299 503 326 494 q 269 501 282 507 q 244 485 256 496 q 225 460 233 474 q 210 436 217 446 q 165 340 188 396 q 133 227 143 285 q 130 117 122 169 q 175 32 138 64 q 224 26 197 13 q 274 67 250 39 q 314 128 297 94 q 331 183 331 161 q 281 214 299 197 q 260 244 264 231 q 265 264 256 257 q 294 265 274 271 z "},"p":{"ha":583,"x_min":-39,"x_max":599,"o":"m 381 539 q 419 519 401 526 q 451 503 438 513 q 474 481 465 494 q 483 442 482 467 q 483 413 483 431 q 483 376 483 394 q 484 340 483 357 q 485 314 485 322 q 547 313 524 313 q 581 308 569 313 q 596 291 593 303 q 599 253 599 279 q 542 256 579 253 q 472 249 506 260 q 460 204 469 232 q 437 147 451 176 q 404 87 422 117 q 365 35 386 57 q 256 -25 313 -19 q 128 7 199 -31 q 104 -164 113 -79 q 103 -337 96 -249 q 95 -366 106 -364 q 46 -368 85 -368 q -3 -329 14 -364 q -28 -250 -21 -294 q -37 -161 -36 -206 q -39 -96 -39 -117 q -37 10 -39 -50 q -30 137 -35 69 q -17 273 -25 204 q 3 405 -8 342 q 32 522 15 468 q 69 611 49 575 q 96 631 81 631 q 140 615 111 631 q 174 596 157 607 q 207 576 190 585 q 220 558 222 569 q 214 536 218 547 q 203 507 208 521 q 194 476 199 493 q 238 509 217 490 q 280 540 258 528 q 326 555 301 553 q 381 539 351 557 m 394 306 q 401 377 400 342 q 399 441 403 413 q 385 488 396 469 q 357 507 375 506 q 294 464 325 496 q 238 392 263 432 q 196 310 213 353 q 178 238 179 268 q 279 287 225 275 q 394 306 333 299 m 165 40 q 235 58 201 42 q 297 100 269 74 q 342 161 324 126 q 364 233 360 196 q 283 213 319 229 q 219 170 246 196 q 178 111 193 144 q 165 40 164 78 z "},"q":{"ha":579,"x_min":-18,"x_max":618,"o":"m 581 286 q 604 275 596 279 q 615 266 613 271 q 617 253 618 261 q 613 231 615 244 q 435 -78 567 43 q 463 -244 451 -172 q 464 -387 475 -317 q 442 -435 458 -425 q 386 -443 425 -446 q 358 -441 369 -442 q 337 -437 346 -440 q 319 -428 328 -435 q 300 -411 311 -422 q 256 -327 268 -381 q 245 -208 244 -274 q 255 -71 246 -143 q 276 71 264 1 q 246 42 261 60 q 214 8 231 24 q 180 -17 197 -8 q 144 -19 163 -26 q 125 -13 135 -17 q 106 -6 115 -10 q 58 11 78 3 q 23 31 38 19 q 0 59 8 42 q -11 103 -8 76 q -12 235 -18 163 q 17 377 -6 308 q 79 502 39 446 q 181 586 119 558 q 329 583 249 617 q 381 556 354 572 q 431 524 407 540 q 452 498 444 514 q 458 472 460 482 q 445 465 456 463 q 414 492 435 467 q 368 516 392 515 q 319 506 344 517 q 238 438 272 483 q 182 338 204 393 q 149 225 160 282 q 139 124 139 168 q 143 80 139 100 q 156 50 147 60 q 178 46 165 40 q 211 79 192 51 q 301 230 264 157 q 371 378 338 303 q 390 414 383 401 q 404 430 397 426 q 422 428 411 433 q 453 414 433 424 q 474 401 467 406 q 484 390 482 396 q 485 374 486 383 q 481 350 483 365 q 431 152 456 242 q 397 -22 407 63 q 508 125 465 44 q 581 286 551 206 m 388 -124 q 369 -261 372 -193 q 386 -404 367 -329 q 403 -342 397 -376 q 410 -269 410 -307 q 404 -194 410 -232 q 388 -124 399 -157 z "},"r":{"ha":486,"x_min":-14,"x_max":511,"o":"m 489 281 q 499 278 494 283 q 507 263 504 272 q 510 244 510 254 q 508 228 511 233 q 488 206 501 215 q 457 190 474 196 q 423 181 440 183 q 393 183 406 179 q 315 222 349 197 q 271 297 282 247 q 268 320 268 308 q 265 350 268 332 q 225 283 244 319 q 190 207 206 246 q 164 128 174 168 q 154 51 154 88 q 135 -22 151 -3 q 81 -33 119 -42 q 26 -9 44 -25 q 1 28 8 7 q -8 76 -7 50 q -11 131 -10 101 q -13 237 -14 182 q -8 347 -12 292 q 5 453 -4 401 q 28 549 14 504 q 56 588 36 576 q 108 581 76 599 q 152 557 136 565 q 175 540 168 549 q 182 517 182 531 q 178 476 182 503 q 167 385 171 431 q 165 292 163 340 q 226 411 190 354 q 299 522 263 468 q 322 551 308 538 q 360 558 336 565 q 403 534 385 550 q 419 489 421 518 q 408 379 417 426 q 397 285 400 332 q 399 248 396 264 q 412 226 403 232 q 435 227 421 219 q 474 261 450 235 l 489 281 l 489 281 z "},"s":{"ha":368,"x_min":-29,"x_max":403,"o":"m 299 69 q 229 -8 275 21 q 131 -24 183 -36 q 97 -8 118 -21 q 64 10 76 6 q 21 47 31 25 q 22 101 11 68 q 48 149 28 128 q 94 186 68 171 q 148 210 119 201 q 200 217 176 218 q 185 261 204 250 q 140 272 167 272 q 85 266 113 272 q 46 257 58 260 q 4 265 21 250 q -21 308 -12 281 q -28 369 -29 335 q -17 435 -28 403 q 16 494 -7 465 q 67 547 39 524 q 127 587 96 571 q 186 608 158 603 q 235 604 214 613 q 263 571 256 596 q 269 526 268 550 q 265 484 269 503 q 251 456 260 465 q 231 457 242 447 q 195 462 218 467 q 147 444 172 457 q 99 413 122 431 q 67 382 76 396 q 46 340 46 353 q 56 325 46 328 q 83 325 67 322 q 114 329 100 328 q 230 308 181 336 q 303 231 279 279 q 344 255 325 242 q 369 283 363 268 q 393 269 383 275 q 394 244 403 263 q 363 210 385 225 q 317 188 340 196 q 299 69 328 128 m 85 56 q 169 100 136 69 q 204 183 201 131 q 158 174 183 183 q 113 149 132 165 q 83 108 93 132 q 85 56 74 85 z "},"t":{"ha":311,"x_min":-207,"x_max":522,"o":"m 317 299 q 347 284 336 290 q 363 272 357 278 q 369 260 368 267 q 368 246 369 254 q 356 189 365 219 q 333 128 346 158 q 306 70 321 97 q 278 24 292 43 q 245 -10 263 0 q 208 -21 228 -19 q 167 -17 188 -22 q 124 -4 146 -12 q 44 70 71 15 q 5 192 17 125 q -8 324 -7 258 q -10 428 -10 389 q -1 588 -8 510 q 18 746 6 667 q -49 720 -17 732 q -108 697 -81 708 q -201 732 -175 667 q -200 757 -207 744 q -181 780 -193 769 q -155 798 -168 790 q -133 811 -142 806 q -117 817 -126 815 q -106 815 -108 818 q -69 803 -87 797 q -31 815 -50 808 q 2 825 -14 819 q 35 835 18 831 q 42 855 39 844 q 51 880 46 865 q 62 915 56 894 q 78 964 68 935 q 98 1001 89 988 q 119 1019 107 1015 q 145 1019 131 1024 q 183 1006 160 1015 q 208 954 218 994 q 203 917 206 938 q 193 872 200 896 q 326 879 260 878 q 457 878 392 881 q 501 865 483 878 q 522 819 518 851 q 351 819 435 828 q 178 788 267 811 q 147 547 158 665 q 139 308 135 429 q 146 208 140 256 q 161 125 151 160 q 184 73 171 90 q 214 61 197 56 q 251 101 231 67 q 294 204 271 135 q 306 249 301 225 q 317 299 311 274 z "},"u":{"ha":579,"x_min":-25,"x_max":629,"o":"m 582 293 q 611 272 601 281 q 625 257 621 263 q 628 247 629 251 q 628 242 628 243 q 602 155 617 201 q 567 69 588 108 q 519 5 547 29 q 457 -17 492 -19 q 383 2 410 -12 q 343 44 356 17 q 328 110 331 71 q 325 201 325 149 q 313 177 318 188 q 303 158 308 167 q 283 126 292 140 q 267 99 275 113 q 251 74 260 86 q 229 44 242 61 q 188 6 208 18 q 147 -8 167 -6 q 106 -3 126 -10 q 65 13 86 3 q 6 68 26 31 q -19 153 -14 106 q -19 257 -25 201 q 1 366 -12 313 q 34 467 15 419 q 72 550 53 515 q 106 583 92 579 q 151 572 121 588 q 181 559 165 564 q 206 549 196 554 q 221 536 217 544 q 218 511 225 528 q 151 333 174 419 q 122 183 128 247 q 127 86 115 119 q 165 66 139 53 q 230 149 190 79 q 321 358 269 218 q 337 422 331 386 q 349 488 343 457 q 363 539 354 518 q 386 558 371 560 q 440 547 417 551 q 478 532 464 542 q 498 506 493 522 q 496 463 503 490 q 478 393 488 432 q 462 314 469 354 q 448 234 454 274 q 440 161 442 194 q 442 91 438 122 q 455 45 446 60 q 476 38 464 31 q 506 83 489 46 q 522 125 511 97 q 544 184 533 153 q 566 245 556 215 q 582 293 576 275 z "},"v":{"ha":522,"x_min":-8,"x_max":546,"o":"m 522 281 q 545 252 544 268 q 533 226 546 236 q 464 196 497 199 q 403 192 431 193 q 384 145 394 172 q 358 90 374 118 q 321 35 343 61 q 267 -4 299 10 q 213 -15 242 -15 q 157 -8 185 -15 q 105 13 129 -1 q 64 43 81 26 q 8 144 24 85 q -7 270 -8 204 q 8 401 -6 336 q 42 515 22 465 q 65 545 51 540 q 94 544 78 550 q 129 528 111 539 q 167 513 147 518 q 191 490 186 504 q 193 461 196 476 q 176 382 186 428 q 158 286 165 336 q 151 188 151 236 q 167 100 151 139 q 176 80 171 90 q 188 61 181 69 q 203 49 194 53 q 224 49 213 46 q 273 97 249 56 q 325 208 297 138 q 276 249 294 226 q 249 295 258 271 q 238 347 240 319 q 235 403 235 374 q 246 488 238 447 q 281 569 254 529 q 312 610 293 592 q 367 626 331 628 q 434 611 407 625 q 471 567 461 597 q 479 497 481 535 q 469 416 478 458 q 446 330 460 374 q 418 244 432 286 q 437 243 422 242 q 468 249 451 244 q 500 261 485 253 q 522 281 515 269 m 350 268 q 381 368 368 319 q 398 457 393 417 q 399 528 403 497 q 383 575 396 558 q 342 508 358 549 q 322 423 326 467 q 324 338 317 379 q 350 268 331 296 z "},"w":{"ha":808,"x_min":-17,"x_max":825,"o":"m 606 18 q 537 -24 576 -14 q 451 -26 497 -35 l 431 -22 q 371 -15 400 -19 q 317 7 342 -10 q 277 59 293 24 q 257 160 261 94 q 238 119 247 144 q 219 69 229 94 q 199 24 210 44 q 175 -4 188 3 q 136 -15 157 -15 q 90 -10 115 -15 q 40 16 57 -3 q 14 63 24 35 q 3 102 8 82 q -6 146 -3 122 q -9 343 -17 247 q 26 533 -1 439 q 70 606 43 594 q 163 589 97 617 q 167 585 165 588 q 175 578 169 582 q 157 462 167 519 q 142 344 147 404 q 135 226 135 286 q 139 104 135 167 q 147 70 138 67 q 170 104 156 74 q 205 185 185 135 q 246 292 225 235 q 263 291 257 290 q 279 289 268 292 q 304 283 289 288 q 333 272 319 279 q 356 256 347 265 q 361 238 364 247 q 352 161 353 203 q 359 86 351 119 q 384 35 367 53 q 432 31 401 17 q 475 63 457 42 q 507 112 493 85 q 529 169 521 139 q 544 228 538 199 q 473 306 499 251 q 440 426 447 361 q 440 558 432 492 q 471 672 449 624 q 503 723 488 711 q 535 733 518 735 q 573 723 551 731 q 626 714 594 715 q 718 669 686 711 q 760 561 750 626 q 760 416 769 496 q 729 260 751 336 q 774 272 753 265 q 815 289 796 279 q 824 254 822 268 q 823 233 825 240 q 817 222 821 225 q 811 217 814 218 q 763 198 790 203 q 707 193 736 193 q 660 90 686 135 q 606 18 633 44 m 556 271 q 563 312 560 283 q 567 378 565 340 q 567 458 568 417 q 563 538 567 500 q 553 607 560 576 q 535 653 546 638 q 488 599 501 646 q 477 491 474 551 q 500 369 481 431 q 556 271 519 307 z "},"x":{"ha":444,"x_min":-43,"x_max":493,"o":"m 447 289 q 478 265 468 276 q 490 244 488 254 q 491 228 493 235 q 486 215 489 221 q 456 160 474 190 q 414 99 438 129 q 363 41 390 69 q 301 -8 335 13 q 245 -20 274 -25 q 190 -7 217 -15 q 121 35 144 7 q 81 108 97 64 q 40 46 61 82 q 3 -12 18 10 q -32 13 -21 -8 q -28 54 -43 35 l 56 181 q 31 288 40 231 q 18 400 22 344 q 17 506 14 456 q 31 594 19 557 q 51 619 38 618 q 88 613 65 621 q 147 590 125 597 q 178 575 168 582 q 189 557 189 568 q 185 524 189 546 q 168 408 171 457 q 171 324 165 360 q 275 427 226 381 q 374 525 324 474 q 406 501 392 517 q 407 467 419 486 q 308 366 356 410 q 208 268 260 322 q 188 233 193 251 q 183 195 182 214 q 188 158 183 176 q 197 122 193 139 q 231 58 211 74 q 276 52 251 43 q 326 88 300 61 q 374 150 351 115 q 417 222 397 185 q 447 289 436 260 z "},"y":{"ha":665,"x_min":-40,"x_max":703,"o":"m 667 281 q 697 255 690 274 q 699 228 703 236 q 647 148 676 185 q 575 88 617 111 q 560 80 565 82 q 553 76 556 78 q 551 69 551 74 q 550 56 550 65 q 530 -69 544 -6 q 490 -190 515 -132 q 431 -297 465 -247 q 350 -382 396 -347 q 247 -431 301 -421 q 131 -421 192 -442 q 106 -410 118 -414 q 81 -401 93 -406 q 13 -361 39 -387 q -26 -302 -14 -335 q -40 -234 -39 -269 q -29 -165 -40 -199 q 60 -40 -4 -89 q 135 8 94 -11 q 219 42 176 28 q 306 67 263 56 q 390 90 349 78 q 413 101 403 94 q 424 124 422 108 q 431 249 429 190 q 432 365 432 307 q 347 250 389 301 q 249 153 304 199 q 188 128 222 131 q 121 137 154 126 q 60 169 88 147 q 18 217 32 190 q -9 306 -6 263 q -5 391 -12 349 q 16 476 3 433 q 42 561 29 518 q 45 577 43 568 q 51 594 47 586 q 62 606 56 601 q 78 610 68 611 q 122 601 100 608 q 165 582 144 593 q 184 567 175 579 q 190 547 193 556 q 165 453 179 507 q 142 347 151 399 q 130 251 132 294 q 140 189 128 208 q 182 181 153 169 q 265 253 211 193 q 370 398 326 319 q 454 556 414 476 q 484 578 463 575 q 529 576 506 582 q 570 557 553 569 q 588 533 588 544 q 583 482 588 521 q 574 389 579 443 q 563 272 568 335 q 554 149 558 208 q 617 201 590 167 q 667 281 644 236 m 410 43 q 317 17 363 29 q 231 -10 272 6 q 153 -48 190 -26 q 88 -103 117 -69 q 47 -176 57 -137 q 41 -248 36 -214 q 65 -306 46 -282 q 111 -340 83 -331 q 174 -337 139 -349 q 249 -285 210 -325 q 349 -137 311 -218 q 410 43 386 -56 z "},"z":{"ha":611,"x_min":-81,"x_max":658,"o":"m 135 288 q 78 331 106 310 q 28 376 51 351 q 7 428 7 400 q 25 479 7 456 q 65 526 43 503 q 111 567 88 549 q 217 619 160 603 q 336 631 274 635 q 413 601 385 628 q 460 533 442 574 q 465 493 469 514 q 449 454 461 472 q 401 399 429 426 q 356 346 374 371 q 356 305 340 324 q 396 266 371 286 q 447 222 421 246 q 476 167 472 199 q 565 213 529 179 q 617 288 600 246 q 633 283 622 288 q 651 269 643 278 q 658 246 658 260 q 646 214 658 232 q 579 144 618 175 q 488 100 540 114 q 415 -93 472 -11 q 271 -239 357 -175 q 242 -259 257 -250 q 210 -276 226 -268 q 119 -303 158 -300 q 49 -293 81 -306 q -10 -256 17 -281 q -67 -200 -37 -232 q -79 -167 -81 -185 q -74 -132 -78 -150 q -22 -40 -54 -81 q 50 32 10 0 q 182 98 113 78 q 326 128 251 118 q 369 137 349 133 q 413 144 390 140 q 410 197 422 176 q 374 233 397 218 q 293 299 328 264 q 273 338 274 319 q 290 382 272 356 q 324 420 306 401 q 361 458 342 439 q 392 499 378 478 q 404 550 406 519 q 332 555 368 563 q 263 528 296 547 q 203 481 229 508 q 163 424 176 453 q 146 369 147 397 q 174 315 144 340 q 167 283 179 293 q 135 288 154 274 m 4 -183 q 78 -182 38 -190 q 158 -156 118 -174 q 238 -111 199 -137 q 308 -53 276 -85 q 362 12 340 -22 q 390 79 383 46 q 261 57 325 72 q 139 7 197 42 q 35 -90 74 -31 q 11 -135 21 -112 q 4 -183 1 -157 z "},"D":{"ha":1013,"x_min":-15,"x_max":1051,"o":"m 292 786 q 222 701 260 746 q 154 606 185 656 q 106 503 124 556 q 93 400 88 451 q 91 398 94 400 q 85 397 88 396 q 28 431 51 410 q -5 480 6 453 q -12 538 -15 507 q 8 600 -10 568 q 29 635 18 618 q 56 667 40 653 q 233 840 144 754 q 411 1014 321 926 q 474 1022 438 1035 q 542 985 511 1010 q 590 935 574 961 q 589 903 606 910 q 547 893 561 908 q 521 856 533 878 q 472 740 489 800 q 451 614 456 679 q 508 703 476 656 q 576 795 540 750 q 652 879 613 840 q 733 942 692 918 q 792 953 764 958 q 846 924 821 947 q 912 835 889 883 q 936 726 935 786 q 929 565 939 644 q 900 406 919 485 q 893 376 897 394 q 886 342 889 358 q 950 344 918 344 q 1005 338 982 344 q 1040 316 1028 332 q 1043 272 1051 300 q 987 277 1018 274 q 925 278 956 281 q 871 265 894 276 q 838 226 847 253 q 781 110 814 164 q 700 8 747 56 q 529 -81 628 -64 q 375 -56 444 -92 q 260 63 306 -21 q 286 90 274 76 q 313 121 299 104 q 309 126 310 124 q 307 129 308 128 q 258 162 272 138 q 246 218 244 186 q 249 362 247 292 q 256 501 251 432 q 268 640 260 569 q 292 786 276 711 m 719 790 q 522 531 606 668 q 396 231 439 394 q 390 201 393 217 q 385 164 388 186 q 544 249 465 214 q 706 308 622 283 q 732 327 725 314 q 746 356 739 340 q 838 714 819 529 q 839 792 842 760 q 822 838 836 825 q 783 840 808 850 q 719 790 758 829 m 346 40 q 432 56 388 42 q 517 94 476 71 q 588 148 557 118 q 632 207 619 178 q 485 136 554 175 q 346 40 417 97 z "},"~":{"ha":574,"x_min":14,"x_max":485,"o":"m 61 226 q 15 284 17 251 q 33 347 14 317 q 82 402 53 378 q 131 435 111 426 q 195 444 164 450 q 250 420 226 439 q 288 373 274 401 q 306 315 303 344 q 327 285 307 283 q 372 303 347 286 q 418 345 396 321 q 449 383 440 369 q 478 348 471 367 q 481 310 485 329 q 464 274 476 292 q 435 243 451 257 q 372 213 410 222 q 303 218 333 203 q 258 263 274 235 q 231 322 242 290 q 210 349 224 344 q 181 347 197 354 q 146 323 164 339 q 111 289 128 307 q 81 253 94 271 q 61 226 68 236 z "},"!":{"ha":308,"x_min":25,"x_max":271,"o":"m 113 1001 q 156 1028 122 1032 q 219 1018 194 1024 q 256 1002 243 1013 q 269 976 268 992 q 264 933 271 960 q 236 766 250 854 q 210 588 222 678 q 185 409 197 499 q 164 236 174 319 q 162 198 161 213 q 160 176 163 183 q 149 167 157 169 q 121 168 140 165 q 68 182 94 171 q 40 219 42 193 q 42 348 39 274 q 51 503 44 422 q 65 665 57 585 q 82 815 74 746 q 98 933 90 883 q 113 1001 106 983 m 101 -18 q 86 -15 96 -17 q 68 -10 76 -14 q 33 26 40 0 q 42 75 25 53 q 60 83 47 81 q 88 85 74 85 q 115 82 101 85 q 136 78 128 79 q 148 69 144 75 q 153 56 151 64 q 154 38 154 47 q 156 21 154 29 q 101 -18 156 -18 z "},"@":{"ha":815,"x_min":-22,"x_max":743,"o":"m 658 168 q 692 141 683 156 q 701 113 700 126 q 697 90 701 100 q 689 78 692 81 q 635 26 669 54 q 561 -28 601 -1 q 478 -78 521 -56 q 396 -111 435 -100 q 256 -116 325 -133 q 119 -51 188 -99 q 31 46 63 -12 q -12 172 -1 104 q -13 314 -22 240 q 22 456 -4 388 q 90 583 49 525 q 186 680 132 642 q 305 732 240 718 q 442 724 369 746 q 565 679 506 711 q 665 600 624 647 q 725 492 707 553 q 728 365 743 432 q 686 259 715 307 q 613 169 657 211 q 558 137 588 146 q 501 134 528 128 q 452 164 474 140 q 422 228 431 188 q 406 201 415 217 q 385 168 396 185 q 365 137 375 151 q 349 113 356 122 q 316 76 333 93 q 272 69 299 60 q 242 81 257 75 q 214 95 226 86 q 193 117 201 104 q 183 149 185 129 q 183 286 176 217 q 216 397 192 346 q 276 493 240 449 q 338 537 307 529 q 413 525 368 544 q 457 501 435 514 q 503 478 479 489 q 529 415 538 456 q 513 339 519 378 q 503 261 507 300 q 502 222 500 240 q 510 194 504 204 q 524 183 515 183 q 546 199 533 183 q 592 265 574 228 q 621 344 611 303 q 631 430 631 386 q 622 515 631 474 q 564 625 604 596 q 457 653 524 654 q 313 622 376 651 q 205 545 250 593 q 133 434 160 497 q 97 302 106 371 q 95 163 88 233 q 129 28 103 92 q 193 -51 153 -31 q 296 -62 233 -72 q 392 -28 342 -56 q 492 34 443 -1 q 585 106 542 69 q 658 168 629 143 m 453 425 q 379 387 414 417 q 319 316 344 357 q 282 228 294 275 q 276 140 269 182 q 370 278 329 208 q 453 425 411 347 z "},"#":{"ha":853,"x_min":10,"x_max":772,"o":"m 633 485 q 619 430 625 457 q 606 376 613 403 q 644 371 624 371 q 683 367 665 371 q 716 352 701 364 q 736 311 731 340 q 664 308 700 310 q 589 306 628 307 q 546 115 567 210 q 506 -78 525 21 q 467 -75 486 -76 q 429 -69 449 -74 q 406 -54 411 -67 q 403 -25 401 -42 q 409 133 404 63 q 421 274 414 203 q 385 278 399 278 q 360 275 371 279 q 342 260 350 271 q 324 229 333 249 q 222 43 271 133 q 201 14 213 25 q 165 10 190 3 q 122 28 132 18 q 110 69 111 38 q 109 144 108 107 q 110 222 110 182 q 52 217 79 213 q 10 265 25 222 q 33 288 19 281 q 64 299 47 294 q 98 306 81 303 q 132 318 115 310 q 142 360 136 338 q 153 408 147 382 q 126 405 142 410 q 96 392 111 400 q 67 374 81 383 q 46 356 53 364 q 15 419 15 396 q 34 455 15 442 q 84 474 53 468 q 147 486 115 479 q 179 500 168 489 q 197 531 190 511 q 256 665 221 597 q 285 697 272 694 q 328 681 299 700 q 350 665 339 674 q 375 647 361 657 q 351 589 363 617 q 329 529 340 561 q 384 535 358 533 q 433 542 410 538 q 452 551 443 543 q 469 569 461 560 q 519 633 494 601 q 568 697 543 665 q 588 722 581 713 q 603 734 596 731 q 621 734 611 738 q 647 721 631 731 q 676 696 671 707 q 675 654 682 685 q 665 606 669 631 q 653 554 660 582 q 688 548 669 549 q 722 543 706 547 q 752 526 739 539 q 772 485 765 514 l 633 485 m 390 458 q 353 455 367 456 q 328 453 339 454 q 290 421 296 450 q 280 384 286 403 q 265 338 274 365 q 301 348 285 344 q 325 361 318 351 q 356 405 340 381 q 390 458 371 429 m 471 458 q 436 410 451 431 q 406 367 421 389 q 434 368 424 367 q 451 378 444 369 q 460 405 457 386 q 471 458 464 424 z "},"$":{"ha":696,"x_min":-7,"x_max":653,"o":"m 313 14 q 310 -17 311 -1 q 308 -49 310 -33 q 273 -46 285 -47 q 256 -39 261 -44 q 247 -22 250 -33 q 240 11 244 -10 q 137 42 185 18 q 53 108 89 67 q 35 140 38 125 q 38 164 32 156 q 59 169 44 172 q 93 147 74 167 q 127 125 108 132 q 165 116 146 118 q 205 115 185 114 q 244 117 225 117 q 258 247 251 179 q 274 376 265 314 q 203 357 221 364 q 174 349 185 350 q 99 348 135 336 q 40 386 64 360 q 4 446 15 413 q 3 511 -7 479 q 58 639 22 579 q 140 747 93 699 q 243 832 188 796 q 360 889 299 868 q 390 906 379 896 q 407 932 401 915 q 423 978 414 956 q 443 1028 432 1000 q 475 1008 461 1017 q 504 989 489 999 q 492 952 497 969 q 482 915 488 935 q 549 876 514 900 q 608 824 583 853 q 643 759 633 794 q 633 685 653 724 q 543 568 604 619 q 492 589 503 571 q 487 631 482 607 q 504 683 492 656 q 524 733 517 710 q 527 771 532 756 q 492 786 522 786 q 446 771 464 785 q 422 725 428 757 q 410 665 418 699 q 395 594 403 631 q 379 521 388 558 q 365 450 371 483 q 416 453 394 453 q 455 451 438 454 q 487 437 472 447 q 518 407 501 426 q 553 347 540 379 q 570 284 567 315 q 569 225 574 253 q 550 176 564 197 q 469 89 518 124 q 361 29 421 54 q 339 23 350 26 q 313 14 328 19 m 336 717 q 190 604 250 675 q 92 449 131 533 q 90 423 82 431 q 117 415 99 415 q 159 418 135 414 q 208 427 183 422 q 251 436 232 432 q 279 440 271 440 q 307 578 293 511 q 336 717 321 646 m 321 143 q 406 183 369 160 q 467 239 442 207 q 501 312 499 278 q 484 368 503 346 q 431 398 465 390 q 357 393 397 406 q 341 271 351 336 q 321 143 331 206 z "},"&":{"ha":996,"x_min":-12,"x_max":919,"o":"m 185 421 q 145 533 158 476 q 135 649 132 589 q 156 750 138 701 q 206 838 175 799 q 280 907 238 878 q 372 950 322 936 q 463 956 417 963 q 551 929 510 950 q 623 875 592 908 q 667 800 654 842 q 670 717 679 757 q 638 638 661 676 q 583 565 615 600 q 515 497 550 529 q 444 435 479 465 q 383 379 410 406 q 465 263 419 324 q 557 158 510 203 q 597 210 579 179 q 626 275 615 240 q 639 347 638 310 q 629 418 640 383 q 600 405 617 414 q 567 383 583 396 q 536 356 550 371 q 517 328 522 342 q 475 365 492 349 q 460 394 460 379 q 471 422 460 408 q 627 518 538 494 q 808 533 717 542 q 878 509 853 531 q 919 447 904 488 q 853 453 882 451 q 799 453 825 454 q 746 449 774 453 q 682 440 718 446 q 713 258 732 344 q 633 100 693 172 q 688 48 658 69 q 747 10 717 26 q 808 -22 778 -7 q 868 -54 839 -37 q 851 -74 865 -72 q 821 -72 836 -75 q 688 -29 750 -57 q 575 38 626 -1 q 346 -62 463 -50 q 103 -7 229 -74 q 10 85 32 31 q 19 207 -12 140 q 96 320 49 271 q 185 421 143 369 m 481 86 q 380 174 426 126 q 286 276 333 221 q 213 182 247 228 q 160 83 179 136 q 167 19 149 44 q 225 -8 185 -6 q 363 16 300 -10 q 481 86 426 42 m 314 533 q 388 597 342 558 q 475 681 435 635 q 536 777 515 726 q 535 876 557 828 q 497 894 525 899 q 434 864 468 889 q 365 799 400 839 q 309 715 331 760 q 285 622 288 669 q 314 533 283 574 z "},"^":{"ha":551,"x_min":71,"x_max":458,"o":"m 458 686 q 388 708 414 692 q 348 748 363 724 q 327 804 333 772 q 315 872 321 836 q 313 897 313 885 q 310 925 313 908 q 210 822 251 876 q 133 703 168 767 q 107 709 122 704 q 82 724 92 714 q 72 749 72 733 q 88 788 71 764 q 131 852 103 814 q 190 928 158 890 q 253 999 222 967 q 307 1044 285 1031 q 331 1067 321 1053 q 361 1074 340 1081 q 404 1054 383 1068 q 440 1025 425 1040 q 450 1001 449 1017 q 451 972 451 985 q 445 894 449 929 q 441 827 442 860 q 444 760 440 794 q 458 686 447 726 z "},"%":{"ha":833,"x_min":1,"x_max":768,"o":"m 272 -3 q 229 22 244 11 q 208 43 214 32 q 205 70 203 54 q 214 113 207 86 q 358 496 261 300 q 589 914 456 692 q 611 935 599 931 q 637 936 624 940 q 664 922 650 932 q 690 899 678 911 q 710 872 708 882 q 699 842 711 863 q 617 701 658 776 q 535 548 575 626 q 460 392 496 469 q 394 247 424 315 q 342 121 364 178 q 307 28 319 64 q 294 1 301 11 q 272 -3 288 -10 m 1 628 q 4 646 3 635 q 10 667 6 657 q 56 767 29 718 q 121 858 82 815 q 170 890 150 889 q 226 867 190 892 q 260 844 243 856 q 290 819 276 832 q 335 714 343 775 q 210 522 310 600 q 108 511 160 489 q 81 524 94 518 q 56 538 67 531 q 15 574 28 551 q 1 628 3 596 m 128 596 q 185 635 161 611 q 220 688 208 660 q 231 745 232 715 q 215 800 231 775 q 162 700 185 749 q 128 596 139 651 m 446 113 q 474 205 450 164 q 536 279 497 246 q 573 298 551 292 q 617 304 594 304 q 663 299 640 304 q 701 282 685 293 q 717 269 708 275 q 735 257 726 264 q 760 226 753 243 q 763 186 768 210 q 723 97 749 139 q 657 22 697 56 q 598 -6 622 -3 q 535 13 574 -8 q 508 29 522 19 q 482 47 493 39 q 446 113 446 68 m 624 81 q 661 121 643 94 q 688 172 679 147 q 691 215 696 197 q 658 231 686 233 q 609 185 622 214 q 585 124 596 156 q 579 98 581 111 q 582 76 578 85 q 597 68 586 68 q 624 81 607 68 z "},"*":{"ha":557,"x_min":57,"x_max":474,"o":"m 318 807 q 353 819 338 814 q 383 828 368 824 q 412 835 401 833 q 431 834 422 838 q 448 822 439 831 q 474 794 457 813 q 390 753 432 772 q 304 710 349 733 q 357 640 332 674 q 413 567 382 606 q 368 576 386 567 q 335 599 350 585 q 307 628 321 613 q 275 654 293 643 q 261 597 268 625 q 251 542 254 569 q 241 513 247 518 q 213 517 235 508 q 175 538 182 526 q 172 581 168 549 q 174 600 174 590 q 176 628 174 610 q 138 594 154 608 q 103 564 122 579 q 59 610 61 583 q 78 656 57 636 q 121 692 93 671 q 200 751 149 714 q 177 781 189 767 q 154 813 165 794 q 131 861 129 849 q 147 869 132 874 q 184 849 163 865 q 222 815 206 833 q 241 856 233 835 q 256 897 249 876 q 271 935 263 917 q 292 971 279 954 q 326 955 314 961 q 343 941 339 949 q 346 921 347 933 q 339 888 344 908 q 328 849 332 868 q 318 807 324 831 z "},"(":{"ha":356,"x_min":0,"x_max":438,"o":"m 282 -68 q 174 -11 221 -46 q 94 66 128 24 q 41 158 61 108 q 13 258 21 207 q 11 454 0 349 q 56 662 22 560 q 142 854 89 764 q 265 1003 194 944 q 319 1028 289 1024 q 375 1026 349 1032 q 419 1007 401 1021 q 438 976 438 993 q 323 856 372 924 q 239 713 274 789 q 183 557 204 638 q 154 396 163 476 q 152 287 150 351 q 168 158 154 222 q 210 39 182 93 q 289 -40 239 -15 q 312 -64 313 -51 q 282 -68 311 -76 z "},"-":{"ha":514,"x_min":21,"x_max":438,"o":"m 351 286 q 221 285 285 285 q 90 285 157 285 q 60 294 79 285 q 31 313 42 303 q 25 333 21 324 q 64 344 29 343 q 187 353 126 349 q 311 358 247 357 q 383 349 357 358 q 431 313 408 339 q 431 298 438 303 q 410 290 424 293 q 381 287 397 288 q 351 286 364 286 z "},"=":{"ha":517,"x_min":7,"x_max":450,"o":"m 364 374 q 233 372 297 372 q 103 372 169 372 q 73 381 92 372 q 44 401 54 390 q 38 421 33 411 q 76 432 42 431 q 199 440 139 436 q 324 446 260 444 q 395 436 369 446 q 443 400 421 426 q 443 385 450 390 q 423 378 436 381 q 393 374 410 375 q 364 374 376 374 m 338 250 q 207 249 271 249 q 76 249 143 249 q 47 258 65 249 q 17 277 28 267 q 11 297 7 288 q 50 308 15 307 q 173 317 113 313 q 297 322 233 321 q 369 313 343 322 q 417 276 394 303 q 417 262 424 267 q 397 254 410 257 q 367 251 383 251 q 338 250 350 250 z "},"_":{"ha":663,"x_min":36,"x_max":582,"o":"m 468 -29 q 298 -31 382 -31 q 128 -31 214 -31 q 90 -21 114 -31 q 51 1 65 -11 q 42 23 36 13 q 93 36 47 33 q 253 45 174 40 q 417 51 333 50 q 510 40 476 51 q 572 0 543 29 q 572 -17 582 -11 q 545 -25 563 -22 q 506 -28 528 -28 q 468 -29 483 -29 z "},"+":{"ha":561,"x_min":32,"x_max":479,"o":"m 479 310 q 388 300 431 304 q 301 292 346 296 q 276 226 289 260 q 253 158 264 192 q 208 174 224 167 q 185 193 192 181 q 181 228 179 206 q 186 289 182 250 q 145 288 167 290 q 103 286 124 285 q 65 297 83 288 q 32 333 46 307 q 74 350 53 346 q 118 356 96 354 q 163 360 140 358 q 206 368 185 361 q 228 426 219 396 q 260 481 236 457 q 301 464 286 472 q 324 443 317 456 q 333 413 332 431 q 329 367 333 394 q 369 367 350 367 q 408 365 389 367 q 446 348 431 363 q 479 310 461 333 z "},"":{"ha":450,"x_min":14,"x_max":363,"o":"m 106 343 q 78 366 96 353 q 54 388 61 379 q 50 415 40 406 q 79 418 60 424 q 109 401 90 415 q 142 378 128 386 q 199 414 168 390 q 258 451 229 438 q 315 459 288 465 q 363 404 342 453 q 305 359 333 382 q 246 313 276 336 q 287 278 264 299 q 322 242 310 258 q 333 210 342 215 q 299 218 325 204 q 261 242 286 225 q 196 275 236 258 q 140 224 168 249 q 81 169 111 199 q 24 200 33 179 q 26 247 14 221 q 61 298 38 272 q 106 343 85 324 z "},"":{"ha":514,"x_min":19,"x_max":436,"o":"m 300 450 q 283 399 301 413 q 243 388 265 385 q 205 410 221 392 q 196 454 189 428 q 219 488 201 479 q 254 492 236 496 q 286 477 272 489 q 300 450 300 465 m 250 253 q 272 209 275 232 q 250 172 268 186 q 208 157 232 157 q 167 182 183 157 q 161 218 156 199 q 181 250 167 238 q 214 265 194 263 q 250 253 233 268 m 350 294 q 219 293 283 293 q 89 293 156 293 q 59 302 78 293 q 30 322 40 311 q 24 342 19 332 q 63 353 28 351 q 185 361 125 357 q 310 367 246 365 q 381 357 356 367 q 429 321 407 347 q 429 306 436 311 q 409 299 422 301 q 379 295 396 296 q 350 294 363 294 z "},"":{"ha":729,"x_min":7,"x_max":701,"o":"m 36 411 q 63 421 50 417 q 94 428 76 425 q 101 456 97 440 q 110 488 106 472 q 72 497 86 493 q 49 505 58 500 q 30 517 39 510 q 7 539 21 525 q 38 551 22 549 q 69 554 54 554 q 101 554 85 554 q 132 560 117 554 q 144 584 136 571 q 158 611 151 597 q 263 763 200 697 q 410 864 325 828 q 481 883 444 879 q 557 878 518 888 q 626 845 597 871 q 682 783 656 819 q 694 749 701 756 q 658 754 688 742 q 562 769 611 778 q 469 733 513 761 q 390 663 425 704 q 335 576 354 621 q 385 568 360 568 q 436 565 411 568 q 484 552 461 563 q 524 511 507 542 q 506 508 513 508 q 492 507 499 507 q 403 504 447 506 q 314 501 358 503 q 288 488 293 501 q 276 453 282 474 l 413 453 q 472 438 446 453 q 508 394 497 422 q 378 376 442 385 q 247 360 314 367 q 233 258 232 307 q 246 160 235 210 q 310 65 268 85 q 402 56 353 44 q 499 99 451 68 q 581 158 547 131 q 623 105 628 132 q 583 47 618 78 q 440 -17 521 -8 q 290 19 360 -26 q 149 158 207 74 q 86 350 92 242 q 72 365 81 358 q 56 379 64 372 q 42 394 47 386 q 36 411 36 401 z "},"":{"ha":554,"x_min":6,"x_max":513,"o":"m 365 324 q 409 322 388 324 q 449 313 431 319 q 484 294 468 307 q 513 258 500 281 l 401 258 q 373 256 383 258 q 357 247 363 254 q 348 227 351 240 q 339 189 344 214 q 369 183 353 185 q 400 177 385 182 q 430 161 415 172 q 456 128 444 150 q 386 119 419 122 q 321 110 353 115 q 304 38 311 72 q 290 -31 297 3 q 249 -19 265 -26 q 222 0 232 -12 q 206 34 211 13 q 196 90 200 56 q 162 89 179 92 q 128 86 144 86 q 94 93 111 86 q 64 122 78 100 q 93 153 74 150 q 131 160 113 156 q 169 167 150 164 q 207 174 188 169 q 211 201 208 189 q 217 229 214 213 q 177 226 197 231 q 138 222 157 222 q 99 228 118 221 q 64 260 81 235 q 103 278 82 274 q 145 287 124 283 q 188 294 167 290 q 229 308 208 297 q 236 353 232 329 q 244 400 240 376 q 239 404 243 400 q 214 378 226 392 q 190 351 201 364 q 167 331 176 339 q 147 322 157 324 q 125 324 136 321 q 97 338 114 328 q 46 378 65 358 q 17 424 26 399 q 7 480 8 449 q 11 556 6 511 q 52 726 22 647 q 125 878 82 804 q 143 903 135 894 q 159 913 151 911 q 176 910 167 915 q 199 896 185 906 q 228 868 217 878 q 245 849 240 858 q 249 825 250 839 q 240 785 249 811 q 184 661 214 731 q 135 531 154 592 q 118 446 118 476 q 131 408 118 415 q 165 419 143 401 q 215 479 188 436 q 316 653 267 558 q 415 839 365 749 q 428 865 424 854 q 438 878 432 875 q 451 878 443 882 q 475 861 460 875 q 497 842 489 849 q 507 828 504 835 q 508 810 510 821 q 501 782 506 800 q 434 554 467 667 q 365 324 401 442 z "},"":{"ha":738,"x_min":-3,"x_max":706,"o":"m 526 386 q 487 385 507 385 q 447 385 467 385 q 447 358 447 371 q 446 333 446 346 q 431 224 443 278 q 385 118 418 171 q 458 92 422 93 q 531 106 493 92 q 588 147 567 121 q 625 201 610 172 q 694 151 683 178 q 679 81 706 125 q 584 4 646 22 q 458 13 522 -14 l 415 33 q 350 51 382 50 q 283 35 318 53 q 217 17 243 14 q 160 47 192 21 q 142 69 143 58 q 156 96 140 81 q 179 117 165 107 q 208 132 193 126 q 258 178 247 149 q 288 282 279 231 q 299 385 296 333 l 265 385 q 236 392 254 385 q 207 410 218 400 q 200 428 196 419 q 239 439 204 438 l 299 443 l 294 513 q 210 459 249 486 q 144 399 171 432 q 106 328 118 367 q 104 240 94 289 q 36 265 63 244 q 6 315 10 285 q 22 407 -3 369 q 88 474 47 444 q 179 527 129 503 q 272 578 229 551 q 287 594 282 583 q 293 616 292 604 q 294 640 294 628 q 296 664 294 653 q 327 815 303 740 q 413 940 351 889 q 477 965 446 964 q 540 942 508 967 q 599 894 571 918 q 638 832 626 869 q 594 683 667 744 q 544 647 571 664 q 489 614 518 629 q 462 591 469 603 q 453 560 454 579 l 450 451 q 467 453 458 453 q 486 453 476 453 q 556 443 531 453 q 604 410 582 433 q 604 397 611 401 q 584 390 597 392 q 554 387 571 388 q 526 386 538 386 m 564 826 q 531 799 549 818 q 499 756 514 779 q 473 710 483 733 q 460 672 463 686 q 528 718 500 693 q 570 765 556 743 q 583 804 585 788 q 564 826 582 821 z "},"":{"ha":468,"x_min":-11,"x_max":425,"o":"m 278 74 q 278 35 276 50 q 276 14 279 21 q 265 5 274 7 q 238 4 257 3 q 185 16 211 7 q 156 51 158 25 q 153 77 153 64 q 151 104 153 90 q 46 186 85 132 q -4 317 7 240 q -4 433 -11 367 q 24 563 3 500 q 84 671 46 625 q 176 724 122 717 q 185 794 181 765 q 193 836 189 824 q 236 864 203 868 q 299 856 275 861 q 336 842 324 851 q 351 817 349 833 q 347 775 353 801 l 339 699 q 356 694 349 699 q 381 623 378 664 q 374 547 385 582 q 338 492 363 513 q 278 482 313 472 q 284 498 278 486 q 295 528 290 510 q 301 573 300 547 q 290 631 301 599 q 226 572 254 617 q 180 467 197 526 q 156 344 163 407 q 158 231 150 281 q 191 158 167 182 q 260 151 215 133 q 335 211 311 172 q 374 294 358 250 q 407 275 396 283 q 422 258 418 267 q 424 243 425 250 q 419 229 422 236 q 369 140 403 181 q 279 89 336 99 l 278 74 z "},"[":{"ha":315,"x_min":-12,"x_max":314,"o":"m 261 978 q 217 978 233 979 q 192 972 201 978 q 179 951 183 965 q 171 911 175 936 q 113 450 128 679 q 128 -14 99 221 q 183 -7 156 -11 q 236 -8 211 -3 q 268 -17 261 -11 q 271 -29 275 -22 q 256 -44 267 -36 q 233 -57 244 -51 q 147 -82 190 -76 q 56 -76 104 -87 q 33 -56 42 -72 q 20 -20 25 -40 q 13 19 15 0 q 10 49 11 39 q 5 510 -12 283 q 67 968 22 738 q 85 1026 74 1000 q 133 1058 96 1058 q 221 1044 179 1056 q 301 1007 263 1032 q 310 994 307 1003 q 309 984 314 988 q 295 979 304 981 q 276 978 286 978 q 261 978 267 978 z "},"{":{"ha":372,"x_min":8,"x_max":379,"o":"m 163 367 q 209 288 196 329 q 221 203 222 247 q 221 133 222 171 q 225 59 219 94 q 248 -5 231 24 q 303 -43 265 -33 q 321 -53 318 -47 q 318 -65 324 -60 q 301 -73 313 -69 q 278 -75 290 -76 q 186 -61 222 -78 q 128 -16 150 -44 q 96 50 107 13 q 81 129 85 88 q 75 212 76 171 q 71 289 74 253 q 55 349 67 321 q 8 389 43 376 q 16 419 8 408 q 36 438 24 429 q 107 557 100 483 q 113 658 110 607 q 117 757 115 708 q 126 853 114 799 q 165 955 139 908 q 229 1028 190 1001 q 319 1042 268 1056 q 367 1015 347 1032 q 378 994 379 1007 q 361 978 376 982 q 311 938 331 969 q 279 869 292 907 q 261 792 267 831 q 254 729 256 754 q 251 640 251 685 q 249 551 251 596 q 229 451 247 499 q 163 367 211 404 z "},"<":{"ha":557,"x_min":15,"x_max":488,"o":"m 128 242 q 185 221 153 233 q 251 196 218 208 q 313 172 283 183 q 364 154 343 160 q 413 128 392 144 q 444 81 433 113 q 431 74 438 74 q 363 92 401 81 q 283 117 324 104 q 204 142 243 131 q 136 161 165 154 q 76 186 101 168 q 31 231 50 204 q 16 269 15 250 q 26 307 17 289 q 52 340 36 325 q 85 365 68 356 q 241 480 163 424 q 400 594 319 536 q 429 602 417 606 q 453 583 442 599 l 474 561 q 486 530 488 540 q 465 504 485 519 q 292 370 375 433 q 128 242 210 307 z "},"/":{"ha":519,"x_min":-1,"x_max":490,"o":"m 464 1008 q 489 971 488 990 q 474 915 490 951 q 310 540 388 729 q 160 158 233 351 q 133 89 144 125 q 106 17 121 53 q 82 -19 93 -15 q 36 -11 71 -24 q 9 1 17 -8 q 0 24 1 11 q 1 52 -1 36 q 7 83 4 68 q 39 230 17 149 q 92 400 61 311 q 162 578 124 489 q 240 749 200 668 q 319 894 279 829 q 396 1000 360 960 q 415 1019 407 1013 q 429 1026 422 1025 q 444 1022 436 1026 q 464 1008 451 1018 z "},"?":{"ha":699,"x_min":15,"x_max":661,"o":"m 190 825 q 159 792 174 811 q 135 753 144 774 q 124 711 126 732 q 133 672 122 690 q 154 649 140 658 q 116 624 128 625 q 79 639 104 622 q 28 704 40 665 q 22 783 15 743 q 49 862 28 824 q 100 925 71 900 q 268 1019 179 996 q 461 1017 357 1043 q 532 985 501 1006 q 585 938 563 965 q 624 878 608 911 q 651 808 640 844 q 653 752 661 781 q 631 697 646 724 q 531 599 588 649 q 416 490 474 550 q 307 353 358 429 q 222 176 256 278 q 204 154 215 156 q 181 163 193 153 q 156 189 168 172 q 135 221 143 206 q 128 307 119 263 q 158 393 136 351 q 209 471 179 435 q 267 532 239 507 q 367 617 307 568 q 475 722 426 667 q 531 820 525 782 q 515 878 538 858 q 449 902 492 899 q 357 897 406 906 q 263 869 308 888 q 190 825 217 850 m 176 -18 q 161 -15 171 -17 q 143 -10 151 -14 q 108 26 115 0 q 117 75 100 53 q 135 83 122 81 q 163 85 149 85 q 190 82 176 85 q 211 78 203 79 q 223 69 219 75 q 228 56 226 64 q 229 38 229 47 q 231 21 229 29 q 176 -18 231 -18 z "},"":{"ha":665,"x_min":-26,"x_max":619,"o":"m 444 175 q 476 208 461 189 q 499 247 490 226 q 510 289 508 268 q 501 328 513 310 q 481 351 494 342 q 519 376 507 375 q 556 361 531 378 q 607 296 594 335 q 613 217 619 257 q 585 138 607 176 q 535 75 564 100 q 367 -19 456 4 q 174 -17 278 -43 q 103 15 133 -5 q 49 62 72 35 q 10 122 26 89 q -17 192 -6 156 q -19 248 -26 219 q 4 303 -11 276 q 104 401 47 351 q 219 510 161 450 q 328 647 276 571 q 413 824 379 722 q 431 846 419 844 q 454 838 442 847 q 479 811 467 828 q 500 779 492 794 q 507 693 515 738 q 477 607 499 649 q 426 529 456 565 q 368 468 396 493 q 268 383 328 432 q 160 278 208 333 q 104 180 110 218 q 120 122 97 142 q 186 98 143 101 q 278 104 229 94 q 372 131 326 113 q 444 175 418 150 m 458 1018 q 474 1015 464 1017 q 492 1010 483 1014 q 527 974 519 1000 q 518 925 535 947 q 499 917 513 919 q 472 915 486 915 q 445 918 458 915 q 424 922 432 921 q 412 931 415 925 q 407 944 408 936 q 406 962 406 953 q 404 979 406 971 q 458 1018 404 1018 z "},"":{"ha":225,"x_min":-72,"x_max":174,"o":"m 86 -167 q 43 -193 76 -197 q -20 -183 4 -189 q -57 -167 -44 -178 q -71 -141 -69 -157 q -65 -99 -72 -125 q -37 69 -51 -19 q -11 247 -24 157 q 13 426 1 336 q 35 599 25 515 q 37 637 38 622 q 39 658 36 651 q 50 667 42 665 q 78 667 58 669 q 131 653 104 664 q 158 615 157 642 q 157 487 160 561 q 148 331 154 413 q 133 169 142 250 q 117 20 125 89 q 101 -99 108 -49 q 86 -167 93 -149 m 97 853 q 113 850 103 851 q 131 844 122 849 q 166 808 158 835 q 157 760 174 782 q 138 752 151 754 q 111 750 125 750 q 84 753 97 750 q 63 757 71 756 q 51 765 54 760 q 46 779 47 771 q 44 797 44 788 q 43 814 44 806 q 97 853 43 853 z "},")":{"ha":471,"x_min":-21,"x_max":417,"o":"m 135 1024 q 242 967 194 1001 q 322 890 289 932 q 376 798 356 847 q 404 697 396 749 q 406 501 417 607 q 361 294 394 396 q 275 101 328 192 q 151 -47 222 11 q 98 -72 128 -68 q 42 -71 68 -76 q -3 -51 15 -65 q -21 -21 -21 -37 q 93 99 43 32 q 178 242 143 167 q 233 399 213 318 q 263 560 254 479 q 265 669 267 604 q 249 798 263 733 q 206 917 235 863 q 128 996 178 971 q 105 1019 104 1007 q 135 1024 106 1032 z "},"]":{"ha":363,"x_min":-12,"x_max":314,"o":"m 40 -11 q 84 -12 68 -12 q 109 -5 100 -11 q 122 16 118 1 q 131 56 126 31 q 188 517 174 288 q 174 981 203 746 q 118 974 146 978 q 65 975 90 969 q 33 983 40 978 q 31 996 26 989 q 46 1010 35 1003 q 68 1024 57 1017 q 154 1049 111 1043 q 246 1043 197 1054 q 268 1023 260 1039 q 281 987 276 1007 q 288 947 286 967 q 292 918 290 928 q 297 456 314 683 q 235 -1 279 229 q 217 -60 228 -33 q 168 -92 206 -92 q 81 -77 122 -89 q 0 -40 39 -65 q -8 -28 -7 -36 q -8 -17 -12 -21 q 6 -12 -3 -14 q 25 -11 15 -11 q 40 -11 35 -11 z "},"}":{"ha":439,"x_min":13,"x_max":383,"o":"m 229 589 q 183 667 196 626 q 171 753 169 708 q 171 822 169 783 q 167 897 172 861 q 144 960 161 932 q 89 999 126 988 q 71 1009 74 1003 q 74 1020 68 1015 q 90 1028 79 1025 q 114 1031 101 1032 q 206 1017 169 1033 q 263 972 242 1000 q 296 906 285 943 q 311 826 307 868 q 317 743 315 785 q 321 667 318 701 q 337 607 325 635 q 383 567 349 579 q 376 537 383 547 q 356 518 368 526 q 285 399 292 472 q 279 298 282 349 q 275 199 276 247 q 265 102 278 157 q 227 1 253 47 q 163 -73 201 -46 q 72 -86 124 -100 q 25 -60 44 -76 q 14 -39 13 -51 q 31 -22 15 -26 q 81 17 61 -14 q 113 87 100 49 q 131 163 125 125 q 138 226 136 201 q 140 315 140 271 q 143 404 140 360 q 163 504 144 457 q 229 589 181 551 z "},">":{"ha":590,"x_min":-6,"x_max":526,"o":"m 422 340 q 372 376 400 356 q 317 419 344 397 q 263 460 289 440 q 219 490 238 479 q 180 529 196 507 q 163 583 164 551 q 178 586 172 589 q 238 549 204 571 q 307 503 272 528 q 376 457 342 479 q 436 421 410 435 q 488 380 468 404 q 518 324 507 356 q 521 283 526 301 q 501 249 515 264 q 467 225 488 235 q 429 210 447 215 q 247 143 338 176 q 63 78 156 110 q 33 78 43 71 q 15 103 22 86 l 1 131 q -2 164 -6 154 q 25 182 1 174 q 228 263 131 225 q 422 340 326 300 z "},"\\":{"ha":519,"x_min":-8,"x_max":483,"o":"m 18 1008 q 38 1022 31 1018 q 53 1026 46 1026 q 67 1019 60 1025 q 86 1000 75 1013 q 163 894 122 960 q 242 749 203 829 q 320 578 282 668 q 390 400 358 489 q 443 229 421 311 q 475 83 465 147 q 481 52 478 68 q 482 24 483 36 q 472 1 481 11 q 446 -11 464 -8 q 400 -19 411 -24 q 376 17 389 -15 q 349 89 361 53 q 322 158 338 125 q 172 540 249 351 q 8 915 94 729 q -7 971 -8 951 q 18 1008 -6 990 z "},"|":{"ha":274,"x_min":21,"x_max":267,"o":"m 225 1015 q 260 985 253 1004 q 260 928 267 967 q 201 522 226 725 q 156 114 175 319 q 148 40 150 78 q 142 -36 146 3 q 128 -78 138 -71 q 82 -82 118 -85 q 53 -76 63 -83 q 38 -58 43 -69 q 32 -30 33 -46 q 29 1 31 -14 q 21 151 21 67 q 28 330 21 236 q 48 520 35 424 q 78 705 61 617 q 117 867 96 793 q 163 989 139 940 q 176 1013 171 1004 q 187 1023 181 1021 q 201 1023 193 1025 q 225 1015 210 1021 z "},"":{"ha":561,"x_min":22,"x_max":479,"o":"m 479 310 q 388 300 431 304 q 301 292 346 296 q 276 226 289 260 q 253 158 264 192 q 208 174 224 167 q 185 193 192 181 q 181 228 179 206 q 186 289 182 250 q 145 288 167 290 q 103 286 124 285 q 65 297 83 288 q 32 333 46 307 q 74 350 53 346 q 118 356 96 354 q 163 360 140 358 q 206 368 185 361 q 228 426 219 396 q 260 481 236 457 q 301 464 286 472 q 324 443 317 456 q 333 413 332 431 q 329 367 333 394 q 369 367 350 367 q 408 365 389 367 q 446 348 431 363 q 479 310 461 333 m 353 69 q 222 68 286 68 q 92 68 158 68 q 62 77 81 68 q 33 97 43 86 q 26 117 22 107 q 65 128 31 126 q 188 136 128 132 q 313 142 249 140 q 384 132 358 142 q 432 96 410 122 q 432 81 439 86 q 412 74 425 76 q 382 70 399 71 q 353 69 365 69 z "},"":{"ha":1081,"x_min":1,"x_max":1039,"o":"m 446 113 q 474 205 450 164 q 536 279 497 246 q 573 298 551 292 q 617 304 594 304 q 663 299 640 304 q 701 282 685 293 q 717 269 708 275 q 735 257 726 264 q 749 243 743 250 q 760 228 756 236 q 781 254 769 242 q 807 279 793 267 q 844 298 822 292 q 888 304 865 304 q 933 299 911 304 q 972 282 956 293 q 988 269 979 275 q 1006 257 997 264 q 1031 226 1024 243 q 1033 186 1039 210 q 994 97 1019 139 q 928 22 968 56 q 869 -6 893 -3 q 806 13 844 -8 q 778 29 793 19 q 753 47 764 39 q 719 90 726 61 q 657 22 696 54 q 598 -6 622 -3 q 535 13 574 -8 q 508 29 522 19 q 482 47 493 39 q 446 113 446 68 m 272 -3 q 229 22 244 11 q 208 43 214 32 q 205 70 203 54 q 214 113 207 86 q 358 496 261 300 q 589 914 456 692 q 611 935 599 931 q 637 936 624 940 q 664 922 650 932 q 690 899 678 911 q 710 872 708 882 q 699 842 711 863 q 617 701 658 776 q 535 548 575 626 q 460 392 496 469 q 394 247 424 315 q 342 121 364 178 q 307 28 319 64 q 294 1 301 11 q 272 -3 288 -10 m 1 628 q 4 646 3 635 q 10 667 6 657 q 56 767 29 718 q 121 858 82 815 q 170 890 150 889 q 226 867 190 892 q 260 844 243 856 q 290 819 276 832 q 335 714 343 775 q 210 522 310 600 q 108 511 160 489 q 81 524 94 518 q 56 538 67 531 q 15 574 28 551 q 1 628 3 596 m 894 81 q 932 121 914 94 q 958 172 950 147 q 962 215 967 197 q 929 231 957 233 q 880 185 893 214 q 856 124 867 156 q 850 98 851 111 q 853 76 849 85 q 867 68 857 68 q 894 81 878 68 m 624 81 q 661 121 643 94 q 688 172 679 147 q 691 215 696 197 q 658 231 686 233 q 609 185 622 214 q 585 124 596 156 q 579 98 581 111 q 582 76 578 85 q 597 68 586 68 q 624 81 607 68 m 128 596 q 185 635 161 611 q 220 688 208 660 q 231 745 232 715 q 215 800 231 775 q 162 700 185 749 q 128 596 139 651 z "},"`":{"ha":317,"x_min":46,"x_max":251,"o":"m 251 853 q 195 853 225 846 q 137 878 165 860 q 84 922 108 896 q 46 982 60 949 q 91 988 69 993 q 131 968 113 983 q 192 917 163 943 q 250 863 221 890 q 251 853 251 861 z "},"":{"ha":249,"x_min":36,"x_max":211,"o":"m 211 988 q 178 936 194 961 q 146 888 161 911 q 122 858 132 868 q 101 846 113 849 q 75 846 90 843 q 36 857 60 849 q 51 891 40 871 q 77 932 63 911 q 107 971 92 953 q 133 996 122 989 q 211 988 168 1019 z "},"":{"ha":290,"x_min":36,"x_max":222,"o":"m 36 863 q 74 942 53 904 q 126 1011 94 979 q 150 1022 136 1021 q 177 1019 164 1024 q 200 1006 190 1015 q 213 983 210 996 q 218 914 217 949 q 222 844 219 879 q 164 853 182 835 q 139 903 146 871 q 110 869 121 881 q 90 853 100 857 q 69 852 81 849 q 36 863 57 856 z "},"":{"ha":308,"x_min":46,"x_max":268,"o":"m 146 839 q 110 853 132 846 q 68 876 88 861 q 52 898 58 883 q 46 925 46 913 q 58 967 46 946 q 90 1003 71 989 q 132 1022 108 1018 q 179 1013 156 1026 q 190 1008 185 1010 q 203 1003 196 1006 q 256 925 268 972 q 217 864 246 889 q 146 839 188 839 m 182 960 q 138 939 147 953 q 138 889 129 925 q 172 916 160 900 q 182 960 185 932 z "},"":{"ha":285,"x_min":40,"x_max":239,"o":"m 128 932 q 115 901 128 914 q 85 889 103 889 q 53 901 65 889 q 40 932 40 914 q 53 964 40 951 q 85 976 65 976 q 115 964 103 976 q 128 932 128 951 m 239 932 q 226 901 239 914 q 194 889 213 889 q 163 901 175 889 q 150 932 150 914 q 163 964 150 951 q 194 976 175 976 q 226 964 213 976 q 239 932 239 951 z "},"":{"ha":360,"x_min":29,"x_max":324,"o":"m 265 1039 q 299 1031 286 1035 q 317 1019 311 1026 q 323 1001 322 1013 q 322 969 324 989 q 309 926 318 947 q 285 889 300 904 q 250 867 271 874 q 204 868 229 860 q 166 893 179 876 q 125 921 153 910 q 110 892 118 910 q 86 874 101 874 q 36 901 43 885 q 53 956 29 918 q 63 970 57 963 q 74 985 68 978 q 142 1014 106 1021 q 196 963 179 1007 q 207 935 200 950 q 208 932 207 932 q 211 929 210 932 q 224 939 219 935 q 233 953 228 943 q 246 983 239 964 q 265 1039 253 1003 z "},"'":{"ha":251,"x_min":94,"x_max":190,"o":"m 185 951 q 172 910 181 932 q 152 871 163 889 q 132 841 142 853 q 114 832 122 829 q 101 849 106 835 q 95 885 96 864 q 97 928 94 906 q 106 971 100 951 q 115 999 110 990 q 127 1010 121 1008 q 141 1010 133 1013 q 157 1007 149 1008 q 172 1003 165 1004 q 184 997 179 1001 q 190 981 189 992 q 185 951 190 971 z "},"":{"ha":367,"x_min":42,"x_max":308,"o":"m 42 160 q 76 158 60 163 q 109 149 93 153 q 140 148 125 146 q 171 167 156 150 q 195 193 182 181 q 211 231 208 206 q 174 234 192 233 q 140 239 157 235 q 81 268 89 251 q 96 332 72 285 q 131 394 113 364 q 168 460 149 425 q 208 442 189 450 q 249 425 228 433 q 215 355 231 389 q 183 286 200 321 q 215 274 200 279 q 243 263 229 269 q 289 231 269 249 q 306 179 308 213 q 280 118 303 147 q 226 85 257 89 q 135 90 178 76 q 53 133 92 103 q 47 142 49 136 q 42 160 44 149 z "},".":{"ha":201,"x_min":42,"x_max":142,"o":"m 142 49 q 126 13 142 28 q 92 -1 111 -1 q 56 13 71 -1 q 42 49 42 28 q 56 83 42 68 q 92 99 71 99 q 126 83 111 99 q 142 49 142 68 z "},",":{"ha":210,"x_min":56,"x_max":157,"o":"m 156 60 q 153 31 157 51 q 141 -6 149 14 q 124 -42 133 -25 q 106 -68 115 -58 q 90 -76 97 -78 q 79 -68 85 -75 q 76 -50 74 -61 q 81 -14 79 -32 q 78 18 82 4 q 56 58 56 32 q 70 94 56 81 q 106 108 85 108 q 140 94 126 108 q 156 60 154 81 z "},"":{"ha":597,"x_min":-11,"x_max":560,"o":"m 192 613 q 137 328 153 471 q 132 38 121 185 q 141 -72 136 -21 q 140 -175 146 -124 q 29 -96 46 -171 q -8 283 -11 94 q 42 661 -4 471 q 81 784 57 725 q 140 897 104 843 q 185 955 161 928 q 236 1006 210 982 q 299 1036 265 1033 q 368 1024 333 1039 q 404 1006 388 1015 q 438 988 421 996 q 534 893 508 951 q 553 760 560 835 q 530 645 546 701 q 486 536 514 589 q 463 486 475 511 q 438 438 451 461 q 436 339 410 389 q 499 200 472 268 q 511 154 507 178 q 517 108 515 131 q 488 14 519 51 q 403 -32 457 -24 q 319 -31 358 -39 q 284 -18 307 -28 q 237 6 261 -8 q 192 35 213 19 q 165 66 172 51 q 166 91 157 81 q 210 106 175 101 q 326 128 292 114 q 362 167 360 142 q 342 231 364 192 q 292 332 321 271 q 279 361 285 347 q 267 390 274 375 q 267 501 242 444 q 295 557 281 529 q 325 613 310 585 q 403 794 382 724 q 418 896 424 864 q 388 924 413 928 q 328 883 363 921 q 258 778 294 846 q 192 613 221 710 z "},":":{"ha":267,"x_min":58,"x_max":199,"o":"m 186 151 q 167 106 186 124 q 122 88 147 88 q 76 106 94 88 q 58 151 58 124 q 76 196 58 176 q 122 215 94 215 q 167 196 147 215 q 186 151 186 176 m 199 368 q 179 322 199 340 q 135 304 160 304 q 89 322 107 304 q 71 368 71 340 q 89 413 71 393 q 135 432 107 432 q 179 413 160 432 q 199 368 199 393 z "},"":{"ha":604,"x_min":42,"x_max":544,"o":"m 142 49 q 126 13 142 28 q 92 -1 111 -1 q 56 13 71 -1 q 42 49 42 28 q 56 83 42 68 q 92 99 71 99 q 126 83 111 99 q 142 49 142 68 m 343 49 q 328 13 343 28 q 293 -1 313 -1 q 258 13 272 -1 q 243 49 243 28 q 258 83 243 68 q 293 99 272 99 q 328 83 313 99 q 343 49 343 68 m 544 49 q 529 13 544 28 q 494 -1 514 -1 q 459 13 474 -1 q 444 49 444 28 q 459 83 444 68 q 494 99 474 99 q 529 83 514 99 q 544 49 544 68 z "},";":{"ha":267,"x_min":56,"x_max":199,"o":"m 199 368 q 179 322 199 340 q 135 304 160 304 q 89 322 107 304 q 71 368 71 340 q 89 413 71 393 q 135 432 107 432 q 179 413 160 432 q 199 368 199 393 m 181 94 q 176 58 182 83 q 161 13 171 38 q 140 -31 151 -11 q 118 -65 129 -51 q 99 -75 107 -78 q 85 -65 92 -74 q 82 -43 79 -57 q 87 3 85 -19 q 83 43 89 25 q 56 93 56 58 q 74 138 56 121 q 118 156 92 156 q 162 138 144 156 q 181 94 179 121 z "},"":{"ha":210,"x_min":56,"x_max":157,"o":"m 156 60 q 153 31 157 51 q 141 -6 149 14 q 124 -42 133 -25 q 106 -68 115 -58 q 90 -76 97 -78 q 79 -68 85 -75 q 76 -50 74 -61 q 81 -14 79 -32 q 78 18 82 4 q 56 58 56 32 q 70 94 56 81 q 106 108 85 108 q 140 94 126 108 q 156 60 154 81 z "},"":{"ha":336,"x_min":56,"x_max":281,"o":"m 156 60 q 153 31 157 51 q 141 -6 149 14 q 124 -42 133 -25 q 106 -68 115 -58 q 90 -76 97 -78 q 79 -68 85 -75 q 76 -50 74 -61 q 81 -14 79 -32 q 78 18 82 4 q 56 58 56 32 q 70 94 56 81 q 106 108 85 108 q 140 94 126 108 q 156 60 154 81 m 279 60 q 276 31 281 51 q 265 -6 272 14 q 248 -42 257 -25 q 230 -68 239 -58 q 214 -76 221 -78 q 203 -68 208 -75 q 200 -50 197 -61 q 204 -14 203 -32 q 201 18 206 4 q 179 58 179 32 q 194 94 179 81 q 229 108 208 108 q 264 94 250 108 q 279 60 278 81 z "},"":{"ha":847,"x_min":-6,"x_max":924,"o":"m 650 364 q 697 360 685 367 q 705 344 710 354 q 681 326 700 335 q 635 315 661 317 q 620 210 625 271 q 615 90 615 150 q 619 -24 614 29 q 635 -108 624 -78 q 664 -140 646 -139 q 708 -96 682 -140 q 778 43 749 -29 q 826 190 807 115 q 835 235 832 213 q 842 282 838 258 q 846 301 844 292 q 850 324 847 311 q 876 314 865 318 q 897 306 886 310 q 921 269 924 296 q 917 233 918 250 q 913 197 915 215 q 881 72 901 132 q 828 -46 860 11 q 769 -132 801 -93 q 722 -178 749 -160 q 656 -189 694 -197 q 608 -177 632 -185 q 564 -158 585 -169 q 527 -129 543 -147 q 504 -86 511 -111 q 484 13 489 -37 q 480 113 479 63 q 485 210 481 163 q 496 301 490 258 q 346 235 414 279 q 219 133 278 192 q 203 103 210 122 q 191 63 196 85 q 183 21 186 42 q 178 -14 179 0 q 133 -9 154 -14 q 101 13 113 -4 q 83 55 90 32 q 89 100 75 78 q 139 220 122 158 q 179 342 156 282 q 270 556 222 451 q 381 761 318 661 q 402 792 388 774 q 428 829 417 811 q 446 858 440 847 q 442 864 451 868 q 376 822 414 850 q 297 758 338 794 q 219 678 257 721 q 153 593 181 635 q 114 513 126 551 q 113 446 101 474 q 115 431 117 435 q 107 426 113 426 q 94 428 101 426 q 83 433 88 431 q 19 501 43 457 q 3 586 -6 544 q 100 767 24 690 q 163 824 131 796 q 231 875 194 853 q 365 952 297 915 q 501 1025 433 989 q 556 1042 525 1038 q 575 1041 564 1043 q 589 1033 586 1039 q 631 994 606 1007 q 679 967 656 982 q 738 865 742 933 q 731 788 735 826 q 719 713 726 750 q 688 559 704 635 q 657 407 672 483 q 653 388 654 396 q 650 364 653 379 m 500 353 q 545 590 524 472 q 590 828 567 708 q 579 831 582 831 q 400 569 475 707 q 267 276 325 431 q 381 321 325 301 q 500 353 436 340 m 721 1092 q 665 1092 694 1085 q 606 1117 635 1099 q 553 1161 578 1135 q 515 1221 529 1188 q 560 1227 539 1232 q 600 1207 582 1222 q 661 1156 632 1182 q 719 1101 690 1129 q 721 1092 721 1100 z "},"":{"ha":847,"x_min":-6,"x_max":924,"o":"m 650 364 q 697 360 685 367 q 705 344 710 354 q 681 326 700 335 q 635 315 661 317 q 620 210 625 271 q 615 90 615 150 q 619 -24 614 29 q 635 -108 624 -78 q 664 -140 646 -139 q 708 -96 682 -140 q 778 43 749 -29 q 826 190 807 115 q 835 235 832 213 q 842 282 838 258 q 846 301 844 292 q 850 324 847 311 q 876 314 865 318 q 897 306 886 310 q 921 269 924 296 q 917 233 918 250 q 913 197 915 215 q 881 72 901 132 q 828 -46 860 11 q 769 -132 801 -93 q 722 -178 749 -160 q 656 -189 694 -197 q 608 -177 632 -185 q 564 -158 585 -169 q 527 -129 543 -147 q 504 -86 511 -111 q 484 13 489 -37 q 480 113 479 63 q 485 210 481 163 q 496 301 490 258 q 346 235 414 279 q 219 133 278 192 q 203 103 210 122 q 191 63 196 85 q 183 21 186 42 q 178 -14 179 0 q 133 -9 154 -14 q 101 13 113 -4 q 83 55 90 32 q 89 100 75 78 q 139 220 122 158 q 179 342 156 282 q 270 556 222 451 q 381 761 318 661 q 402 792 388 774 q 428 829 417 811 q 446 858 440 847 q 442 864 451 868 q 376 822 414 850 q 297 758 338 794 q 219 678 257 721 q 153 593 181 635 q 114 513 126 551 q 113 446 101 474 q 115 431 117 435 q 107 426 113 426 q 94 428 101 426 q 83 433 88 431 q 19 501 43 457 q 3 586 -6 544 q 100 767 24 690 q 163 824 131 796 q 231 875 194 853 q 365 952 297 915 q 501 1025 433 989 q 556 1042 525 1038 q 575 1041 564 1043 q 589 1033 586 1039 q 631 994 606 1007 q 679 967 656 982 q 738 865 742 933 q 731 788 735 826 q 719 713 726 750 q 688 559 704 635 q 657 407 672 483 q 653 388 654 396 q 650 364 653 379 m 500 353 q 545 590 524 472 q 590 828 567 708 q 579 831 582 831 q 400 569 475 707 q 267 276 325 431 q 381 321 325 301 q 500 353 436 340 m 765 1232 q 732 1181 749 1206 q 700 1132 715 1156 q 676 1103 686 1113 q 656 1090 667 1093 q 629 1090 644 1088 q 590 1101 614 1093 q 606 1135 594 1115 q 631 1176 617 1156 q 661 1215 646 1197 q 688 1240 676 1233 q 765 1232 722 1264 z "},"":{"ha":847,"x_min":-6,"x_max":924,"o":"m 650 364 q 697 360 685 367 q 705 344 710 354 q 681 326 700 335 q 635 315 661 317 q 620 210 625 271 q 615 90 615 150 q 619 -24 614 29 q 635 -108 624 -78 q 664 -140 646 -139 q 708 -96 682 -140 q 778 43 749 -29 q 826 190 807 115 q 835 235 832 213 q 842 282 838 258 q 846 301 844 292 q 850 324 847 311 q 876 314 865 318 q 897 306 886 310 q 921 269 924 296 q 917 233 918 250 q 913 197 915 215 q 881 72 901 132 q 828 -46 860 11 q 769 -132 801 -93 q 722 -178 749 -160 q 656 -189 694 -197 q 608 -177 632 -185 q 564 -158 585 -169 q 527 -129 543 -147 q 504 -86 511 -111 q 484 13 489 -37 q 480 113 479 63 q 485 210 481 163 q 496 301 490 258 q 346 235 414 279 q 219 133 278 192 q 203 103 210 122 q 191 63 196 85 q 183 21 186 42 q 178 -14 179 0 q 133 -9 154 -14 q 101 13 113 -4 q 83 55 90 32 q 89 100 75 78 q 139 220 122 158 q 179 342 156 282 q 270 556 222 451 q 381 761 318 661 q 402 792 388 774 q 428 829 417 811 q 446 858 440 847 q 442 864 451 868 q 376 822 414 850 q 297 758 338 794 q 219 678 257 721 q 153 593 181 635 q 114 513 126 551 q 113 446 101 474 q 115 431 117 435 q 107 426 113 426 q 94 428 101 426 q 83 433 88 431 q 19 501 43 457 q 3 586 -6 544 q 100 767 24 690 q 163 824 131 796 q 231 875 194 853 q 365 952 297 915 q 501 1025 433 989 q 556 1042 525 1038 q 575 1041 564 1043 q 589 1033 586 1039 q 631 994 606 1007 q 679 967 656 982 q 738 865 742 933 q 731 788 735 826 q 719 713 726 750 q 688 559 704 635 q 657 407 672 483 q 653 388 654 396 q 650 364 653 379 m 500 353 q 545 590 524 472 q 590 828 567 708 q 579 831 582 831 q 400 569 475 707 q 267 276 325 431 q 381 321 325 301 q 500 353 436 340 m 560 1113 q 597 1192 576 1154 q 650 1261 618 1229 q 674 1272 660 1271 q 701 1269 688 1274 q 724 1256 714 1265 q 736 1233 733 1246 q 742 1164 740 1199 q 746 1094 743 1129 q 688 1103 706 1085 q 663 1153 669 1121 q 634 1119 644 1131 q 614 1103 624 1107 q 592 1102 604 1099 q 560 1113 581 1106 z "},"":{"ha":847,"x_min":-6,"x_max":924,"o":"m 650 364 q 697 360 685 367 q 705 344 710 354 q 681 326 700 335 q 635 315 661 317 q 620 210 625 271 q 615 90 615 150 q 619 -24 614 29 q 635 -108 624 -78 q 664 -140 646 -139 q 708 -96 682 -140 q 778 43 749 -29 q 826 190 807 115 q 835 235 832 213 q 842 282 838 258 q 846 301 844 292 q 850 324 847 311 q 876 314 865 318 q 897 306 886 310 q 921 269 924 296 q 917 233 918 250 q 913 197 915 215 q 881 72 901 132 q 828 -46 860 11 q 769 -132 801 -93 q 722 -178 749 -160 q 656 -189 694 -197 q 608 -177 632 -185 q 564 -158 585 -169 q 527 -129 543 -147 q 504 -86 511 -111 q 484 13 489 -37 q 480 113 479 63 q 485 210 481 163 q 496 301 490 258 q 346 235 414 279 q 219 133 278 192 q 203 103 210 122 q 191 63 196 85 q 183 21 186 42 q 178 -14 179 0 q 133 -9 154 -14 q 101 13 113 -4 q 83 55 90 32 q 89 100 75 78 q 139 220 122 158 q 179 342 156 282 q 270 556 222 451 q 381 761 318 661 q 402 792 388 774 q 428 829 417 811 q 446 858 440 847 q 442 864 451 868 q 376 822 414 850 q 297 758 338 794 q 219 678 257 721 q 153 593 181 635 q 114 513 126 551 q 113 446 101 474 q 115 431 117 435 q 107 426 113 426 q 94 428 101 426 q 83 433 88 431 q 19 501 43 457 q 3 586 -6 544 q 100 767 24 690 q 163 824 131 796 q 231 875 194 853 q 365 952 297 915 q 501 1025 433 989 q 556 1042 525 1038 q 575 1041 564 1043 q 589 1033 586 1039 q 631 994 606 1007 q 679 967 656 982 q 738 865 742 933 q 731 788 735 826 q 719 713 726 750 q 688 559 704 635 q 657 407 672 483 q 653 388 654 396 q 650 364 653 379 m 500 353 q 545 590 524 472 q 590 828 567 708 q 579 831 582 831 q 400 569 475 707 q 267 276 325 431 q 381 321 325 301 q 500 353 436 340 m 740 1272 q 774 1264 761 1268 q 792 1253 786 1260 q 798 1234 797 1246 q 797 1203 799 1222 q 784 1159 793 1181 q 760 1122 775 1138 q 725 1100 746 1107 q 679 1101 704 1093 q 641 1126 654 1110 q 600 1154 628 1143 q 585 1125 593 1143 q 561 1107 576 1107 q 511 1135 518 1118 q 528 1189 504 1151 q 538 1203 532 1196 q 549 1218 543 1211 q 617 1247 581 1254 q 671 1196 654 1240 q 682 1168 675 1183 q 683 1165 682 1165 q 686 1163 685 1165 q 699 1172 694 1168 q 708 1187 703 1176 q 721 1217 714 1197 q 740 1272 728 1236 z "},"":{"ha":847,"x_min":-6,"x_max":924,"o":"m 650 364 q 697 360 685 367 q 705 344 710 354 q 681 326 700 335 q 635 315 661 317 q 620 210 625 271 q 615 90 615 150 q 619 -24 614 29 q 635 -108 624 -78 q 664 -140 646 -139 q 708 -96 682 -140 q 778 43 749 -29 q 826 190 807 115 q 835 235 832 213 q 842 282 838 258 q 846 301 844 292 q 850 324 847 311 q 876 314 865 318 q 897 306 886 310 q 921 269 924 296 q 917 233 918 250 q 913 197 915 215 q 881 72 901 132 q 828 -46 860 11 q 769 -132 801 -93 q 722 -178 749 -160 q 656 -189 694 -197 q 608 -177 632 -185 q 564 -158 585 -169 q 527 -129 543 -147 q 504 -86 511 -111 q 484 13 489 -37 q 480 113 479 63 q 485 210 481 163 q 496 301 490 258 q 346 235 414 279 q 219 133 278 192 q 203 103 210 122 q 191 63 196 85 q 183 21 186 42 q 178 -14 179 0 q 133 -9 154 -14 q 101 13 113 -4 q 83 55 90 32 q 89 100 75 78 q 139 220 122 158 q 179 342 156 282 q 270 556 222 451 q 381 761 318 661 q 402 792 388 774 q 428 829 417 811 q 446 858 440 847 q 442 864 451 868 q 376 822 414 850 q 297 758 338 794 q 219 678 257 721 q 153 593 181 635 q 114 513 126 551 q 113 446 101 474 q 115 431 117 435 q 107 426 113 426 q 94 428 101 426 q 83 433 88 431 q 19 501 43 457 q 3 586 -6 544 q 100 767 24 690 q 163 824 131 796 q 231 875 194 853 q 365 952 297 915 q 501 1025 433 989 q 556 1042 525 1038 q 575 1041 564 1043 q 589 1033 586 1039 q 631 994 606 1007 q 679 967 656 982 q 738 865 742 933 q 731 788 735 826 q 719 713 726 750 q 688 559 704 635 q 657 407 672 483 q 653 388 654 396 q 650 364 653 379 m 500 353 q 545 590 524 472 q 590 828 567 708 q 579 831 582 831 q 400 569 475 707 q 267 276 325 431 q 381 321 325 301 q 500 353 436 340 m 638 1143 q 625 1113 638 1125 q 594 1100 613 1100 q 563 1113 575 1100 q 550 1143 550 1125 q 563 1175 550 1163 q 594 1188 575 1188 q 625 1175 613 1188 q 638 1143 638 1163 m 749 1143 q 735 1113 749 1125 q 704 1100 722 1100 q 672 1113 685 1100 q 660 1143 660 1125 q 672 1175 660 1163 q 704 1188 685 1188 q 735 1175 722 1188 q 749 1143 749 1163 z "},"":{"ha":847,"x_min":-6,"x_max":924,"o":"m 650 364 q 697 360 685 367 q 705 344 710 354 q 681 326 700 335 q 635 315 661 317 q 620 210 625 271 q 615 90 615 150 q 619 -24 614 29 q 635 -108 624 -78 q 664 -140 646 -139 q 708 -96 682 -140 q 778 43 749 -29 q 826 190 807 115 q 835 235 832 213 q 842 282 838 258 q 846 301 844 292 q 850 324 847 311 q 876 314 865 318 q 897 306 886 310 q 921 269 924 296 q 917 233 918 250 q 913 197 915 215 q 881 72 901 132 q 828 -46 860 11 q 769 -132 801 -93 q 722 -178 749 -160 q 656 -189 694 -197 q 608 -177 632 -185 q 564 -158 585 -169 q 527 -129 543 -147 q 504 -86 511 -111 q 484 13 489 -37 q 480 113 479 63 q 485 210 481 163 q 496 301 490 258 q 346 235 414 279 q 219 133 278 192 q 203 103 210 122 q 191 63 196 85 q 183 21 186 42 q 178 -14 179 0 q 133 -9 154 -14 q 101 13 113 -4 q 83 55 90 32 q 89 100 75 78 q 139 220 122 158 q 179 342 156 282 q 270 556 222 451 q 381 761 318 661 q 402 792 388 774 q 428 829 417 811 q 446 858 440 847 q 442 864 451 868 q 376 822 414 850 q 297 758 338 794 q 219 678 257 721 q 153 593 181 635 q 114 513 126 551 q 113 446 101 474 q 115 431 117 435 q 107 426 113 426 q 94 428 101 426 q 83 433 88 431 q 19 501 43 457 q 3 586 -6 544 q 100 767 24 690 q 163 824 131 796 q 231 875 194 853 q 365 952 297 915 q 501 1025 433 989 q 556 1042 525 1038 q 575 1041 564 1043 q 589 1033 586 1039 q 631 994 606 1007 q 679 967 656 982 q 738 865 742 933 q 731 788 735 826 q 719 713 726 750 q 688 559 704 635 q 657 407 672 483 q 653 388 654 396 q 650 364 653 379 m 500 353 q 545 590 524 472 q 590 828 567 708 q 579 831 582 831 q 400 569 475 707 q 267 276 325 431 q 381 321 325 301 q 500 353 436 340 m 682 1067 q 646 1081 668 1074 q 604 1104 624 1089 q 588 1126 594 1111 q 582 1153 582 1140 q 594 1195 582 1174 q 626 1231 607 1217 q 668 1250 644 1246 q 715 1240 692 1254 q 726 1235 721 1238 q 739 1231 732 1233 q 792 1153 804 1200 q 753 1092 782 1117 q 682 1067 724 1067 m 718 1188 q 674 1167 683 1181 q 674 1117 665 1153 q 708 1144 696 1128 q 718 1188 721 1160 z "},"":{"ha":821,"x_min":1,"x_max":882,"o":"m 361 531 q 455 547 410 538 q 546 568 500 556 q 575 574 564 572 q 594 572 586 575 q 610 560 603 569 q 628 535 617 551 q 633 526 631 531 q 639 511 635 521 q 619 496 629 504 q 599 481 610 488 q 532 434 567 457 q 465 386 497 411 q 388 305 424 353 q 329 207 351 257 q 301 112 307 157 q 316 38 296 67 q 385 5 336 10 q 518 32 433 0 q 668 134 589 57 q 829 311 747 211 q 842 301 836 306 q 851 292 847 296 q 873 269 865 278 q 881 251 881 260 q 876 233 882 243 q 857 208 869 224 q 740 78 800 140 q 601 -28 681 17 q 508 -68 557 -56 q 406 -69 458 -81 q 334 -38 372 -62 q 263 19 296 -14 q 203 90 229 53 q 169 158 178 126 q 185 281 156 221 q 232 354 204 321 q 293 417 260 388 q 313 433 304 425 q 332 450 322 442 q 299 479 315 465 q 267 508 282 493 q 197 496 232 503 q 126 485 163 489 q 52 494 81 479 q 6 546 24 510 q 4 560 1 557 q 13 562 7 563 q 28 559 19 561 q 43 557 36 557 q 135 557 88 553 q 224 576 183 561 q 229 584 228 578 q 232 599 231 590 q 233 615 233 607 q 235 628 233 624 q 290 756 256 699 q 371 858 325 813 q 474 941 417 904 q 594 1007 531 978 q 667 1022 629 1022 q 705 1019 685 1022 q 736 1006 725 1017 q 790 944 765 976 q 839 879 815 913 q 839 846 849 865 q 811 807 829 826 q 774 772 793 788 q 746 750 754 756 q 553 631 650 681 q 357 539 457 581 l 361 531 m 407 631 q 442 643 417 632 q 499 671 467 654 q 569 708 532 688 q 640 749 607 728 q 701 790 674 769 q 740 826 728 810 q 748 848 747 835 q 744 874 749 861 q 729 895 739 886 q 704 906 719 904 q 649 885 682 903 q 571 832 617 868 q 533 796 556 819 q 488 744 511 772 q 442 686 464 717 q 407 631 421 656 m 579 1097 q 523 1097 553 1090 q 465 1122 493 1104 q 412 1167 436 1140 q 374 1226 388 1193 q 419 1233 397 1238 q 458 1213 440 1228 q 519 1161 490 1188 q 578 1107 549 1135 q 579 1097 579 1106 z "},"":{"ha":821,"x_min":1,"x_max":882,"o":"m 361 531 q 455 547 410 538 q 546 568 500 556 q 575 574 564 572 q 594 572 586 575 q 610 560 603 569 q 628 535 617 551 q 633 526 631 531 q 639 511 635 521 q 619 496 629 504 q 599 481 610 488 q 532 434 567 457 q 465 386 497 411 q 388 305 424 353 q 329 207 351 257 q 301 112 307 157 q 316 38 296 67 q 385 5 336 10 q 518 32 433 0 q 668 134 589 57 q 829 311 747 211 q 842 301 836 306 q 851 292 847 296 q 873 269 865 278 q 881 251 881 260 q 876 233 882 243 q 857 208 869 224 q 740 78 800 140 q 601 -28 681 17 q 508 -68 557 -56 q 406 -69 458 -81 q 334 -38 372 -62 q 263 19 296 -14 q 203 90 229 53 q 169 158 178 126 q 185 281 156 221 q 232 354 204 321 q 293 417 260 388 q 313 433 304 425 q 332 450 322 442 q 299 479 315 465 q 267 508 282 493 q 197 496 232 503 q 126 485 163 489 q 52 494 81 479 q 6 546 24 510 q 4 560 1 557 q 13 562 7 563 q 28 559 19 561 q 43 557 36 557 q 135 557 88 553 q 224 576 183 561 q 229 584 228 578 q 232 599 231 590 q 233 615 233 607 q 235 628 233 624 q 290 756 256 699 q 371 858 325 813 q 474 941 417 904 q 594 1007 531 978 q 667 1022 629 1022 q 705 1019 685 1022 q 736 1006 725 1017 q 790 944 765 976 q 839 879 815 913 q 839 846 849 865 q 811 807 829 826 q 774 772 793 788 q 746 750 754 756 q 553 631 650 681 q 357 539 457 581 l 361 531 m 407 631 q 442 643 417 632 q 499 671 467 654 q 569 708 532 688 q 640 749 607 728 q 701 790 674 769 q 740 826 728 810 q 748 848 747 835 q 744 874 749 861 q 729 895 739 886 q 704 906 719 904 q 649 885 682 903 q 571 832 617 868 q 533 796 556 819 q 488 744 511 772 q 442 686 464 717 q 407 631 421 656 m 567 1207 q 533 1156 550 1181 q 501 1107 517 1131 q 478 1078 488 1088 q 457 1065 468 1068 q 431 1065 446 1063 q 392 1076 415 1068 q 407 1110 396 1090 q 433 1151 418 1131 q 463 1190 447 1172 q 489 1215 478 1208 q 567 1207 524 1239 z "},"":{"ha":821,"x_min":1,"x_max":882,"o":"m 361 531 q 455 547 410 538 q 546 568 500 556 q 575 574 564 572 q 594 572 586 575 q 610 560 603 569 q 628 535 617 551 q 633 526 631 531 q 639 511 635 521 q 619 496 629 504 q 599 481 610 488 q 532 434 567 457 q 465 386 497 411 q 388 305 424 353 q 329 207 351 257 q 301 112 307 157 q 316 38 296 67 q 385 5 336 10 q 518 32 433 0 q 668 134 589 57 q 829 311 747 211 q 842 301 836 306 q 851 292 847 296 q 873 269 865 278 q 881 251 881 260 q 876 233 882 243 q 857 208 869 224 q 740 78 800 140 q 601 -28 681 17 q 508 -68 557 -56 q 406 -69 458 -81 q 334 -38 372 -62 q 263 19 296 -14 q 203 90 229 53 q 169 158 178 126 q 185 281 156 221 q 232 354 204 321 q 293 417 260 388 q 313 433 304 425 q 332 450 322 442 q 299 479 315 465 q 267 508 282 493 q 197 496 232 503 q 126 485 163 489 q 52 494 81 479 q 6 546 24 510 q 4 560 1 557 q 13 562 7 563 q 28 559 19 561 q 43 557 36 557 q 135 557 88 553 q 224 576 183 561 q 229 584 228 578 q 232 599 231 590 q 233 615 233 607 q 235 628 233 624 q 290 756 256 699 q 371 858 325 813 q 474 941 417 904 q 594 1007 531 978 q 667 1022 629 1022 q 705 1019 685 1022 q 736 1006 725 1017 q 790 944 765 976 q 839 879 815 913 q 839 846 849 865 q 811 807 829 826 q 774 772 793 788 q 746 750 754 756 q 553 631 650 681 q 357 539 457 581 l 361 531 m 407 631 q 442 643 417 632 q 499 671 467 654 q 569 708 532 688 q 640 749 607 728 q 701 790 674 769 q 740 826 728 810 q 748 848 747 835 q 744 874 749 861 q 729 895 739 886 q 704 906 719 904 q 649 885 682 903 q 571 832 617 868 q 533 796 556 819 q 488 744 511 772 q 442 686 464 717 q 407 631 421 656 m 374 1074 q 411 1153 390 1115 q 464 1222 432 1190 q 488 1233 474 1232 q 515 1231 501 1235 q 538 1217 528 1226 q 550 1194 547 1207 q 556 1125 554 1160 q 560 1056 557 1090 q 501 1064 519 1046 q 476 1114 483 1082 q 448 1080 458 1092 q 428 1064 438 1068 q 406 1063 418 1060 q 374 1074 394 1067 z "},"":{"ha":821,"x_min":1,"x_max":882,"o":"m 361 531 q 455 547 410 538 q 546 568 500 556 q 575 574 564 572 q 594 572 586 575 q 610 560 603 569 q 628 535 617 551 q 633 526 631 531 q 639 511 635 521 q 619 496 629 504 q 599 481 610 488 q 532 434 567 457 q 465 386 497 411 q 388 305 424 353 q 329 207 351 257 q 301 112 307 157 q 316 38 296 67 q 385 5 336 10 q 518 32 433 0 q 668 134 589 57 q 829 311 747 211 q 842 301 836 306 q 851 292 847 296 q 873 269 865 278 q 881 251 881 260 q 876 233 882 243 q 857 208 869 224 q 740 78 800 140 q 601 -28 681 17 q 508 -68 557 -56 q 406 -69 458 -81 q 334 -38 372 -62 q 263 19 296 -14 q 203 90 229 53 q 169 158 178 126 q 185 281 156 221 q 232 354 204 321 q 293 417 260 388 q 313 433 304 425 q 332 450 322 442 q 299 479 315 465 q 267 508 282 493 q 197 496 232 503 q 126 485 163 489 q 52 494 81 479 q 6 546 24 510 q 4 560 1 557 q 13 562 7 563 q 28 559 19 561 q 43 557 36 557 q 135 557 88 553 q 224 576 183 561 q 229 584 228 578 q 232 599 231 590 q 233 615 233 607 q 235 628 233 624 q 290 756 256 699 q 371 858 325 813 q 474 941 417 904 q 594 1007 531 978 q 667 1022 629 1022 q 705 1019 685 1022 q 736 1006 725 1017 q 790 944 765 976 q 839 879 815 913 q 839 846 849 865 q 811 807 829 826 q 774 772 793 788 q 746 750 754 756 q 553 631 650 681 q 357 539 457 581 l 361 531 m 407 631 q 442 643 417 632 q 499 671 467 654 q 569 708 532 688 q 640 749 607 728 q 701 790 674 769 q 740 826 728 810 q 748 848 747 835 q 744 874 749 861 q 729 895 739 886 q 704 906 719 904 q 649 885 682 903 q 571 832 617 868 q 533 796 556 819 q 488 744 511 772 q 442 686 464 717 q 407 631 421 656 m 454 1129 q 442 1099 454 1111 q 411 1086 429 1086 q 379 1099 392 1086 q 367 1129 367 1111 q 379 1161 367 1149 q 411 1174 392 1174 q 442 1161 429 1174 q 454 1129 454 1149 m 565 1129 q 552 1099 565 1111 q 521 1086 539 1086 q 489 1099 501 1086 q 476 1129 476 1111 q 489 1161 476 1149 q 521 1174 501 1174 q 552 1161 539 1174 q 565 1129 565 1149 z "},"":{"ha":243,"x_min":-8,"x_max":290,"o":"m 188 125 q 217 205 207 169 q 246 288 226 240 q 283 267 275 281 q 281 226 290 254 q 264 176 271 197 q 250 133 257 154 q 235 91 243 113 q 215 40 228 69 q 183 4 200 10 q 131 6 167 -1 q 88 13 108 10 q 52 22 68 15 q 24 40 36 28 q 7 72 13 51 q -6 164 -3 107 q -6 285 -8 221 q 1 415 -4 350 q 13 529 7 479 q 54 563 17 561 q 140 533 92 564 q 148 517 149 528 q 147 496 147 507 q 143 431 146 467 q 138 357 140 394 q 132 284 135 319 q 129 221 129 249 q 129 185 129 207 q 131 140 129 163 q 135 100 132 118 q 146 76 139 82 q 163 81 153 71 q 188 125 172 90 z "},"":{"ha":524,"x_min":-3,"x_max":526,"o":"m 310 890 q 227 796 265 856 q 165 669 189 736 q 137 535 142 601 q 156 422 132 469 q 131 409 142 407 q 110 419 119 411 q 65 458 86 439 q 24 501 43 478 q -1 560 0 528 q 4 624 -3 592 q 21 668 11 646 q 42 710 31 690 q 310 985 149 878 q 355 1004 333 1001 q 406 983 376 1007 q 453 953 428 967 q 501 919 478 939 q 519 894 515 907 q 517 861 524 881 q 457 588 474 725 q 443 307 440 450 q 446 167 444 236 q 447 28 447 99 q 432 -33 444 -3 q 399 -82 419 -62 q 349 -107 378 -101 q 285 -96 319 -112 q 248 -77 269 -87 q 212 -55 226 -67 q 194 -31 197 -43 q 210 -8 190 -19 q 258 54 251 15 q 265 142 265 93 q 263 250 263 189 q 266 378 264 311 q 273 517 268 446 q 283 656 278 589 q 295 784 289 724 q 310 890 301 844 m 526 1051 q 470 1051 500 1044 q 412 1076 440 1058 q 359 1121 383 1094 q 321 1181 335 1147 q 366 1187 344 1192 q 406 1167 388 1182 q 467 1115 438 1142 q 525 1061 496 1089 q 526 1051 526 1060 z "},"":{"ha":524,"x_min":-3,"x_max":542,"o":"m 310 890 q 227 796 265 856 q 165 669 189 736 q 137 535 142 601 q 156 422 132 469 q 131 409 142 407 q 110 419 119 411 q 65 458 86 439 q 24 501 43 478 q -1 560 0 528 q 4 624 -3 592 q 21 668 11 646 q 42 710 31 690 q 310 985 149 878 q 355 1004 333 1001 q 406 983 376 1007 q 453 953 428 967 q 501 919 478 939 q 519 894 515 907 q 517 861 524 881 q 457 588 474 725 q 443 307 440 450 q 446 167 444 236 q 447 28 447 99 q 432 -33 444 -3 q 399 -82 419 -62 q 349 -107 378 -101 q 285 -96 319 -112 q 248 -77 269 -87 q 212 -55 226 -67 q 194 -31 197 -43 q 210 -8 190 -19 q 258 54 251 15 q 265 142 265 93 q 263 250 263 189 q 266 378 264 311 q 273 517 268 446 q 283 656 278 589 q 295 784 289 724 q 310 890 301 844 m 542 1204 q 508 1153 525 1178 q 476 1104 492 1128 q 453 1075 463 1085 q 432 1063 443 1065 q 406 1063 421 1060 q 367 1074 390 1065 q 382 1108 371 1088 q 408 1149 393 1128 q 438 1188 422 1169 q 464 1213 453 1206 q 542 1204 499 1236 z "},"":{"ha":524,"x_min":-3,"x_max":529,"o":"m 310 890 q 227 796 265 856 q 165 669 189 736 q 137 535 142 601 q 156 422 132 469 q 131 409 142 407 q 110 419 119 411 q 65 458 86 439 q 24 501 43 478 q -1 560 0 528 q 4 624 -3 592 q 21 668 11 646 q 42 710 31 690 q 310 985 149 878 q 355 1004 333 1001 q 406 983 376 1007 q 453 953 428 967 q 501 919 478 939 q 519 894 515 907 q 517 861 524 881 q 457 588 474 725 q 443 307 440 450 q 446 167 444 236 q 447 28 447 99 q 432 -33 444 -3 q 399 -82 419 -62 q 349 -107 378 -101 q 285 -96 319 -112 q 248 -77 269 -87 q 212 -55 226 -67 q 194 -31 197 -43 q 210 -8 190 -19 q 258 54 251 15 q 265 142 265 93 q 263 250 263 189 q 266 378 264 311 q 273 517 268 446 q 283 656 278 589 q 295 784 289 724 q 310 890 301 844 m 343 1081 q 381 1160 360 1122 q 433 1229 401 1197 q 457 1240 443 1239 q 484 1238 471 1242 q 507 1224 497 1233 q 519 1201 517 1214 q 525 1132 524 1167 q 529 1063 526 1097 q 471 1071 489 1053 q 446 1121 453 1089 q 417 1087 428 1099 q 397 1071 407 1075 q 376 1070 388 1067 q 343 1081 364 1074 z "},"":{"ha":524,"x_min":-3,"x_max":529,"o":"m 310 890 q 227 796 265 856 q 165 669 189 736 q 137 535 142 601 q 156 422 132 469 q 131 409 142 407 q 110 419 119 411 q 65 458 86 439 q 24 501 43 478 q -1 560 0 528 q 4 624 -3 592 q 21 668 11 646 q 42 710 31 690 q 310 985 149 878 q 355 1004 333 1001 q 406 983 376 1007 q 453 953 428 967 q 501 919 478 939 q 519 894 515 907 q 517 861 524 881 q 457 588 474 725 q 443 307 440 450 q 446 167 444 236 q 447 28 447 99 q 432 -33 444 -3 q 399 -82 419 -62 q 349 -107 378 -101 q 285 -96 319 -112 q 248 -77 269 -87 q 212 -55 226 -67 q 194 -31 197 -43 q 210 -8 190 -19 q 258 54 251 15 q 265 142 265 93 q 263 250 263 189 q 266 378 264 311 q 273 517 268 446 q 283 656 278 589 q 295 784 289 724 q 310 890 301 844 m 418 1110 q 406 1079 418 1092 q 375 1067 393 1067 q 343 1079 356 1067 q 331 1110 331 1092 q 343 1142 331 1129 q 375 1154 356 1154 q 406 1142 393 1154 q 418 1110 418 1129 m 529 1110 q 516 1079 529 1092 q 485 1067 503 1067 q 453 1079 465 1067 q 440 1110 440 1092 q 453 1142 440 1129 q 485 1154 465 1154 q 516 1142 503 1154 q 529 1110 529 1129 z "},"":{"ha":1013,"x_min":-15,"x_max":1051,"o":"m 292 786 q 222 701 260 746 q 154 606 185 656 q 106 503 124 556 q 93 400 88 451 q 91 398 94 400 q 85 397 88 396 q 28 431 51 410 q -5 480 6 453 q -12 538 -15 507 q 8 600 -10 568 q 29 635 18 618 q 56 667 40 653 q 233 840 144 754 q 411 1014 321 926 q 474 1022 438 1035 q 542 985 511 1010 q 590 935 574 961 q 589 903 606 910 q 547 893 561 908 q 521 856 533 878 q 472 740 489 800 q 451 614 456 679 q 508 703 476 656 q 576 795 540 750 q 652 879 613 840 q 733 942 692 918 q 792 953 764 958 q 846 924 821 947 q 912 835 889 883 q 936 726 935 786 q 929 565 939 644 q 900 406 919 485 q 893 376 897 394 q 886 342 889 358 q 950 344 918 344 q 1005 338 982 344 q 1040 316 1028 332 q 1043 272 1051 300 q 987 277 1018 274 q 925 278 956 281 q 871 265 894 276 q 838 226 847 253 q 781 110 814 164 q 700 8 747 56 q 529 -81 628 -64 q 375 -56 444 -92 q 260 63 306 -21 q 286 90 274 76 q 313 121 299 104 q 309 126 310 124 q 307 129 308 128 q 258 162 272 138 q 246 218 244 186 l 249 374 q 219 383 238 374 q 190 402 200 392 q 183 422 179 413 q 222 433 188 432 q 237 434 229 433 q 251 435 244 435 q 263 606 254 521 q 292 786 272 692 m 510 375 q 476 374 493 374 q 443 374 460 374 q 417 303 429 339 q 396 231 406 267 q 390 201 393 217 q 385 164 388 186 q 544 249 465 214 q 706 308 622 283 q 732 327 725 314 q 746 356 739 340 q 838 714 819 529 q 839 792 842 760 q 822 838 836 825 q 783 840 808 850 q 719 790 758 829 q 583 626 644 711 q 476 447 522 542 q 543 436 518 446 q 589 401 568 426 q 589 387 596 392 q 569 379 582 382 q 539 376 556 376 q 510 375 522 375 m 346 40 q 432 56 388 42 q 517 94 476 71 q 588 148 557 118 q 632 207 619 178 q 485 136 554 175 q 346 40 417 97 z "},"":{"ha":1032,"x_min":-7,"x_max":1110,"o":"m 1036 299 q 1062 290 1051 293 q 1082 282 1072 286 q 1101 244 1110 271 q 1067 111 1086 176 q 1010 -12 1049 46 q 990 -37 1001 -25 q 965 -60 979 -50 q 937 -76 951 -69 q 908 -81 922 -82 q 808 -48 851 -74 q 740 38 764 -22 q 712 163 717 100 q 714 292 707 226 q 753 511 725 404 q 818 725 781 618 q 828 751 822 736 q 834 774 833 765 q 828 783 835 783 q 804 764 822 782 q 695 624 743 699 q 608 471 647 550 q 537 309 568 392 q 478 143 506 226 q 455 80 467 111 q 432 17 443 49 q 412 -13 421 -8 q 375 -11 403 -18 q 362 -8 368 -10 q 349 -6 356 -7 q 291 23 311 1 q 263 82 271 44 q 236 443 224 263 q 293 808 249 624 q 222 738 256 786 q 166 633 189 690 q 132 515 143 575 q 128 410 121 456 q 117 383 133 381 q 78 402 101 385 q 35 442 56 419 q 10 476 14 465 q -3 566 -7 524 q 17 645 0 608 q 63 714 35 682 q 124 772 90 746 q 237 878 183 824 q 336 997 290 933 q 353 1020 346 1013 q 368 1028 361 1028 q 385 1025 375 1029 q 411 1011 394 1021 q 468 979 439 996 q 524 943 497 963 q 550 917 550 926 q 532 881 550 907 q 497 808 513 847 q 449 644 467 726 q 425 474 431 561 q 424 399 422 438 q 425 321 425 361 q 433 335 429 328 q 440 351 438 343 q 510 499 476 425 q 582 644 544 572 q 675 787 622 722 q 794 901 728 851 q 837 929 819 919 q 869 939 854 939 q 903 931 885 939 q 947 906 921 922 q 997 853 983 883 q 1003 783 1010 824 q 992 720 999 751 q 978 657 985 689 q 931 426 954 540 q 885 193 907 311 q 878 150 882 176 q 872 96 874 124 q 869 43 869 68 q 872 4 868 18 q 888 -12 876 -15 q 913 7 899 -8 q 940 44 926 22 q 961 88 953 67 q 990 164 976 125 q 1018 243 1004 203 q 1026 268 1022 254 q 1036 299 1031 282 m 800 1192 q 833 1183 821 1188 q 851 1172 846 1179 q 858 1153 857 1165 q 857 1122 858 1142 q 844 1078 853 1100 q 820 1042 835 1057 q 785 1019 806 1026 q 739 1021 764 1013 q 701 1046 714 1029 q 660 1074 688 1063 q 644 1044 653 1063 q 621 1026 636 1026 q 571 1054 578 1038 q 588 1108 564 1071 q 597 1123 592 1115 q 608 1138 603 1131 q 677 1167 640 1174 q 731 1115 714 1160 q 742 1088 735 1103 q 743 1085 742 1085 q 746 1082 744 1085 q 758 1092 754 1088 q 768 1106 763 1096 q 781 1136 774 1117 q 800 1192 788 1156 z "},"":{"ha":846,"x_min":-11,"x_max":822,"o":"m 622 904 q 715 782 685 858 q 748 614 744 706 q 733 424 751 522 q 683 238 715 326 q 752 267 721 251 q 799 294 783 282 q 821 249 822 268 q 803 214 819 229 q 725 163 767 182 q 639 132 683 144 q 584 41 613 81 q 526 -24 556 1 q 446 -65 486 -57 q 357 -54 406 -72 q 161 182 196 11 q 147 217 158 204 q 121 243 135 231 q 38 356 68 293 q -1 486 8 418 q 1 624 -11 554 q 43 756 13 693 q 123 874 74 819 q 239 964 172 928 q 367 1005 303 1000 q 496 979 432 1010 q 560 946 529 964 q 622 904 590 928 m 157 392 q 165 449 158 415 q 181 519 171 483 q 205 588 190 554 q 239 644 219 622 q 283 674 258 667 q 339 664 308 681 q 414 622 378 644 q 439 596 436 607 q 432 557 442 585 q 405 483 419 521 q 378 408 390 446 q 356 330 365 369 q 346 249 347 290 q 374 217 354 232 q 421 195 393 203 q 483 188 449 188 q 556 201 518 189 q 601 330 581 263 q 631 466 621 397 q 642 603 642 535 q 626 735 642 671 q 608 789 619 760 q 579 843 596 818 q 540 884 563 868 q 490 899 518 900 q 342 846 411 896 q 226 721 274 796 q 159 558 179 646 q 157 392 139 471 m 368 1 q 406 10 385 0 q 447 38 426 21 q 485 77 467 56 q 517 121 504 99 q 448 122 479 114 q 394 140 417 129 q 355 162 371 151 q 333 172 339 172 q 330 126 329 156 q 335 68 331 96 q 347 20 339 40 q 368 1 356 0 m 640 1051 q 584 1051 614 1044 q 526 1076 554 1058 q 473 1121 497 1094 q 435 1181 449 1147 q 480 1187 458 1192 q 519 1167 501 1182 q 581 1115 551 1142 q 639 1061 610 1089 q 640 1051 640 1060 z "},"":{"ha":846,"x_min":-11,"x_max":822,"o":"m 622 904 q 715 782 685 858 q 748 614 744 706 q 733 424 751 522 q 683 238 715 326 q 752 267 721 251 q 799 294 783 282 q 821 249 822 268 q 803 214 819 229 q 725 163 767 182 q 639 132 683 144 q 584 41 613 81 q 526 -24 556 1 q 446 -65 486 -57 q 357 -54 406 -72 q 161 182 196 11 q 147 217 158 204 q 121 243 135 231 q 38 356 68 293 q -1 486 8 418 q 1 624 -11 554 q 43 756 13 693 q 123 874 74 819 q 239 964 172 928 q 367 1005 303 1000 q 496 979 432 1010 q 560 946 529 964 q 622 904 590 928 m 157 392 q 165 449 158 415 q 181 519 171 483 q 205 588 190 554 q 239 644 219 622 q 283 674 258 667 q 339 664 308 681 q 414 622 378 644 q 439 596 436 607 q 432 557 442 585 q 405 483 419 521 q 378 408 390 446 q 356 330 365 369 q 346 249 347 290 q 374 217 354 232 q 421 195 393 203 q 483 188 449 188 q 556 201 518 189 q 601 330 581 263 q 631 466 621 397 q 642 603 642 535 q 626 735 642 671 q 608 789 619 760 q 579 843 596 818 q 540 884 563 868 q 490 899 518 900 q 342 846 411 896 q 226 721 274 796 q 159 558 179 646 q 157 392 139 471 m 368 1 q 406 10 385 0 q 447 38 426 21 q 485 77 467 56 q 517 121 504 99 q 448 122 479 114 q 394 140 417 129 q 355 162 371 151 q 333 172 339 172 q 330 126 329 156 q 335 68 331 96 q 347 20 339 40 q 368 1 356 0 m 656 1204 q 622 1153 639 1178 q 590 1104 606 1128 q 567 1075 576 1085 q 546 1063 557 1065 q 519 1063 535 1060 q 481 1074 504 1065 q 496 1108 485 1088 q 522 1149 507 1128 q 551 1188 536 1169 q 578 1213 567 1206 q 656 1204 613 1236 z "},"":{"ha":846,"x_min":-11,"x_max":822,"o":"m 622 904 q 715 782 685 858 q 748 614 744 706 q 733 424 751 522 q 683 238 715 326 q 752 267 721 251 q 799 294 783 282 q 821 249 822 268 q 803 214 819 229 q 725 163 767 182 q 639 132 683 144 q 584 41 613 81 q 526 -24 556 1 q 446 -65 486 -57 q 357 -54 406 -72 q 161 182 196 11 q 147 217 158 204 q 121 243 135 231 q 38 356 68 293 q -1 486 8 418 q 1 624 -11 554 q 43 756 13 693 q 123 874 74 819 q 239 964 172 928 q 367 1005 303 1000 q 496 979 432 1010 q 560 946 529 964 q 622 904 590 928 m 157 392 q 165 449 158 415 q 181 519 171 483 q 205 588 190 554 q 239 644 219 622 q 283 674 258 667 q 339 664 308 681 q 414 622 378 644 q 439 596 436 607 q 432 557 442 585 q 405 483 419 521 q 378 408 390 446 q 356 330 365 369 q 346 249 347 290 q 374 217 354 232 q 421 195 393 203 q 483 188 449 188 q 556 201 518 189 q 601 330 581 263 q 631 466 621 397 q 642 603 642 535 q 626 735 642 671 q 608 789 619 760 q 579 843 596 818 q 540 884 563 868 q 490 899 518 900 q 342 846 411 896 q 226 721 274 796 q 159 558 179 646 q 157 392 139 471 m 368 1 q 406 10 385 0 q 447 38 426 21 q 485 77 467 56 q 517 121 504 99 q 448 122 479 114 q 394 140 417 129 q 355 162 371 151 q 333 172 339 172 q 330 126 329 156 q 335 68 331 96 q 347 20 339 40 q 368 1 356 0 m 457 1071 q 494 1150 474 1113 q 547 1219 515 1188 q 571 1231 557 1229 q 598 1228 585 1232 q 621 1214 611 1224 q 633 1192 631 1204 q 639 1122 638 1157 q 643 1053 640 1088 q 585 1061 603 1043 q 560 1111 567 1079 q 531 1077 542 1089 q 511 1061 521 1065 q 490 1060 501 1057 q 457 1071 478 1064 z "},"":{"ha":846,"x_min":-11,"x_max":822,"o":"m 622 904 q 715 782 685 858 q 748 614 744 706 q 733 424 751 522 q 683 238 715 326 q 752 267 721 251 q 799 294 783 282 q 821 249 822 268 q 803 214 819 229 q 725 163 767 182 q 639 132 683 144 q 584 41 613 81 q 526 -24 556 1 q 446 -65 486 -57 q 357 -54 406 -72 q 161 182 196 11 q 147 217 158 204 q 121 243 135 231 q 38 356 68 293 q -1 486 8 418 q 1 624 -11 554 q 43 756 13 693 q 123 874 74 819 q 239 964 172 928 q 367 1005 303 1000 q 496 979 432 1010 q 560 946 529 964 q 622 904 590 928 m 157 392 q 165 449 158 415 q 181 519 171 483 q 205 588 190 554 q 239 644 219 622 q 283 674 258 667 q 339 664 308 681 q 414 622 378 644 q 439 596 436 607 q 432 557 442 585 q 405 483 419 521 q 378 408 390 446 q 356 330 365 369 q 346 249 347 290 q 374 217 354 232 q 421 195 393 203 q 483 188 449 188 q 556 201 518 189 q 601 330 581 263 q 631 466 621 397 q 642 603 642 535 q 626 735 642 671 q 608 789 619 760 q 579 843 596 818 q 540 884 563 868 q 490 899 518 900 q 342 846 411 896 q 226 721 274 796 q 159 558 179 646 q 157 392 139 471 m 368 1 q 406 10 385 0 q 447 38 426 21 q 485 77 467 56 q 517 121 504 99 q 448 122 479 114 q 394 140 417 129 q 355 162 371 151 q 333 172 339 172 q 330 126 329 156 q 335 68 331 96 q 347 20 339 40 q 368 1 356 0 m 628 1231 q 661 1222 649 1226 q 679 1211 674 1218 q 685 1192 685 1204 q 685 1161 686 1181 q 672 1117 681 1139 q 648 1081 663 1096 q 613 1058 633 1065 q 567 1060 592 1051 q 528 1085 542 1068 q 488 1113 515 1101 q 472 1083 481 1101 q 449 1065 464 1065 q 399 1093 406 1076 q 415 1147 392 1110 q 425 1162 419 1154 q 436 1176 431 1169 q 505 1206 468 1213 q 558 1154 542 1199 q 569 1126 563 1142 q 571 1124 569 1124 q 574 1121 572 1124 q 586 1131 582 1126 q 596 1145 590 1135 q 608 1175 601 1156 q 628 1231 615 1194 z "},"":{"ha":846,"x_min":-11,"x_max":822,"o":"m 622 904 q 715 782 685 858 q 748 614 744 706 q 733 424 751 522 q 683 238 715 326 q 752 267 721 251 q 799 294 783 282 q 821 249 822 268 q 803 214 819 229 q 725 163 767 182 q 639 132 683 144 q 584 41 613 81 q 526 -24 556 1 q 446 -65 486 -57 q 357 -54 406 -72 q 161 182 196 11 q 147 217 158 204 q 121 243 135 231 q 38 356 68 293 q -1 486 8 418 q 1 624 -11 554 q 43 756 13 693 q 123 874 74 819 q 239 964 172 928 q 367 1005 303 1000 q 496 979 432 1010 q 560 946 529 964 q 622 904 590 928 m 157 392 q 165 449 158 415 q 181 519 171 483 q 205 588 190 554 q 239 644 219 622 q 283 674 258 667 q 339 664 308 681 q 414 622 378 644 q 439 596 436 607 q 432 557 442 585 q 405 483 419 521 q 378 408 390 446 q 356 330 365 369 q 346 249 347 290 q 374 217 354 232 q 421 195 393 203 q 483 188 449 188 q 556 201 518 189 q 601 330 581 263 q 631 466 621 397 q 642 603 642 535 q 626 735 642 671 q 608 789 619 760 q 579 843 596 818 q 540 884 563 868 q 490 899 518 900 q 342 846 411 896 q 226 721 274 796 q 159 558 179 646 q 157 392 139 471 m 368 1 q 406 10 385 0 q 447 38 426 21 q 485 77 467 56 q 517 121 504 99 q 448 122 479 114 q 394 140 417 129 q 355 162 371 151 q 333 172 339 172 q 330 126 329 156 q 335 68 331 96 q 347 20 339 40 q 368 1 356 0 m 519 1110 q 507 1079 519 1092 q 476 1067 494 1067 q 444 1079 457 1067 q 432 1110 432 1092 q 444 1142 432 1129 q 476 1154 457 1154 q 507 1142 494 1154 q 519 1110 519 1129 m 631 1110 q 617 1079 631 1092 q 586 1067 604 1067 q 554 1079 567 1067 q 542 1110 542 1092 q 554 1142 542 1129 q 586 1154 567 1154 q 617 1142 604 1154 q 631 1110 631 1129 z "},"":{"ha":1110,"x_min":-11,"x_max":1168,"o":"m 517 21 q 641 222 592 125 q 725 415 690 318 q 787 613 760 511 q 846 828 814 714 q 876 910 861 874 q 911 964 890 946 q 961 978 932 982 q 1035 938 990 974 q 1044 918 1042 931 q 1044 894 1046 906 q 1038 856 1042 875 q 1028 819 1033 838 q 958 472 978 647 q 922 119 938 296 q 921 -1 914 33 q 944 -30 928 -36 q 986 19 961 -24 q 1039 131 1011 61 q 1076 217 1057 175 q 1115 299 1094 258 q 1145 282 1133 289 q 1163 267 1157 275 q 1167 245 1168 258 q 1157 210 1165 232 q 1103 63 1131 135 q 1031 -74 1075 -8 q 982 -113 1004 -108 q 922 -106 960 -118 q 823 -41 858 -86 q 774 72 788 4 q 760 139 765 106 q 750 214 756 172 q 736 185 742 197 q 724 161 731 172 q 679 64 701 113 q 628 -28 657 15 q 569 -98 597 -74 q 513 -128 542 -122 q 449 -119 483 -133 q 372 -76 415 -106 q 279 31 308 -33 q 243 175 250 96 q 247 324 238 242 q 273 494 256 407 q 313 663 290 581 q 358 811 336 746 q 283 738 325 792 q 205 621 242 685 q 144 494 168 557 q 119 396 119 432 q 116 367 121 376 q 88 372 111 357 q 61 391 74 381 q 38 411 49 401 q -8 506 -11 453 q 28 616 -6 560 q 116 729 61 672 q 228 835 171 786 q 335 924 285 885 q 410 983 386 963 q 450 1000 428 1000 q 494 992 472 1000 q 535 969 515 983 q 569 946 554 956 q 586 882 600 921 q 469 540 521 711 q 406 188 418 368 q 403 140 404 169 q 405 78 403 110 q 413 19 407 46 q 433 -21 419 -8 q 466 -26 446 -33 q 517 21 486 -18 m 793 1029 q 737 1029 767 1022 q 678 1054 707 1036 q 626 1099 650 1072 q 588 1158 601 1125 q 633 1165 611 1169 q 672 1144 654 1160 q 733 1093 704 1119 q 792 1039 763 1067 q 793 1029 793 1038 z "},"":{"ha":1110,"x_min":-11,"x_max":1168,"o":"m 517 21 q 641 222 592 125 q 725 415 690 318 q 787 613 760 511 q 846 828 814 714 q 876 910 861 874 q 911 964 890 946 q 961 978 932 982 q 1035 938 990 974 q 1044 918 1042 931 q 1044 894 1046 906 q 1038 856 1042 875 q 1028 819 1033 838 q 958 472 978 647 q 922 119 938 296 q 921 -1 914 33 q 944 -30 928 -36 q 986 19 961 -24 q 1039 131 1011 61 q 1076 217 1057 175 q 1115 299 1094 258 q 1145 282 1133 289 q 1163 267 1157 275 q 1167 245 1168 258 q 1157 210 1165 232 q 1103 63 1131 135 q 1031 -74 1075 -8 q 982 -113 1004 -108 q 922 -106 960 -118 q 823 -41 858 -86 q 774 72 788 4 q 760 139 765 106 q 750 214 756 172 q 736 185 742 197 q 724 161 731 172 q 679 64 701 113 q 628 -28 657 15 q 569 -98 597 -74 q 513 -128 542 -122 q 449 -119 483 -133 q 372 -76 415 -106 q 279 31 308 -33 q 243 175 250 96 q 247 324 238 242 q 273 494 256 407 q 313 663 290 581 q 358 811 336 746 q 283 738 325 792 q 205 621 242 685 q 144 494 168 557 q 119 396 119 432 q 116 367 121 376 q 88 372 111 357 q 61 391 74 381 q 38 411 49 401 q -8 506 -11 453 q 28 616 -6 560 q 116 729 61 672 q 228 835 171 786 q 335 924 285 885 q 410 983 386 963 q 450 1000 428 1000 q 494 992 472 1000 q 535 969 515 983 q 569 946 554 956 q 586 882 600 921 q 469 540 521 711 q 406 188 418 368 q 403 140 404 169 q 405 78 403 110 q 413 19 407 46 q 433 -21 419 -8 q 466 -26 446 -33 q 517 21 486 -18 m 854 1157 q 821 1106 838 1131 q 789 1057 804 1081 q 765 1028 775 1038 q 744 1015 756 1018 q 718 1015 733 1013 q 679 1026 703 1018 q 694 1060 683 1040 q 720 1101 706 1081 q 750 1140 735 1122 q 776 1165 765 1158 q 854 1157 811 1189 z "},"":{"ha":1110,"x_min":-11,"x_max":1168,"o":"m 517 21 q 641 222 592 125 q 725 415 690 318 q 787 613 760 511 q 846 828 814 714 q 876 910 861 874 q 911 964 890 946 q 961 978 932 982 q 1035 938 990 974 q 1044 918 1042 931 q 1044 894 1046 906 q 1038 856 1042 875 q 1028 819 1033 838 q 958 472 978 647 q 922 119 938 296 q 921 -1 914 33 q 944 -30 928 -36 q 986 19 961 -24 q 1039 131 1011 61 q 1076 217 1057 175 q 1115 299 1094 258 q 1145 282 1133 289 q 1163 267 1157 275 q 1167 245 1168 258 q 1157 210 1165 232 q 1103 63 1131 135 q 1031 -74 1075 -8 q 982 -113 1004 -108 q 922 -106 960 -118 q 823 -41 858 -86 q 774 72 788 4 q 760 139 765 106 q 750 214 756 172 q 736 185 742 197 q 724 161 731 172 q 679 64 701 113 q 628 -28 657 15 q 569 -98 597 -74 q 513 -128 542 -122 q 449 -119 483 -133 q 372 -76 415 -106 q 279 31 308 -33 q 243 175 250 96 q 247 324 238 242 q 273 494 256 407 q 313 663 290 581 q 358 811 336 746 q 283 738 325 792 q 205 621 242 685 q 144 494 168 557 q 119 396 119 432 q 116 367 121 376 q 88 372 111 357 q 61 391 74 381 q 38 411 49 401 q -8 506 -11 453 q 28 616 -6 560 q 116 729 61 672 q 228 835 171 786 q 335 924 285 885 q 410 983 386 963 q 450 1000 428 1000 q 494 992 472 1000 q 535 969 515 983 q 569 946 554 956 q 586 882 600 921 q 469 540 521 711 q 406 188 418 368 q 403 140 404 169 q 405 78 403 110 q 413 19 407 46 q 433 -21 419 -8 q 466 -26 446 -33 q 517 21 486 -18 m 644 1044 q 682 1124 661 1086 q 735 1193 703 1161 q 758 1204 744 1203 q 785 1201 772 1206 q 808 1188 799 1197 q 821 1165 818 1178 q 826 1096 825 1131 q 831 1026 828 1061 q 772 1035 790 1017 q 747 1085 754 1053 q 719 1051 729 1063 q 699 1035 708 1039 q 677 1034 689 1031 q 644 1044 665 1038 z "},"":{"ha":1110,"x_min":-11,"x_max":1168,"o":"m 517 21 q 641 222 592 125 q 725 415 690 318 q 787 613 760 511 q 846 828 814 714 q 876 910 861 874 q 911 964 890 946 q 961 978 932 982 q 1035 938 990 974 q 1044 918 1042 931 q 1044 894 1046 906 q 1038 856 1042 875 q 1028 819 1033 838 q 958 472 978 647 q 922 119 938 296 q 921 -1 914 33 q 944 -30 928 -36 q 986 19 961 -24 q 1039 131 1011 61 q 1076 217 1057 175 q 1115 299 1094 258 q 1145 282 1133 289 q 1163 267 1157 275 q 1167 245 1168 258 q 1157 210 1165 232 q 1103 63 1131 135 q 1031 -74 1075 -8 q 982 -113 1004 -108 q 922 -106 960 -118 q 823 -41 858 -86 q 774 72 788 4 q 760 139 765 106 q 750 214 756 172 q 736 185 742 197 q 724 161 731 172 q 679 64 701 113 q 628 -28 657 15 q 569 -98 597 -74 q 513 -128 542 -122 q 449 -119 483 -133 q 372 -76 415 -106 q 279 31 308 -33 q 243 175 250 96 q 247 324 238 242 q 273 494 256 407 q 313 663 290 581 q 358 811 336 746 q 283 738 325 792 q 205 621 242 685 q 144 494 168 557 q 119 396 119 432 q 116 367 121 376 q 88 372 111 357 q 61 391 74 381 q 38 411 49 401 q -8 506 -11 453 q 28 616 -6 560 q 116 729 61 672 q 228 835 171 786 q 335 924 285 885 q 410 983 386 963 q 450 1000 428 1000 q 494 992 472 1000 q 535 969 515 983 q 569 946 554 956 q 586 882 600 921 q 469 540 521 711 q 406 188 418 368 q 403 140 404 169 q 405 78 403 110 q 413 19 407 46 q 433 -21 419 -8 q 466 -26 446 -33 q 517 21 486 -18 m 729 1060 q 717 1029 729 1042 q 686 1017 704 1017 q 654 1029 667 1017 q 642 1060 642 1042 q 654 1092 642 1079 q 686 1104 667 1104 q 717 1092 704 1104 q 729 1060 729 1079 m 840 1060 q 827 1029 840 1042 q 796 1017 814 1017 q 764 1029 776 1017 q 751 1060 751 1042 q 764 1092 751 1079 q 796 1104 776 1104 q 827 1092 814 1104 q 840 1060 840 1079 z "},"":{"ha":1050,"x_min":-7,"x_max":1082,"o":"m 314 856 q 247 777 283 831 q 180 662 211 724 q 128 539 149 600 q 111 436 108 478 q 108 406 113 417 q 85 407 103 396 q 19 481 40 440 q -5 565 -3 521 q 10 654 -7 608 q 63 743 28 700 q 202 894 128 825 q 357 1026 276 964 q 388 1039 374 1039 q 418 1024 403 1039 q 448 994 432 1008 q 479 965 464 979 q 504 941 496 950 q 515 924 513 932 q 511 903 517 915 q 496 872 506 892 q 415 691 450 783 q 361 499 381 599 q 356 403 349 432 q 384 371 364 374 q 433 386 404 368 q 493 432 463 404 q 551 490 524 460 q 596 543 578 521 q 705 693 653 617 q 810 846 757 769 q 823 879 819 861 q 833 914 826 897 q 849 949 840 932 q 881 967 857 967 q 965 940 940 968 q 993 869 990 911 q 992 738 997 813 q 975 580 986 663 q 949 414 964 497 q 919 258 933 331 q 956 263 935 261 q 997 269 976 265 q 1033 279 1017 272 q 1058 297 1050 286 q 1072 283 1065 292 q 1080 263 1078 274 q 1079 241 1082 251 q 1067 222 1076 231 q 1011 201 1043 203 q 950 194 979 199 q 909 185 926 190 q 886 164 892 179 q 808 9 860 81 q 690 -112 757 -62 q 542 -158 613 -169 q 411 -72 471 -147 q 377 38 371 -22 q 419 149 383 99 q 513 233 456 200 q 631 265 569 267 l 724 265 q 771 458 756 360 q 797 665 786 556 q 723 572 758 618 q 652 481 688 525 q 579 397 617 438 q 500 319 542 357 q 416 288 463 286 q 328 312 369 289 q 260 374 288 335 q 232 454 232 413 q 243 542 232 486 q 268 659 254 599 q 295 774 282 719 q 314 856 308 828 m 703 197 q 599 189 647 207 q 518 133 550 171 q 474 46 486 96 q 478 -58 461 -4 q 553 -15 521 -42 q 611 46 585 13 q 659 117 638 79 q 703 197 681 156 m 794 1146 q 761 1094 778 1119 q 729 1046 744 1069 q 706 1017 715 1026 q 685 1004 696 1007 q 658 1004 674 1001 q 619 1015 643 1007 q 635 1049 624 1029 q 660 1090 646 1069 q 690 1129 675 1111 q 717 1154 706 1147 q 794 1146 751 1178 z "},"":{"ha":1050,"x_min":-7,"x_max":1082,"o":"m 314 856 q 247 777 283 831 q 180 662 211 724 q 128 539 149 600 q 111 436 108 478 q 108 406 113 417 q 85 407 103 396 q 19 481 40 440 q -5 565 -3 521 q 10 654 -7 608 q 63 743 28 700 q 202 894 128 825 q 357 1026 276 964 q 388 1039 374 1039 q 418 1024 403 1039 q 448 994 432 1008 q 479 965 464 979 q 504 941 496 950 q 515 924 513 932 q 511 903 517 915 q 496 872 506 892 q 415 691 450 783 q 361 499 381 599 q 356 403 349 432 q 384 371 364 374 q 433 386 404 368 q 493 432 463 404 q 551 490 524 460 q 596 543 578 521 q 705 693 653 617 q 810 846 757 769 q 823 879 819 861 q 833 914 826 897 q 849 949 840 932 q 881 967 857 967 q 965 940 940 968 q 993 869 990 911 q 992 738 997 813 q 975 580 986 663 q 949 414 964 497 q 919 258 933 331 q 956 263 935 261 q 997 269 976 265 q 1033 279 1017 272 q 1058 297 1050 286 q 1072 283 1065 292 q 1080 263 1078 274 q 1079 241 1082 251 q 1067 222 1076 231 q 1011 201 1043 203 q 950 194 979 199 q 909 185 926 190 q 886 164 892 179 q 808 9 860 81 q 690 -112 757 -62 q 542 -158 613 -169 q 411 -72 471 -147 q 377 38 371 -22 q 419 149 383 99 q 513 233 456 200 q 631 265 569 267 l 724 265 q 771 458 756 360 q 797 665 786 556 q 723 572 758 618 q 652 481 688 525 q 579 397 617 438 q 500 319 542 357 q 416 288 463 286 q 328 312 369 289 q 260 374 288 335 q 232 454 232 413 q 243 542 232 486 q 268 659 254 599 q 295 774 282 719 q 314 856 308 828 m 703 197 q 599 189 647 207 q 518 133 550 171 q 474 46 486 96 q 478 -58 461 -4 q 553 -15 521 -42 q 611 46 585 13 q 659 117 638 79 q 703 197 681 156 m 672 1067 q 660 1036 672 1049 q 629 1024 647 1024 q 597 1036 610 1024 q 585 1067 585 1049 q 597 1099 585 1086 q 629 1111 610 1111 q 660 1099 647 1111 q 672 1067 672 1086 m 783 1067 q 770 1036 783 1049 q 739 1024 757 1024 q 707 1036 719 1024 q 694 1067 694 1049 q 707 1099 694 1086 q 739 1111 719 1111 q 770 1099 757 1111 q 783 1067 783 1086 z "},"":{"ha":290,"x_min":56,"x_max":242,"o":"m 242 1007 q 204 928 225 965 q 151 858 183 890 q 128 847 142 849 q 101 850 114 846 q 77 864 88 854 q 65 886 67 874 q 60 956 61 921 q 56 1025 58 990 q 114 1017 96 1035 q 139 967 132 999 q 167 1001 157 989 q 188 1017 178 1013 q 209 1017 197 1021 q 242 1007 221 1014 z "},"":{"ha":888,"x_min":-4,"x_max":913,"o":"m 897 289 q 912 238 913 257 q 903 208 911 219 q 874 181 892 193 q 835 159 856 169 q 792 142 814 149 q 754 131 771 135 q 710 109 729 122 q 675 68 692 96 q 479 -117 588 -60 q 222 -158 371 -174 q 174 -144 196 -157 q 134 -113 153 -132 q 100 -71 115 -94 q 71 -22 85 -47 q 65 8 61 -7 q 76 39 68 24 q 122 95 96 74 q 181 128 149 117 q 274 151 228 144 q 367 163 321 158 q 460 169 414 167 q 554 178 507 171 q 572 186 563 179 q 588 203 581 193 q 626 263 606 228 q 653 331 646 299 q 644 385 660 363 q 575 404 629 407 q 524 399 550 401 q 471 399 499 397 q 399 427 429 399 q 357 503 369 456 q 357 558 350 532 q 379 604 364 583 q 423 657 400 632 q 469 707 446 682 q 542 787 517 758 q 578 828 567 815 q 590 844 589 842 q 590 847 590 847 q 425 808 507 839 q 283 723 343 776 q 194 597 222 669 q 189 432 165 524 q 207 388 194 411 q 234 343 219 365 q 264 301 249 321 q 292 268 279 282 q 267 240 289 247 q 222 253 246 233 q 101 374 156 308 q 21 510 46 440 q 8 652 -4 581 q 85 790 19 724 q 184 871 131 838 q 294 924 238 904 q 439 967 365 951 q 589 968 513 982 q 660 923 638 957 q 699 840 683 889 q 699 806 704 824 q 685 773 694 789 q 663 743 675 757 q 640 719 650 729 q 553 638 596 675 q 475 558 510 601 q 458 538 468 549 q 444 517 449 526 q 444 503 440 508 q 469 501 449 499 q 503 508 486 504 q 539 514 521 511 q 626 503 586 519 q 694 452 667 486 q 735 369 721 418 q 744 263 749 321 q 744 245 744 254 q 743 222 743 236 q 824 249 778 231 q 897 289 869 267 m 419 68 q 323 78 371 79 q 240 65 275 76 q 185 33 204 53 q 178 -12 167 13 q 303 10 244 -15 q 419 68 361 36 m 632 1181 q 594 1101 615 1139 q 542 1032 574 1064 q 518 1021 532 1022 q 491 1024 504 1019 q 467 1038 478 1028 q 456 1060 457 1047 q 450 1129 451 1094 q 446 1199 449 1164 q 504 1190 486 1208 q 529 1140 522 1172 q 558 1174 547 1163 q 578 1190 568 1186 q 599 1191 588 1194 q 632 1181 611 1188 z "},"":{"ha":611,"x_min":-81,"x_max":658,"o":"m 135 288 q 78 331 106 310 q 28 376 51 351 q 7 428 7 400 q 25 479 7 456 q 65 526 43 503 q 111 567 88 549 q 217 619 160 603 q 336 631 274 635 q 413 601 385 628 q 460 533 442 574 q 465 493 469 514 q 449 454 461 472 q 401 399 429 426 q 356 346 374 371 q 356 305 340 324 q 396 266 371 286 q 447 222 421 246 q 476 167 472 199 q 565 213 529 179 q 617 288 600 246 q 633 283 622 288 q 651 269 643 278 q 658 246 658 260 q 646 214 658 232 q 579 144 618 175 q 488 100 540 114 q 415 -93 472 -11 q 271 -239 357 -175 q 242 -259 257 -250 q 210 -276 226 -268 q 119 -303 158 -300 q 49 -293 81 -306 q -10 -256 17 -281 q -67 -200 -37 -232 q -79 -167 -81 -185 q -74 -132 -78 -150 q -22 -40 -54 -81 q 50 32 10 0 q 182 98 113 78 q 326 128 251 118 q 369 137 349 133 q 413 144 390 140 q 410 197 422 176 q 374 233 397 218 q 293 299 328 264 q 273 338 274 319 q 290 382 272 356 q 324 420 306 401 q 361 458 342 439 q 392 499 378 478 q 404 550 406 519 q 332 555 368 563 q 263 528 296 547 q 203 481 229 508 q 163 424 176 453 q 146 369 147 397 q 174 315 144 340 q 167 283 179 293 q 135 288 154 274 m 4 -183 q 78 -182 38 -190 q 158 -156 118 -174 q 238 -111 199 -137 q 308 -53 276 -85 q 362 12 340 -22 q 390 79 383 46 q 261 57 325 72 q 139 7 197 42 q 35 -90 74 -31 q 11 -135 21 -112 q 4 -183 1 -157 m 443 856 q 406 776 426 814 q 353 707 385 739 q 329 696 343 697 q 302 699 315 694 q 278 713 289 703 q 267 735 268 722 q 261 804 263 769 q 257 874 260 839 q 315 865 297 883 q 340 815 333 847 q 369 849 358 838 q 389 865 379 861 q 410 866 399 869 q 443 856 422 863 z "},"":{"ha":738,"x_min":-4,"x_max":771,"o":"m 428 464 q 516 380 472 425 q 606 294 560 335 q 627 299 614 296 q 656 305 640 301 q 688 310 672 308 q 718 313 704 313 q 745 310 736 313 q 758 302 754 308 q 765 285 763 296 q 771 254 767 274 q 696 246 735 251 q 615 226 657 240 q 613 205 614 215 q 611 182 613 194 q 543 -17 600 69 q 393 -156 486 -104 q 283 -156 336 -183 q 212 -110 247 -133 q 144 -61 176 -87 q 108 -1 108 -31 q 143 64 108 28 q 274 167 204 124 q 421 243 344 210 q 465 274 454 258 q 470 304 475 289 q 449 333 465 319 q 413 359 433 347 q 373 380 393 371 q 340 393 353 389 q 315 389 326 397 q 246 346 285 369 q 172 294 207 322 q 113 233 138 267 q 89 160 89 200 q 24 183 46 165 q -1 226 3 201 q 10 278 -4 251 q 50 329 24 306 q 142 400 94 369 q 236 463 189 431 q 208 505 215 483 q 203 548 201 526 q 215 591 206 569 q 235 635 224 613 q 335 799 278 722 q 464 943 393 875 q 533 980 503 979 q 603 949 563 981 q 682 876 647 915 q 708 831 706 853 q 693 778 710 808 q 572 611 640 692 q 428 464 503 531 m 553 813 q 476 739 513 779 q 415 659 440 699 q 378 584 389 619 q 379 526 368 549 q 492 628 439 571 q 574 733 544 686 q 603 806 604 781 q 553 813 601 831 m 444 186 q 403 167 428 182 q 353 133 379 153 q 302 91 328 114 q 256 47 276 68 q 225 1 235 24 q 219 -32 215 -21 q 242 -40 224 -43 q 296 -7 261 -36 q 369 74 331 24 q 444 186 408 124 m 619 1218 q 582 1139 603 1176 q 529 1069 561 1101 q 506 1058 519 1060 q 478 1061 492 1057 q 455 1075 465 1065 q 443 1097 444 1085 q 438 1167 439 1132 q 433 1236 436 1201 q 492 1228 474 1246 q 517 1178 510 1210 q 545 1212 535 1200 q 565 1228 556 1224 q 587 1228 575 1232 q 619 1218 599 1225 z "},"":{"ha":368,"x_min":-29,"x_max":403,"o":"m 299 69 q 229 -8 275 21 q 131 -24 183 -36 q 97 -8 118 -21 q 64 10 76 6 q 21 47 31 25 q 22 101 11 68 q 48 149 28 128 q 94 186 68 171 q 148 210 119 201 q 200 217 176 218 q 185 261 204 250 q 140 272 167 272 q 85 266 113 272 q 46 257 58 260 q 4 265 21 250 q -21 308 -12 281 q -28 369 -29 335 q -17 435 -28 403 q 16 494 -7 465 q 67 547 39 524 q 127 587 96 571 q 186 608 158 603 q 235 604 214 613 q 263 571 256 596 q 269 526 268 550 q 265 484 269 503 q 251 456 260 465 q 231 457 242 447 q 195 462 218 467 q 147 444 172 457 q 99 413 122 431 q 67 382 76 396 q 46 340 46 353 q 56 325 46 328 q 83 325 67 322 q 114 329 100 328 q 230 308 181 336 q 303 231 279 279 q 344 255 325 242 q 369 283 363 268 q 393 269 383 275 q 394 244 403 263 q 363 210 385 225 q 317 188 340 196 q 299 69 328 128 m 85 56 q 169 100 136 69 q 204 183 201 131 q 158 174 183 183 q 113 149 132 165 q 83 108 93 132 q 85 56 74 85 m 272 821 q 235 742 256 779 q 182 672 214 704 q 158 661 172 663 q 131 664 144 660 q 108 678 118 668 q 96 700 97 688 q 90 769 92 735 q 86 839 89 804 q 144 831 126 849 q 169 781 163 813 q 198 815 188 803 q 218 831 208 826 q 240 831 228 835 q 272 821 251 828 z "},"":{"ha":1154,"x_min":-7,"x_max":1215,"o":"m 928 1007 q 1000 1022 963 1022 q 1038 1019 1018 1022 q 1069 1006 1058 1017 q 1124 944 1099 976 q 1172 879 1149 913 q 1172 846 1182 865 q 1144 807 1163 826 q 1107 772 1126 788 q 1079 750 1088 756 q 887 631 983 681 q 690 539 790 581 l 694 531 q 788 547 743 538 q 879 568 833 556 q 908 574 897 572 q 928 572 919 575 q 943 560 936 569 q 961 535 950 551 q 966 526 964 531 q 972 511 968 521 q 953 496 963 504 q 932 481 943 488 q 865 434 900 457 q 799 386 831 411 q 721 305 757 353 q 663 207 685 257 q 635 112 640 157 q 649 38 629 67 q 718 5 669 10 q 851 32 767 0 q 1001 134 922 57 q 1163 311 1081 211 q 1175 301 1169 306 q 1185 292 1181 296 q 1206 269 1199 278 q 1215 251 1214 260 q 1209 233 1215 243 q 1190 208 1203 224 q 1074 78 1133 140 q 935 -28 1014 17 q 841 -68 890 -56 q 739 -69 792 -81 q 667 -38 706 -62 q 596 19 629 -14 q 537 90 563 53 q 503 158 511 126 q 498 189 500 171 q 495 227 496 207 q 495 268 494 247 q 499 307 496 289 q 422 273 461 293 q 345 230 382 253 q 276 183 308 207 q 218 133 243 158 q 201 103 208 122 q 190 63 194 85 q 181 21 185 42 q 176 -14 178 0 q 132 -9 153 -14 q 100 13 111 -4 q 81 55 89 32 q 88 100 74 78 q 138 220 121 158 q 178 342 154 282 q 269 556 221 451 q 379 761 317 661 q 401 792 386 774 q 427 829 415 811 q 444 858 439 847 q 440 864 450 868 q 374 822 413 850 q 296 758 336 794 q 217 678 256 721 q 152 593 179 635 q 113 513 125 551 q 111 446 100 474 q 113 431 115 435 q 106 426 111 426 q 93 428 100 426 q 82 433 86 431 q 17 501 42 457 q 1 586 -7 544 q 99 767 22 690 q 161 824 129 796 q 229 875 193 853 q 364 952 296 915 q 500 1025 432 989 q 554 1042 524 1038 q 574 1041 563 1043 q 588 1033 585 1039 q 629 994 604 1007 q 678 967 654 982 q 735 888 729 939 q 825 953 776 924 q 928 1007 874 982 m 589 828 q 578 831 581 831 q 399 569 474 707 q 265 276 324 431 q 379 321 324 301 q 499 353 435 340 l 589 828 m 740 631 q 775 643 750 632 q 833 671 800 654 q 903 708 865 688 q 974 749 940 728 q 1034 790 1007 769 q 1074 826 1061 810 q 1081 848 1081 835 q 1077 874 1082 861 q 1063 895 1072 886 q 1038 906 1053 904 q 983 885 1015 903 q 904 832 950 868 q 867 796 889 819 q 821 744 844 772 q 776 686 797 717 q 740 631 754 656 m 715 460 l 663 453 l 649 393 l 715 460 z "},"":{"ha":1217,"x_min":0,"x_max":1278,"o":"m 990 1007 q 1063 1022 1025 1022 q 1101 1019 1081 1022 q 1132 1006 1121 1017 q 1186 944 1161 976 q 1235 879 1211 913 q 1235 846 1244 865 q 1207 807 1225 826 q 1169 772 1189 788 q 1142 750 1150 756 q 949 631 1046 681 q 753 539 853 581 l 753 538 l 757 531 q 851 547 806 538 q 942 568 896 556 q 971 574 960 572 q 990 572 982 575 q 1006 560 999 569 q 1024 535 1013 551 q 1028 526 1026 531 q 1035 511 1031 521 q 1015 496 1025 504 q 994 481 1006 488 q 928 434 963 457 q 861 386 893 411 q 783 305 819 353 q 725 207 747 257 q 697 112 703 157 q 712 38 692 67 q 781 5 732 10 q 914 32 829 0 q 1064 134 985 57 q 1225 311 1143 211 q 1238 301 1232 306 q 1247 292 1243 296 q 1269 269 1261 278 q 1277 251 1276 260 q 1272 233 1278 243 q 1253 208 1265 224 q 1136 78 1196 140 q 997 -28 1076 17 q 903 -68 953 -56 q 801 -69 854 -81 q 746 -48 775 -64 q 689 -9 717 -32 q 636 41 661 14 q 593 96 611 68 q 528 22 565 60 q 461 -36 492 -17 q 376 -66 417 -64 q 290 -44 335 -68 q 125 214 138 40 q 115 251 125 236 q 92 279 104 265 q 24 401 46 335 q 1 536 1 468 q 19 672 0 604 q 77 799 39 739 q 172 906 115 858 q 299 981 228 953 q 431 1005 367 1008 q 556 964 496 1001 q 616 922 588 944 q 672 874 644 900 q 699 842 688 858 q 721 807 711 825 q 841 921 772 872 q 990 1007 910 969 m 146 422 q 162 452 156 440 q 172 475 168 464 q 285 654 214 572 q 323 682 308 678 q 361 669 338 686 q 397 646 379 658 q 431 619 414 633 q 452 590 450 601 q 440 553 454 579 q 404 481 422 517 q 369 410 386 446 q 327 275 328 322 q 352 213 326 228 q 421 215 378 199 q 508 270 464 231 q 590 370 551 310 q 643 506 628 431 q 654 704 664 608 q 642 761 650 731 q 622 818 635 792 q 588 863 608 844 q 540 885 568 882 q 400 856 467 892 q 250 735 308 808 q 160 567 192 663 q 144 500 149 535 q 146 422 139 465 m 803 631 q 838 643 813 632 q 895 671 863 654 q 965 708 928 688 q 1036 749 1003 728 q 1097 790 1069 769 q 1136 826 1124 810 q 1144 848 1143 835 q 1140 874 1144 861 q 1125 895 1135 886 q 1100 906 1115 904 q 1045 885 1078 903 q 967 832 1013 868 q 929 796 951 819 q 883 744 907 772 q 838 686 860 717 q 803 631 817 656 m 433 56 q 478 113 454 75 q 529 214 501 150 q 453 171 493 185 q 380 151 414 157 q 324 144 346 144 q 301 140 301 143 q 303 81 294 108 q 331 40 313 54 q 377 26 350 25 q 433 56 404 28 z "},"":{"ha":847,"x_min":3,"x_max":882,"o":"m 685 863 q 742 757 728 817 q 758 633 756 697 q 700 306 765 464 q 692 287 697 299 q 680 263 686 275 q 668 238 674 250 q 661 221 663 226 q 702 229 676 222 q 755 246 728 236 q 808 268 782 256 q 853 293 835 281 q 872 238 882 257 q 829 199 861 218 q 729 158 789 175 q 618 126 669 140 q 585 83 604 107 q 546 38 567 60 q 503 -4 525 15 q 464 -36 482 -24 q 381 -67 421 -64 q 299 -47 342 -69 q 297 -50 297 -47 q 280 -70 292 -64 q 258 -73 268 -76 q 242 -58 247 -69 q 243 -24 236 -46 q 246 -14 243 -19 q 128 214 138 68 q 117 251 128 236 q 94 279 107 265 q 26 401 49 335 q 3 536 4 468 q 22 672 3 604 q 80 799 42 739 q 174 906 118 858 q 301 981 231 953 q 434 1005 369 1008 q 558 964 499 1001 q 646 900 607 933 l 654 915 q 672 928 663 931 q 688 921 681 926 q 699 910 694 917 q 697 889 704 904 l 685 863 m 149 422 q 165 452 158 440 q 175 475 171 464 q 288 654 217 572 q 326 682 311 678 q 364 669 340 686 q 399 646 382 658 q 433 619 417 633 q 455 590 453 601 q 443 553 457 579 q 407 481 425 517 q 372 410 389 446 q 333 315 349 360 q 310 214 317 269 q 317 211 313 213 q 328 208 321 210 q 394 367 358 283 q 467 533 429 450 q 542 694 504 615 q 613 838 579 772 q 583 869 600 857 q 543 885 565 882 q 403 856 469 892 q 253 735 311 808 q 163 567 194 663 q 147 500 151 535 q 149 422 142 465 m 526 194 q 585 315 558 253 q 631 442 613 378 q 657 573 650 507 q 657 704 664 639 q 651 736 654 719 q 643 769 649 753 q 515 474 574 614 q 399 196 456 333 q 458 192 426 193 q 526 194 490 192 m 368 124 l 326 22 q 406 52 367 28 q 472 110 446 76 l 368 124 z "},"":{"ha":821,"x_min":-28,"x_max":939,"o":"m 289 525 q 192 489 240 510 q 110 438 144 468 q 64 366 76 407 q 72 269 51 325 q 76 250 75 260 q 74 235 76 240 q 67 232 72 231 q 51 246 61 233 q -13 355 1 306 q -17 443 -28 404 q 26 511 -6 482 q 99 561 57 540 q 190 594 142 582 q 285 613 239 607 q 317 626 300 615 q 349 656 333 638 q 420 745 389 701 q 483 832 451 789 q 552 915 515 875 q 640 992 589 954 q 693 1026 665 1011 q 751 1053 721 1042 q 865 1028 817 1081 q 872 1019 868 1022 q 879 1010 876 1015 q 916 969 901 989 q 935 926 931 949 q 930 875 939 903 q 894 813 921 847 q 824 737 861 768 q 742 681 786 706 q 646 637 697 657 q 536 596 594 617 q 519 586 529 593 q 498 569 508 579 q 478 550 488 560 q 465 533 469 540 q 394 364 424 450 q 368 182 365 278 q 381 90 369 129 q 414 30 392 51 q 469 8 436 8 q 547 33 501 7 q 628 86 588 53 q 707 158 669 119 q 777 237 744 197 q 833 308 810 276 q 873 282 863 296 q 881 252 883 268 q 867 217 879 236 q 840 178 856 199 q 726 51 792 110 q 583 -39 661 -8 q 499 -54 538 -58 l 488 -78 l 519 -90 q 543 -107 533 -97 q 551 -133 553 -117 q 538 -165 550 -150 q 510 -183 525 -181 q 419 -158 461 -192 q 417 -153 417 -156 q 414 -144 417 -150 q 432 -145 424 -143 q 449 -149 440 -147 q 465 -150 457 -151 q 481 -140 474 -149 q 494 -127 488 -133 q 503 -107 500 -121 q 483 -106 492 -106 q 465 -103 474 -106 q 434 -87 438 -96 q 442 -54 431 -79 l 447 -42 q 404 -18 425 -33 q 290 98 328 32 q 243 236 253 164 q 247 383 233 308 q 289 525 261 457 m 535 669 q 669 712 606 675 q 776 793 733 749 q 833 877 819 838 q 817 925 846 917 q 790 928 801 931 q 767 918 778 925 q 709 871 740 903 q 646 803 678 839 q 585 731 614 767 q 535 669 556 694 z "},"":{"ha":451,"x_min":-12,"x_max":504,"o":"m 299 515 q 244 478 268 506 q 203 413 221 451 q 175 331 186 375 q 157 245 164 288 q 149 165 150 203 q 149 101 147 126 q 149 92 149 97 q 150 85 150 88 q 168 37 156 53 q 197 18 181 21 q 233 23 214 15 q 275 46 253 31 q 333 97 306 67 q 384 162 361 128 q 425 231 407 196 q 456 297 443 265 q 488 276 478 286 q 501 258 499 267 q 503 243 504 250 q 499 229 501 236 q 462 153 486 199 q 401 65 438 107 q 319 -4 365 24 q 218 -28 272 -32 l 207 -53 l 239 -65 q 263 -82 253 -72 q 271 -108 272 -92 q 257 -140 269 -125 q 229 -158 244 -156 q 139 -133 181 -167 q 136 -128 136 -131 q 133 -119 136 -125 q 151 -120 143 -118 q 168 -124 160 -122 q 185 -125 176 -126 q 200 -115 193 -124 q 213 -102 207 -108 q 222 -82 219 -96 q 202 -81 211 -81 q 185 -78 193 -81 q 153 -62 157 -71 q 161 -29 150 -54 l 168 -15 q 44 71 89 13 q -8 214 -1 129 q -7 303 -12 253 q 13 405 -1 354 q 50 501 26 456 q 106 576 74 547 q 181 613 139 606 q 275 596 224 621 q 287 590 282 593 q 299 586 292 588 q 314 585 304 586 q 334 584 324 585 q 353 581 344 583 q 367 576 363 579 q 390 503 388 544 q 378 428 392 463 q 340 376 365 394 q 281 368 314 357 q 287 384 281 372 q 299 414 293 396 q 306 458 304 432 q 299 515 308 483 z "},"":{"ha":503,"x_min":-15,"x_max":521,"o":"m 386 485 q 403 465 396 475 q 418 444 411 456 q 436 371 432 421 q 433 263 440 321 q 473 272 453 265 q 504 286 493 279 q 516 263 511 279 q 506 231 521 246 q 460 200 488 213 q 418 182 432 188 q 377 75 403 124 q 313 1 351 26 q 243 -27 279 -22 q 171 -22 207 -32 l 146 -85 q 133 -99 142 -94 q 118 -101 125 -103 q 108 -90 111 -99 q 108 -67 104 -82 q 128 -7 114 -43 q 43 57 79 17 q 1 124 14 89 q -14 200 -12 160 q 6 370 -15 288 q 90 519 28 453 q 129 545 104 538 q 182 546 154 553 q 190 545 185 544 q 200 547 196 546 q 258 560 231 567 q 313 540 285 553 q 356 513 338 526 l 392 581 q 404 590 399 592 q 415 583 410 588 q 422 577 419 581 q 421 563 425 574 l 386 485 m 153 57 q 193 157 171 104 q 239 264 215 210 q 288 372 263 318 q 336 474 313 425 q 292 500 315 503 q 248 472 269 497 q 206 406 226 447 q 169 317 186 364 q 142 222 153 269 q 128 135 132 174 q 131 75 125 97 q 153 57 136 53 m 331 183 q 272 222 293 199 l 190 24 q 237 33 213 17 q 282 75 261 49 q 317 132 303 101 q 331 183 331 163 m 294 265 q 326 258 310 261 q 356 260 342 256 q 360 336 358 294 q 356 415 363 378 l 292 265 l 294 265 z "},"":{"ha":597,"x_min":-17,"x_max":649,"o":"m 232 39 q 136 -1 206 -17 q 37 53 76 13 q -7 167 -3 94 q 11 353 -17 267 q 111 513 39 439 q 190 558 147 549 q 281 554 232 568 q 325 542 303 549 q 375 528 347 535 q 385 553 379 540 q 396 582 390 567 q 440 604 408 613 q 460 599 450 601 q 479 593 471 596 q 513 574 507 583 q 514 535 518 564 q 495 327 503 429 q 483 121 488 225 q 484 92 483 107 q 490 71 485 78 q 503 69 494 64 q 525 101 511 75 q 550 154 539 131 q 569 199 561 178 q 586 243 578 221 q 603 290 594 265 q 615 290 607 292 q 631 283 624 289 q 644 266 639 276 q 646 242 649 256 q 631 178 642 219 q 603 97 619 138 q 563 26 586 57 q 511 -7 540 -4 q 435 -6 474 -14 q 378 22 397 1 q 354 75 360 42 q 349 144 349 108 q 353 215 350 181 q 354 274 356 250 q 347 288 354 294 q 331 261 340 281 q 283 148 303 204 q 232 39 263 92 m 161 56 q 217 153 194 103 q 258 252 239 203 q 299 349 278 301 q 349 442 319 397 q 281 460 313 468 q 226 420 250 451 q 184 342 201 389 q 158 243 167 294 q 149 142 149 192 q 161 56 150 92 m 446 672 q 390 672 419 665 q 331 697 360 679 q 278 742 303 715 q 240 801 254 768 q 285 808 264 813 q 325 788 307 803 q 386 736 357 763 q 444 682 415 710 q 446 672 446 681 z "},"":{"ha":597,"x_min":-17,"x_max":649,"o":"m 232 39 q 136 -1 206 -17 q 37 53 76 13 q -7 167 -3 94 q 11 353 -17 267 q 111 513 39 439 q 190 558 147 549 q 281 554 232 568 q 325 542 303 549 q 375 528 347 535 q 385 553 379 540 q 396 582 390 567 q 440 604 408 613 q 460 599 450 601 q 479 593 471 596 q 513 574 507 583 q 514 535 518 564 q 495 327 503 429 q 483 121 488 225 q 484 92 483 107 q 490 71 485 78 q 503 69 494 64 q 525 101 511 75 q 550 154 539 131 q 569 199 561 178 q 586 243 578 221 q 603 290 594 265 q 615 290 607 292 q 631 283 624 289 q 644 266 639 276 q 646 242 649 256 q 631 178 642 219 q 603 97 619 138 q 563 26 586 57 q 511 -7 540 -4 q 435 -6 474 -14 q 378 22 397 1 q 354 75 360 42 q 349 144 349 108 q 353 215 350 181 q 354 274 356 250 q 347 288 354 294 q 331 261 340 281 q 283 148 303 204 q 232 39 263 92 m 161 56 q 217 153 194 103 q 258 252 239 203 q 299 349 278 301 q 349 442 319 397 q 281 460 313 468 q 226 420 250 451 q 184 342 201 389 q 158 243 167 294 q 149 142 149 192 q 161 56 150 92 m 457 789 q 424 738 440 763 q 392 689 407 713 q 368 660 378 669 q 347 647 358 650 q 321 647 336 644 q 282 658 306 650 q 297 692 286 672 q 323 733 308 713 q 353 772 338 754 q 379 797 368 790 q 457 789 414 821 z "},"":{"ha":597,"x_min":-17,"x_max":649,"o":"m 232 39 q 136 -1 206 -17 q 37 53 76 13 q -7 167 -3 94 q 11 353 -17 267 q 111 513 39 439 q 190 558 147 549 q 281 554 232 568 q 325 542 303 549 q 375 528 347 535 q 385 553 379 540 q 396 582 390 567 q 440 604 408 613 q 460 599 450 601 q 479 593 471 596 q 513 574 507 583 q 514 535 518 564 q 495 327 503 429 q 483 121 488 225 q 484 92 483 107 q 490 71 485 78 q 503 69 494 64 q 525 101 511 75 q 550 154 539 131 q 569 199 561 178 q 586 243 578 221 q 603 290 594 265 q 615 290 607 292 q 631 283 624 289 q 644 266 639 276 q 646 242 649 256 q 631 178 642 219 q 603 97 619 138 q 563 26 586 57 q 511 -7 540 -4 q 435 -6 474 -14 q 378 22 397 1 q 354 75 360 42 q 349 144 349 108 q 353 215 350 181 q 354 274 356 250 q 347 288 354 294 q 331 261 340 281 q 283 148 303 204 q 232 39 263 92 m 161 56 q 217 153 194 103 q 258 252 239 203 q 299 349 278 301 q 349 442 319 397 q 281 460 313 468 q 226 420 250 451 q 184 342 201 389 q 158 243 167 294 q 149 142 149 192 q 161 56 150 92 m 261 679 q 299 758 278 721 q 351 828 319 796 q 375 839 361 838 q 402 836 389 840 q 425 822 415 832 q 438 800 435 813 q 443 731 442 765 q 447 661 444 696 q 389 669 407 651 q 364 719 371 688 q 335 685 346 697 q 315 669 325 674 q 294 669 306 665 q 261 679 282 672 z "},"":{"ha":597,"x_min":-17,"x_max":649,"o":"m 232 39 q 136 -1 206 -17 q 37 53 76 13 q -7 167 -3 94 q 11 353 -17 267 q 111 513 39 439 q 190 558 147 549 q 281 554 232 568 q 325 542 303 549 q 375 528 347 535 q 385 553 379 540 q 396 582 390 567 q 440 604 408 613 q 460 599 450 601 q 479 593 471 596 q 513 574 507 583 q 514 535 518 564 q 495 327 503 429 q 483 121 488 225 q 484 92 483 107 q 490 71 485 78 q 503 69 494 64 q 525 101 511 75 q 550 154 539 131 q 569 199 561 178 q 586 243 578 221 q 603 290 594 265 q 615 290 607 292 q 631 283 624 289 q 644 266 639 276 q 646 242 649 256 q 631 178 642 219 q 603 97 619 138 q 563 26 586 57 q 511 -7 540 -4 q 435 -6 474 -14 q 378 22 397 1 q 354 75 360 42 q 349 144 349 108 q 353 215 350 181 q 354 274 356 250 q 347 288 354 294 q 331 261 340 281 q 283 148 303 204 q 232 39 263 92 m 161 56 q 217 153 194 103 q 258 252 239 203 q 299 349 278 301 q 349 442 319 397 q 281 460 313 468 q 226 420 250 451 q 184 342 201 389 q 158 243 167 294 q 149 142 149 192 q 161 56 150 92 m 422 839 q 456 831 443 835 q 474 819 468 826 q 480 801 479 813 q 479 769 481 789 q 466 726 475 747 q 442 689 457 704 q 407 667 428 674 q 361 668 386 660 q 323 693 336 676 q 282 721 310 710 q 267 692 275 710 q 243 674 258 674 q 193 701 200 685 q 210 756 186 718 q 219 770 214 763 q 231 785 225 778 q 299 814 263 821 q 353 763 336 807 q 364 735 357 750 q 365 732 364 732 q 368 729 367 732 q 381 739 376 735 q 390 753 385 743 q 403 783 396 764 q 422 839 410 803 z "},"":{"ha":597,"x_min":-17,"x_max":649,"o":"m 232 39 q 136 -1 206 -17 q 37 53 76 13 q -7 167 -3 94 q 11 353 -17 267 q 111 513 39 439 q 190 558 147 549 q 281 554 232 568 q 325 542 303 549 q 375 528 347 535 q 385 553 379 540 q 396 582 390 567 q 440 604 408 613 q 460 599 450 601 q 479 593 471 596 q 513 574 507 583 q 514 535 518 564 q 495 327 503 429 q 483 121 488 225 q 484 92 483 107 q 490 71 485 78 q 503 69 494 64 q 525 101 511 75 q 550 154 539 131 q 569 199 561 178 q 586 243 578 221 q 603 290 594 265 q 615 290 607 292 q 631 283 624 289 q 644 266 639 276 q 646 242 649 256 q 631 178 642 219 q 603 97 619 138 q 563 26 586 57 q 511 -7 540 -4 q 435 -6 474 -14 q 378 22 397 1 q 354 75 360 42 q 349 144 349 108 q 353 215 350 181 q 354 274 356 250 q 347 288 354 294 q 331 261 340 281 q 283 148 303 204 q 232 39 263 92 m 161 56 q 217 153 194 103 q 258 252 239 203 q 299 349 278 301 q 349 442 319 397 q 281 460 313 468 q 226 420 250 451 q 184 342 201 389 q 158 243 167 294 q 149 142 149 192 q 161 56 150 92 m 313 694 q 300 664 313 676 q 269 651 288 651 q 238 664 250 651 q 225 694 225 676 q 238 726 225 714 q 269 739 250 739 q 300 726 288 739 q 313 694 313 714 m 424 694 q 410 664 424 676 q 379 651 397 651 q 347 664 360 651 q 335 694 335 676 q 347 726 335 714 q 379 739 360 739 q 410 726 397 739 q 424 694 424 714 z "},"":{"ha":597,"x_min":-17,"x_max":649,"o":"m 232 39 q 136 -1 206 -17 q 37 53 76 13 q -7 167 -3 94 q 11 353 -17 267 q 111 513 39 439 q 190 558 147 549 q 281 554 232 568 q 325 542 303 549 q 375 528 347 535 q 385 553 379 540 q 396 582 390 567 q 440 604 408 613 q 460 599 450 601 q 479 593 471 596 q 513 574 507 583 q 514 535 518 564 q 495 327 503 429 q 483 121 488 225 q 484 92 483 107 q 490 71 485 78 q 503 69 494 64 q 525 101 511 75 q 550 154 539 131 q 569 199 561 178 q 586 243 578 221 q 603 290 594 265 q 615 290 607 292 q 631 283 624 289 q 644 266 639 276 q 646 242 649 256 q 631 178 642 219 q 603 97 619 138 q 563 26 586 57 q 511 -7 540 -4 q 435 -6 474 -14 q 378 22 397 1 q 354 75 360 42 q 349 144 349 108 q 353 215 350 181 q 354 274 356 250 q 347 288 354 294 q 331 261 340 281 q 283 148 303 204 q 232 39 263 92 m 161 56 q 217 153 194 103 q 258 252 239 203 q 299 349 278 301 q 349 442 319 397 q 281 460 313 468 q 226 420 250 451 q 184 342 201 389 q 158 243 167 294 q 149 142 149 192 q 161 56 150 92 m 331 636 q 294 651 317 643 q 253 674 272 658 q 237 695 243 681 q 231 722 231 710 q 243 765 231 743 q 274 801 256 786 q 317 819 293 815 q 364 810 340 824 q 375 805 369 807 q 388 800 381 803 q 440 722 453 769 q 401 661 431 686 q 331 636 372 636 m 367 757 q 323 736 332 750 q 322 686 314 722 q 357 713 344 697 q 367 757 369 729 z "},"":{"ha":753,"x_min":-21,"x_max":797,"o":"m 757 290 q 785 274 776 283 q 795 256 793 265 q 795 239 797 247 q 792 226 793 231 q 768 170 781 196 q 741 121 756 144 q 708 74 726 97 q 667 28 690 51 q 572 -8 626 -8 q 435 28 492 -7 q 354 135 378 64 q 331 271 331 201 l 326 261 q 278 148 299 204 q 228 39 258 92 q 132 -1 201 -17 q 33 53 72 13 q -11 167 -7 94 q 7 353 -21 267 q 107 513 35 439 q 185 558 143 549 q 276 554 228 568 q 321 542 299 549 q 371 528 343 535 q 411 585 393 563 q 449 619 429 607 q 492 633 468 631 q 550 629 515 635 q 609 611 581 624 q 660 581 638 599 q 696 544 682 564 q 711 503 710 524 q 688 381 710 439 q 617 274 667 322 q 566 236 593 249 q 492 215 539 224 q 490 146 486 189 q 510 70 494 103 q 551 28 525 38 q 617 61 578 19 q 699 174 668 117 q 757 290 729 232 m 157 56 q 213 153 190 103 q 254 252 235 203 q 294 349 274 301 q 344 442 315 397 q 277 460 308 468 q 222 420 246 451 q 180 342 197 389 q 153 243 163 294 q 145 142 144 192 q 157 56 146 92 m 499 261 q 560 306 532 275 q 604 372 588 336 q 624 444 621 408 q 613 506 626 481 q 571 458 590 486 q 536 397 551 429 q 511 329 521 364 q 499 261 501 294 z "},"":{"ha":588,"x_min":-15,"x_max":656,"o":"m 589 289 q 617 270 607 281 q 630 250 626 260 q 633 232 633 240 q 631 218 632 224 q 618 172 626 200 q 599 115 610 144 q 578 60 589 86 q 556 21 567 35 q 522 -2 543 4 q 467 -11 501 -8 q 382 2 415 -17 q 326 53 349 21 q 292 125 304 85 q 274 203 281 165 q 259 155 265 175 q 248 119 253 135 q 240 92 243 104 q 232 71 236 81 q 201 19 221 42 q 147 -6 182 -3 q 35 29 72 -10 q -11 156 -3 68 q -10 268 -15 206 q 12 392 -4 331 q 56 506 28 454 q 122 588 83 558 q 185 608 150 607 q 275 596 221 610 q 283 679 278 628 q 300 792 288 731 q 271 803 288 794 q 246 823 254 813 q 244 842 238 833 q 282 851 250 850 q 298 852 290 851 q 314 853 306 853 q 360 977 332 917 q 433 1083 389 1038 q 495 1106 458 1110 q 565 1085 532 1103 q 613 1050 594 1071 q 625 993 631 1029 q 611 919 618 953 q 597 857 604 886 q 649 819 625 847 q 650 806 656 811 q 632 797 644 800 q 604 794 619 794 q 576 793 589 793 q 522 681 554 735 q 440 553 489 626 q 427 424 433 494 q 420 287 421 354 q 426 160 419 219 q 453 61 433 100 q 469 42 460 46 q 490 47 479 38 q 512 78 500 56 q 537 134 524 101 q 563 206 550 167 q 589 289 576 246 m 124 44 q 153 61 138 40 q 184 119 169 82 q 213 205 199 156 q 236 308 226 254 q 252 417 246 363 q 258 519 258 472 q 222 520 242 543 q 182 448 201 497 q 146 333 163 399 q 119 207 129 268 q 110 100 110 146 q 124 44 110 54 m 563 1011 q 535 957 551 997 q 500 864 518 917 q 515 865 507 864 q 529 865 522 865 l 536 865 q 556 947 549 908 q 563 1011 564 985 m 446 650 q 479 711 461 674 q 513 792 497 749 l 478 792 q 457 714 465 751 q 446 650 449 676 z "},"":{"ha":411,"x_min":-12,"x_max":456,"o":"m 415 290 q 443 274 435 283 q 453 256 451 265 q 453 239 456 247 q 450 226 451 231 q 426 170 439 196 q 399 121 414 144 q 367 74 385 97 q 325 28 349 51 q 231 -8 285 -8 q 93 28 150 -7 q 13 135 36 64 q -10 252 -8 192 q 2 369 -12 313 q 47 476 17 426 q 122 560 78 525 q 170 588 147 579 q 217 594 193 596 q 267 585 240 593 q 328 564 294 576 q 359 538 350 554 q 369 503 368 522 q 347 381 368 439 q 275 274 325 322 q 224 236 251 249 q 150 215 197 224 q 149 146 144 189 q 168 70 153 103 q 210 28 183 38 q 275 61 236 19 q 357 174 326 117 q 415 290 388 232 m 157 261 q 218 306 190 275 q 263 372 246 336 q 282 444 279 408 q 271 506 285 481 q 229 458 249 486 q 194 397 210 429 q 169 329 179 364 q 157 261 160 294 m 353 639 q 297 639 326 632 q 238 664 267 646 q 185 708 210 682 q 147 768 161 735 q 192 774 171 779 q 232 754 214 769 q 293 703 264 729 q 351 649 322 676 q 353 639 353 647 z "},"":{"ha":411,"x_min":-12,"x_max":456,"o":"m 415 290 q 443 274 435 283 q 453 256 451 265 q 453 239 456 247 q 450 226 451 231 q 426 170 439 196 q 399 121 414 144 q 367 74 385 97 q 325 28 349 51 q 231 -8 285 -8 q 93 28 150 -7 q 13 135 36 64 q -10 252 -8 192 q 2 369 -12 313 q 47 476 17 426 q 122 560 78 525 q 170 588 147 579 q 217 594 193 596 q 267 585 240 593 q 328 564 294 576 q 359 538 350 554 q 369 503 368 522 q 347 381 368 439 q 275 274 325 322 q 224 236 251 249 q 150 215 197 224 q 149 146 144 189 q 168 70 153 103 q 210 28 183 38 q 275 61 236 19 q 357 174 326 117 q 415 290 388 232 m 157 261 q 218 306 190 275 q 263 372 246 336 q 282 444 279 408 q 271 506 285 481 q 229 458 249 486 q 194 397 210 429 q 169 329 179 364 q 157 261 160 294 m 342 790 q 308 739 325 764 q 276 690 292 714 q 253 661 263 671 q 232 649 243 651 q 206 649 221 646 q 167 660 190 651 q 182 694 171 674 q 208 735 193 714 q 238 774 222 756 q 264 799 253 792 q 342 790 299 822 z "},"":{"ha":411,"x_min":-12,"x_max":456,"o":"m 415 290 q 443 274 435 283 q 453 256 451 265 q 453 239 456 247 q 450 226 451 231 q 426 170 439 196 q 399 121 414 144 q 367 74 385 97 q 325 28 349 51 q 231 -8 285 -8 q 93 28 150 -7 q 13 135 36 64 q -10 252 -8 192 q 2 369 -12 313 q 47 476 17 426 q 122 560 78 525 q 170 588 147 579 q 217 594 193 596 q 267 585 240 593 q 328 564 294 576 q 359 538 350 554 q 369 503 368 522 q 347 381 368 439 q 275 274 325 322 q 224 236 251 249 q 150 215 197 224 q 149 146 144 189 q 168 70 153 103 q 210 28 183 38 q 275 61 236 19 q 357 174 326 117 q 415 290 388 232 m 157 261 q 218 306 190 275 q 263 372 246 336 q 282 444 279 408 q 271 506 285 481 q 229 458 249 486 q 194 397 210 429 q 169 329 179 364 q 157 261 160 294 m 156 663 q 193 742 172 704 q 246 811 214 779 q 269 822 256 821 q 297 819 283 824 q 319 806 310 815 q 332 783 329 796 q 338 714 336 749 q 342 644 339 679 q 283 653 301 635 q 258 703 265 671 q 230 669 240 681 q 210 653 219 657 q 188 652 200 649 q 156 663 176 656 z "},"":{"ha":411,"x_min":-12,"x_max":456,"o":"m 415 290 q 443 274 435 283 q 453 256 451 265 q 453 239 456 247 q 450 226 451 231 q 426 170 439 196 q 399 121 414 144 q 367 74 385 97 q 325 28 349 51 q 231 -8 285 -8 q 93 28 150 -7 q 13 135 36 64 q -10 252 -8 192 q 2 369 -12 313 q 47 476 17 426 q 122 560 78 525 q 170 588 147 579 q 217 594 193 596 q 267 585 240 593 q 328 564 294 576 q 359 538 350 554 q 369 503 368 522 q 347 381 368 439 q 275 274 325 322 q 224 236 251 249 q 150 215 197 224 q 149 146 144 189 q 168 70 153 103 q 210 28 183 38 q 275 61 236 19 q 357 174 326 117 q 415 290 388 232 m 157 261 q 218 306 190 275 q 263 372 246 336 q 282 444 279 408 q 271 506 285 481 q 229 458 249 486 q 194 397 210 429 q 169 329 179 364 q 157 261 160 294 m 236 704 q 224 674 236 686 q 193 661 211 661 q 161 674 174 661 q 149 704 149 686 q 161 736 149 724 q 193 749 174 749 q 224 736 211 749 q 236 704 236 724 m 347 704 q 334 674 347 686 q 303 661 321 661 q 271 674 283 661 q 258 704 258 686 q 271 736 258 724 q 303 749 283 749 q 334 736 321 749 q 347 704 347 724 z "},"":{"ha":243,"x_min":-21,"x_max":290,"o":"m 188 125 q 217 205 207 169 q 246 288 226 240 q 283 267 275 281 q 281 226 290 254 q 264 176 271 197 q 250 133 257 154 q 235 91 243 113 q 215 40 228 69 q 183 4 200 10 q 131 6 167 -1 q 88 13 108 10 q 52 22 68 15 q 24 40 36 28 q 7 72 13 51 q -6 164 -3 107 q -6 285 -8 221 q 1 415 -4 350 q 13 529 7 479 q 54 563 17 561 q 140 533 92 564 q 148 517 149 528 q 147 496 147 507 q 143 431 146 467 q 138 357 140 394 q 132 284 135 319 q 129 221 129 249 q 129 185 129 207 q 131 140 129 163 q 135 100 132 118 q 146 76 139 82 q 163 81 153 71 q 188 125 172 90 m 185 621 q 128 621 158 614 q 70 646 99 628 q 17 690 42 664 q -21 750 -7 717 q 24 756 3 761 q 64 736 46 751 q 125 685 96 711 q 183 631 154 658 q 185 621 185 629 z "},"":{"ha":243,"x_min":-8,"x_max":290,"o":"m 188 125 q 217 205 207 169 q 246 288 226 240 q 283 267 275 281 q 281 226 290 254 q 264 176 271 197 q 250 133 257 154 q 235 91 243 113 q 215 40 228 69 q 183 4 200 10 q 131 6 167 -1 q 88 13 108 10 q 52 22 68 15 q 24 40 36 28 q 7 72 13 51 q -6 164 -3 107 q -6 285 -8 221 q 1 415 -4 350 q 13 529 7 479 q 54 563 17 561 q 140 533 92 564 q 148 517 149 528 q 147 496 147 507 q 143 431 146 467 q 138 357 140 394 q 132 284 135 319 q 129 221 129 249 q 129 185 129 207 q 131 140 129 163 q 135 100 132 118 q 146 76 139 82 q 163 81 153 71 q 188 125 172 90 m 186 774 q 153 722 169 747 q 121 674 136 697 q 97 644 107 654 q 76 632 88 635 q 50 632 65 629 q 11 643 35 635 q 26 677 15 657 q 52 718 38 697 q 82 757 67 739 q 108 782 97 775 q 186 774 143 806 z "},"":{"ha":243,"x_min":-8,"x_max":290,"o":"m 188 125 q 217 205 207 169 q 246 288 226 240 q 283 267 275 281 q 281 226 290 254 q 264 176 271 197 q 250 133 257 154 q 235 91 243 113 q 215 40 228 69 q 183 4 200 10 q 131 6 167 -1 q 88 13 108 10 q 52 22 68 15 q 24 40 36 28 q 7 72 13 51 q -6 164 -3 107 q -6 285 -8 221 q 1 415 -4 350 q 13 529 7 479 q 54 563 17 561 q 140 533 92 564 q 148 517 149 528 q 147 496 147 507 q 143 431 146 467 q 138 357 140 394 q 132 284 135 319 q 129 221 129 249 q 129 185 129 207 q 131 140 129 163 q 135 100 132 118 q 146 76 139 82 q 163 81 153 71 q 188 125 172 90 m -7 643 q 31 722 10 685 q 83 792 51 760 q 107 803 93 801 q 134 800 121 804 q 157 786 147 796 q 169 764 167 776 q 175 694 174 729 q 179 625 176 660 q 121 633 139 615 q 96 683 103 651 q 67 649 78 661 q 47 633 57 638 q 26 633 38 629 q -7 643 14 636 z "},"":{"ha":243,"x_min":-8,"x_max":290,"o":"m 188 125 q 217 205 207 169 q 246 288 226 240 q 283 267 275 281 q 281 226 290 254 q 264 176 271 197 q 250 133 257 154 q 235 91 243 113 q 215 40 228 69 q 183 4 200 10 q 131 6 167 -1 q 88 13 108 10 q 52 22 68 15 q 24 40 36 28 q 7 72 13 51 q -6 164 -3 107 q -6 285 -8 221 q 1 415 -4 350 q 13 529 7 479 q 54 563 17 561 q 140 533 92 564 q 148 517 149 528 q 147 496 147 507 q 143 431 146 467 q 138 357 140 394 q 132 284 135 319 q 129 221 129 249 q 129 185 129 207 q 131 140 129 163 q 135 100 132 118 q 146 76 139 82 q 163 81 153 71 q 188 125 172 90 m 82 669 q 69 639 82 651 q 39 626 57 626 q 7 639 19 626 q -6 669 -6 651 q 7 701 -6 689 q 39 714 19 714 q 69 701 57 714 q 82 669 82 689 m 193 669 q 180 639 193 651 q 149 626 167 626 q 117 639 129 626 q 104 669 104 651 q 117 701 104 689 q 149 714 129 714 q 180 701 167 714 q 193 669 193 689 z "},"":{"ha":593,"x_min":-10,"x_max":650,"o":"m 160 343 q 231 450 194 396 q 319 536 267 504 q 362 552 338 549 q 410 551 386 556 q 452 533 433 546 q 478 499 471 519 q 491 421 489 465 q 490 329 493 376 q 483 235 488 282 q 476 150 478 189 q 480 85 475 111 q 501 53 485 58 q 530 75 515 49 q 557 140 544 101 q 580 219 569 178 q 596 288 590 261 q 613 283 603 286 q 632 276 624 281 q 645 262 640 271 q 649 239 650 253 q 635 174 643 207 q 617 111 628 140 q 594 58 607 82 q 567 22 581 35 q 518 -2 543 3 q 460 0 493 -7 q 403 23 425 6 q 367 64 381 40 q 349 116 354 88 q 344 174 344 144 q 353 308 344 243 q 369 436 363 374 q 338 476 375 514 q 263 379 296 435 q 205 263 229 324 q 165 139 181 201 q 143 21 150 76 q 136 1 142 10 q 115 -10 131 -7 q 47 3 75 -17 q 8 58 18 22 q -7 181 -4 115 q -6 315 -10 247 q 6 446 -3 382 q 29 561 15 510 q 60 591 36 586 q 110 588 85 596 q 156 563 136 579 q 174 531 175 546 q 163 435 167 482 q 160 343 158 389 m 375 829 q 408 821 396 825 q 426 810 421 817 q 433 791 432 803 q 432 760 433 779 q 419 716 428 738 q 395 679 410 694 q 360 657 381 664 q 314 658 339 650 q 276 683 289 667 q 235 711 263 700 q 219 682 228 700 q 196 664 211 664 q 146 692 153 675 q 163 746 139 708 q 172 760 167 753 q 183 775 178 768 q 252 804 215 811 q 306 753 289 797 q 317 725 310 740 q 318 722 317 722 q 321 719 319 722 q 333 729 329 725 q 343 744 338 733 q 356 774 349 754 q 375 829 363 793 z "},"":{"ha":503,"x_min":-15,"x_max":521,"o":"m 313 1 q 243 -27 279 -22 q 171 -23 207 -32 q 102 8 135 -14 q 43 57 69 29 q 1 124 14 89 q -14 200 -12 160 q 6 370 -15 288 q 90 519 28 453 q 129 545 104 538 q 182 546 154 553 q 190 545 185 544 q 200 547 196 546 q 258 560 231 567 q 313 540 285 553 q 418 444 382 503 q 436 371 432 421 q 433 263 440 321 q 473 272 453 265 q 504 286 493 279 q 516 263 511 279 q 506 231 521 246 q 460 200 488 213 q 418 182 432 188 q 377 75 403 124 q 313 1 351 26 m 294 265 q 326 258 310 261 q 356 260 342 256 q 360 331 358 292 q 357 405 361 369 q 340 467 353 440 q 299 503 326 494 q 269 501 282 507 q 244 485 256 496 q 225 460 233 474 q 210 436 217 446 q 165 340 188 396 q 133 227 143 285 q 130 117 122 169 q 175 32 138 64 q 224 26 197 13 q 274 67 250 39 q 314 128 297 94 q 331 183 331 161 q 281 214 299 197 q 260 244 264 231 q 265 264 256 257 q 294 265 274 271 m 333 617 q 277 617 307 610 q 219 642 247 624 q 166 686 190 660 q 128 746 142 713 q 173 752 151 757 q 213 732 194 747 q 274 681 244 707 q 332 626 303 654 q 333 617 333 625 z "},"":{"ha":503,"x_min":-15,"x_max":521,"o":"m 313 1 q 243 -27 279 -22 q 171 -23 207 -32 q 102 8 135 -14 q 43 57 69 29 q 1 124 14 89 q -14 200 -12 160 q 6 370 -15 288 q 90 519 28 453 q 129 545 104 538 q 182 546 154 553 q 190 545 185 544 q 200 547 196 546 q 258 560 231 567 q 313 540 285 553 q 418 444 382 503 q 436 371 432 421 q 433 263 440 321 q 473 272 453 265 q 504 286 493 279 q 516 263 511 279 q 506 231 521 246 q 460 200 488 213 q 418 182 432 188 q 377 75 403 124 q 313 1 351 26 m 294 265 q 326 258 310 261 q 356 260 342 256 q 360 331 358 292 q 357 405 361 369 q 340 467 353 440 q 299 503 326 494 q 269 501 282 507 q 244 485 256 496 q 225 460 233 474 q 210 436 217 446 q 165 340 188 396 q 133 227 143 285 q 130 117 122 169 q 175 32 138 64 q 224 26 197 13 q 274 67 250 39 q 314 128 297 94 q 331 183 331 161 q 281 214 299 197 q 260 244 264 231 q 265 264 256 257 q 294 265 274 271 m 342 783 q 308 732 325 757 q 276 683 292 707 q 253 654 263 664 q 232 642 243 644 q 206 642 221 639 q 167 653 190 644 q 182 687 171 667 q 208 728 193 707 q 238 767 222 749 q 264 792 253 785 q 342 783 299 815 z "},"":{"ha":503,"x_min":-15,"x_max":521,"o":"m 313 1 q 243 -27 279 -22 q 171 -23 207 -32 q 102 8 135 -14 q 43 57 69 29 q 1 124 14 89 q -14 200 -12 160 q 6 370 -15 288 q 90 519 28 453 q 129 545 104 538 q 182 546 154 553 q 190 545 185 544 q 200 547 196 546 q 258 560 231 567 q 313 540 285 553 q 418 444 382 503 q 436 371 432 421 q 433 263 440 321 q 473 272 453 265 q 504 286 493 279 q 516 263 511 279 q 506 231 521 246 q 460 200 488 213 q 418 182 432 188 q 377 75 403 124 q 313 1 351 26 m 294 265 q 326 258 310 261 q 356 260 342 256 q 360 331 358 292 q 357 405 361 369 q 340 467 353 440 q 299 503 326 494 q 269 501 282 507 q 244 485 256 496 q 225 460 233 474 q 210 436 217 446 q 165 340 188 396 q 133 227 143 285 q 130 117 122 169 q 175 32 138 64 q 224 26 197 13 q 274 67 250 39 q 314 128 297 94 q 331 183 331 161 q 281 214 299 197 q 260 244 264 231 q 265 264 256 257 q 294 265 274 271 m 138 664 q 175 743 154 706 q 228 813 196 781 q 251 824 238 822 q 278 821 265 825 q 301 807 292 817 q 314 785 311 797 q 319 715 318 750 q 324 646 321 681 q 265 654 283 636 q 240 704 247 672 q 212 670 222 682 q 192 654 201 658 q 170 653 182 650 q 138 664 158 657 z "},"":{"ha":503,"x_min":-15,"x_max":521,"o":"m 313 1 q 243 -27 279 -22 q 171 -23 207 -32 q 102 8 135 -14 q 43 57 69 29 q 1 124 14 89 q -14 200 -12 160 q 6 370 -15 288 q 90 519 28 453 q 129 545 104 538 q 182 546 154 553 q 190 545 185 544 q 200 547 196 546 q 258 560 231 567 q 313 540 285 553 q 418 444 382 503 q 436 371 432 421 q 433 263 440 321 q 473 272 453 265 q 504 286 493 279 q 516 263 511 279 q 506 231 521 246 q 460 200 488 213 q 418 182 432 188 q 377 75 403 124 q 313 1 351 26 m 294 265 q 326 258 310 261 q 356 260 342 256 q 360 331 358 292 q 357 405 361 369 q 340 467 353 440 q 299 503 326 494 q 269 501 282 507 q 244 485 256 496 q 225 460 233 474 q 210 436 217 446 q 165 340 188 396 q 133 227 143 285 q 130 117 122 169 q 175 32 138 64 q 224 26 197 13 q 274 67 250 39 q 314 128 297 94 q 331 183 331 161 q 281 214 299 197 q 260 244 264 231 q 265 264 256 257 q 294 265 274 271 m 336 811 q 369 803 357 807 q 388 792 382 799 q 394 773 393 785 q 393 742 394 761 q 380 698 389 719 q 356 661 371 676 q 321 639 342 646 q 275 640 300 632 q 237 665 250 649 q 196 693 224 682 q 181 664 189 682 q 157 646 172 646 q 107 674 114 657 q 124 728 100 690 q 133 742 128 735 q 144 757 139 750 q 213 786 176 793 q 267 735 250 779 q 278 707 271 722 q 279 704 278 704 q 282 701 281 704 q 294 711 290 707 q 304 726 299 715 q 317 756 310 736 q 336 811 324 775 z "},"":{"ha":503,"x_min":-15,"x_max":521,"o":"m 313 1 q 243 -27 279 -22 q 171 -23 207 -32 q 102 8 135 -14 q 43 57 69 29 q 1 124 14 89 q -14 200 -12 160 q 6 370 -15 288 q 90 519 28 453 q 129 545 104 538 q 182 546 154 553 q 190 545 185 544 q 200 547 196 546 q 258 560 231 567 q 313 540 285 553 q 418 444 382 503 q 436 371 432 421 q 433 263 440 321 q 473 272 453 265 q 504 286 493 279 q 516 263 511 279 q 506 231 521 246 q 460 200 488 213 q 418 182 432 188 q 377 75 403 124 q 313 1 351 26 m 294 265 q 326 258 310 261 q 356 260 342 256 q 360 331 358 292 q 357 405 361 369 q 340 467 353 440 q 299 503 326 494 q 269 501 282 507 q 244 485 256 496 q 225 460 233 474 q 210 436 217 446 q 165 340 188 396 q 133 227 143 285 q 130 117 122 169 q 175 32 138 64 q 224 26 197 13 q 274 67 250 39 q 314 128 297 94 q 331 183 331 161 q 281 214 299 197 q 260 244 264 231 q 265 264 256 257 q 294 265 274 271 m 222 676 q 210 646 222 658 q 179 633 197 633 q 147 646 160 633 q 135 676 135 658 q 147 708 135 696 q 179 721 160 721 q 210 708 197 721 q 222 676 222 696 m 333 676 q 320 646 333 658 q 289 633 307 633 q 257 646 269 633 q 244 676 244 658 q 257 708 244 696 q 289 721 269 721 q 320 708 307 721 q 333 676 333 696 z "},"":{"ha":579,"x_min":-25,"x_max":629,"o":"m 582 293 q 611 272 601 281 q 625 257 621 263 q 628 247 629 251 q 628 242 628 243 q 602 155 617 201 q 567 69 588 108 q 519 5 547 29 q 457 -17 492 -19 q 383 2 410 -12 q 343 44 356 17 q 328 110 331 71 q 325 201 325 149 q 313 177 318 188 q 303 158 308 167 q 283 126 292 140 q 267 99 275 113 q 251 74 260 86 q 229 44 242 61 q 188 6 208 18 q 147 -8 167 -6 q 106 -3 126 -10 q 65 13 86 3 q 6 68 26 31 q -19 153 -14 106 q -19 257 -25 201 q 1 366 -12 313 q 34 467 15 419 q 72 550 53 515 q 106 583 92 579 q 151 572 121 588 q 181 559 165 564 q 206 549 196 554 q 221 536 217 544 q 218 511 225 528 q 151 333 174 419 q 122 183 128 247 q 127 86 115 119 q 165 66 139 53 q 230 149 190 79 q 321 358 269 218 q 337 422 331 386 q 349 488 343 457 q 363 539 354 518 q 386 558 371 560 q 440 547 417 551 q 478 532 464 542 q 498 506 493 522 q 496 463 503 490 q 478 393 488 432 q 462 314 469 354 q 448 234 454 274 q 440 161 442 194 q 442 91 438 122 q 455 45 446 60 q 476 38 464 31 q 506 83 489 46 q 522 125 511 97 q 544 184 533 153 q 566 245 556 215 q 582 293 576 275 m 382 638 q 326 638 356 631 q 267 663 296 644 q 215 707 239 681 q 176 767 190 733 q 222 773 200 778 q 261 753 243 768 q 322 701 293 728 q 381 647 351 675 q 382 638 382 646 z "},"":{"ha":579,"x_min":-25,"x_max":629,"o":"m 582 293 q 611 272 601 281 q 625 257 621 263 q 628 247 629 251 q 628 242 628 243 q 602 155 617 201 q 567 69 588 108 q 519 5 547 29 q 457 -17 492 -19 q 383 2 410 -12 q 343 44 356 17 q 328 110 331 71 q 325 201 325 149 q 313 177 318 188 q 303 158 308 167 q 283 126 292 140 q 267 99 275 113 q 251 74 260 86 q 229 44 242 61 q 188 6 208 18 q 147 -8 167 -6 q 106 -3 126 -10 q 65 13 86 3 q 6 68 26 31 q -19 153 -14 106 q -19 257 -25 201 q 1 366 -12 313 q 34 467 15 419 q 72 550 53 515 q 106 583 92 579 q 151 572 121 588 q 181 559 165 564 q 206 549 196 554 q 221 536 217 544 q 218 511 225 528 q 151 333 174 419 q 122 183 128 247 q 127 86 115 119 q 165 66 139 53 q 230 149 190 79 q 321 358 269 218 q 337 422 331 386 q 349 488 343 457 q 363 539 354 518 q 386 558 371 560 q 440 547 417 551 q 478 532 464 542 q 498 506 493 522 q 496 463 503 490 q 478 393 488 432 q 462 314 469 354 q 448 234 454 274 q 440 161 442 194 q 442 91 438 122 q 455 45 446 60 q 476 38 464 31 q 506 83 489 46 q 522 125 511 97 q 544 184 533 153 q 566 245 556 215 q 582 293 576 275 m 425 765 q 392 714 408 739 q 360 665 375 689 q 336 636 346 646 q 315 624 326 626 q 289 624 304 621 q 250 635 274 626 q 265 669 254 649 q 291 710 276 689 q 321 749 306 731 q 347 774 336 767 q 425 765 382 797 z "},"":{"ha":579,"x_min":-25,"x_max":629,"o":"m 582 293 q 611 272 601 281 q 625 257 621 263 q 628 247 629 251 q 628 242 628 243 q 602 155 617 201 q 567 69 588 108 q 519 5 547 29 q 457 -17 492 -19 q 383 2 410 -12 q 343 44 356 17 q 328 110 331 71 q 325 201 325 149 q 313 177 318 188 q 303 158 308 167 q 283 126 292 140 q 267 99 275 113 q 251 74 260 86 q 229 44 242 61 q 188 6 208 18 q 147 -8 167 -6 q 106 -3 126 -10 q 65 13 86 3 q 6 68 26 31 q -19 153 -14 106 q -19 257 -25 201 q 1 366 -12 313 q 34 467 15 419 q 72 550 53 515 q 106 583 92 579 q 151 572 121 588 q 181 559 165 564 q 206 549 196 554 q 221 536 217 544 q 218 511 225 528 q 151 333 174 419 q 122 183 128 247 q 127 86 115 119 q 165 66 139 53 q 230 149 190 79 q 321 358 269 218 q 337 422 331 386 q 349 488 343 457 q 363 539 354 518 q 386 558 371 560 q 440 547 417 551 q 478 532 464 542 q 498 506 493 522 q 496 463 503 490 q 478 393 488 432 q 462 314 469 354 q 448 234 454 274 q 440 161 442 194 q 442 91 438 122 q 455 45 446 60 q 476 38 464 31 q 506 83 489 46 q 522 125 511 97 q 544 184 533 153 q 566 245 556 215 q 582 293 576 275 m 217 649 q 254 728 233 690 q 307 797 275 765 q 331 808 317 807 q 358 806 344 810 q 381 792 371 801 q 393 769 390 782 q 399 700 397 735 q 403 631 400 665 q 344 639 363 621 q 319 689 326 657 q 291 655 301 667 q 271 639 281 643 q 249 638 261 635 q 217 649 238 642 z "},"":{"ha":579,"x_min":-25,"x_max":629,"o":"m 582 293 q 611 272 601 281 q 625 257 621 263 q 628 247 629 251 q 628 242 628 243 q 602 155 617 201 q 567 69 588 108 q 519 5 547 29 q 457 -17 492 -19 q 383 2 410 -12 q 343 44 356 17 q 328 110 331 71 q 325 201 325 149 q 313 177 318 188 q 303 158 308 167 q 283 126 292 140 q 267 99 275 113 q 251 74 260 86 q 229 44 242 61 q 188 6 208 18 q 147 -8 167 -6 q 106 -3 126 -10 q 65 13 86 3 q 6 68 26 31 q -19 153 -14 106 q -19 257 -25 201 q 1 366 -12 313 q 34 467 15 419 q 72 550 53 515 q 106 583 92 579 q 151 572 121 588 q 181 559 165 564 q 206 549 196 554 q 221 536 217 544 q 218 511 225 528 q 151 333 174 419 q 122 183 128 247 q 127 86 115 119 q 165 66 139 53 q 230 149 190 79 q 321 358 269 218 q 337 422 331 386 q 349 488 343 457 q 363 539 354 518 q 386 558 371 560 q 440 547 417 551 q 478 532 464 542 q 498 506 493 522 q 496 463 503 490 q 478 393 488 432 q 462 314 469 354 q 448 234 454 274 q 440 161 442 194 q 442 91 438 122 q 455 45 446 60 q 476 38 464 31 q 506 83 489 46 q 522 125 511 97 q 544 184 533 153 q 566 245 556 215 q 582 293 576 275 m 290 669 q 278 639 290 651 q 247 626 265 626 q 215 639 228 626 q 203 669 203 651 q 215 701 203 689 q 247 714 228 714 q 278 701 265 714 q 290 669 290 689 m 401 669 q 388 639 401 651 q 357 626 375 626 q 325 639 338 626 q 313 669 313 651 q 325 701 313 689 q 357 714 338 714 q 388 701 375 714 q 401 669 401 689 z "},"":{"ha":665,"x_min":-40,"x_max":703,"o":"m 667 281 q 697 255 690 274 q 699 228 703 236 q 647 148 676 185 q 575 88 617 111 q 560 80 565 82 q 553 76 556 78 q 551 69 551 74 q 550 56 550 65 q 530 -69 544 -6 q 490 -190 515 -132 q 431 -297 465 -247 q 350 -382 396 -347 q 247 -431 301 -421 q 131 -421 192 -442 q 106 -410 118 -414 q 81 -401 93 -406 q 13 -361 39 -387 q -26 -302 -14 -335 q -40 -234 -39 -269 q -29 -165 -40 -199 q 60 -40 -4 -89 q 135 8 94 -11 q 219 42 176 28 q 306 67 263 56 q 390 90 349 78 q 413 101 403 94 q 424 124 422 108 q 431 249 429 190 q 432 365 432 307 q 347 250 389 301 q 249 153 304 199 q 188 128 222 131 q 121 137 154 126 q 60 169 88 147 q 18 217 32 190 q -9 306 -6 263 q -5 391 -12 349 q 16 476 3 433 q 42 561 29 518 q 45 577 43 568 q 51 594 47 586 q 62 606 56 601 q 78 610 68 611 q 122 601 100 608 q 165 582 144 593 q 184 567 175 579 q 190 547 193 556 q 165 453 179 507 q 142 347 151 399 q 130 251 132 294 q 140 189 128 208 q 182 181 153 169 q 265 253 211 193 q 370 398 326 319 q 454 556 414 476 q 484 578 463 575 q 529 576 506 582 q 570 557 553 569 q 588 533 588 544 q 583 482 588 521 q 574 389 579 443 q 563 272 568 335 q 554 149 558 208 q 617 201 590 167 q 667 281 644 236 m 410 43 q 317 17 363 29 q 231 -10 272 6 q 153 -48 190 -26 q 88 -103 117 -69 q 47 -176 57 -137 q 41 -248 36 -214 q 65 -306 46 -282 q 111 -340 83 -331 q 174 -337 139 -349 q 249 -285 210 -325 q 349 -137 311 -218 q 410 43 386 -56 m 439 771 q 406 719 422 744 q 374 671 389 694 q 350 642 360 651 q 329 629 340 632 q 303 629 318 626 q 264 640 288 632 q 279 674 268 654 q 305 715 290 694 q 335 754 319 736 q 361 779 350 772 q 439 771 396 803 z "},"":{"ha":665,"x_min":-40,"x_max":703,"o":"m 667 281 q 697 255 690 274 q 699 228 703 236 q 647 148 676 185 q 575 88 617 111 q 560 80 565 82 q 553 76 556 78 q 551 69 551 74 q 550 56 550 65 q 530 -69 544 -6 q 490 -190 515 -132 q 431 -297 465 -247 q 350 -382 396 -347 q 247 -431 301 -421 q 131 -421 192 -442 q 106 -410 118 -414 q 81 -401 93 -406 q 13 -361 39 -387 q -26 -302 -14 -335 q -40 -234 -39 -269 q -29 -165 -40 -199 q 60 -40 -4 -89 q 135 8 94 -11 q 219 42 176 28 q 306 67 263 56 q 390 90 349 78 q 413 101 403 94 q 424 124 422 108 q 431 249 429 190 q 432 365 432 307 q 347 250 389 301 q 249 153 304 199 q 188 128 222 131 q 121 137 154 126 q 60 169 88 147 q 18 217 32 190 q -9 306 -6 263 q -5 391 -12 349 q 16 476 3 433 q 42 561 29 518 q 45 577 43 568 q 51 594 47 586 q 62 606 56 601 q 78 610 68 611 q 122 601 100 608 q 165 582 144 593 q 184 567 175 579 q 190 547 193 556 q 165 453 179 507 q 142 347 151 399 q 130 251 132 294 q 140 189 128 208 q 182 181 153 169 q 265 253 211 193 q 370 398 326 319 q 454 556 414 476 q 484 578 463 575 q 529 576 506 582 q 570 557 553 569 q 588 533 588 544 q 583 482 588 521 q 574 389 579 443 q 563 272 568 335 q 554 149 558 208 q 617 201 590 167 q 667 281 644 236 m 410 43 q 317 17 363 29 q 231 -10 272 6 q 153 -48 190 -26 q 88 -103 117 -69 q 47 -176 57 -137 q 41 -248 36 -214 q 65 -306 46 -282 q 111 -340 83 -331 q 174 -337 139 -349 q 249 -285 210 -325 q 349 -137 311 -218 q 410 43 386 -56 m 328 674 q 315 643 328 656 q 285 631 303 631 q 253 643 265 631 q 240 674 240 656 q 253 706 240 693 q 285 718 265 718 q 315 706 303 718 q 328 674 328 693 m 439 674 q 426 643 439 656 q 394 631 413 631 q 363 643 375 631 q 350 674 350 656 q 363 706 350 693 q 394 718 375 718 q 426 706 413 718 q 439 674 439 693 z "}}}
